SplineFontDB: 3.2
FontName: D-DIN-PRO-Regular-Italic
FullName: D-DIN-PRO-Regular-Italic
FamilyName: D-DIN-PRO
Weight: Regular
Copyright: Copyright (c) CyberFei. All rights reserved
Version: 1.1.0
ItalicAngle: -13
UnderlinePosition: -150
UnderlineWidth: 50
Ascent: 831
Descent: 169
InvalidEm: 0
sfntRevision: 0x00010000
LayerCount: 2
Layer: 0 0 "Back" 1
Layer: 1 0 "Fore" 0
XUID: [1021 868 -1451673819 3720]
StyleMap: 0x0040
FSType: 4
OS2Version: 3
OS2_WeightWidthSlopeOnly: 0
OS2_UseTypoMetrics: 0
CreationTime: 1462909513
ModificationTime: 1778060079
PfmFamily: 17
TTFWeight: 400
TTFWidth: 5
LineGap: 86
VLineGap: 0
Panose: 2 11 5 4 3 2 2 3 2 4
OS2TypoAscent: 831
OS2TypoAOffset: 0
OS2TypoDescent: -169
OS2TypoDOffset: 0
OS2TypoLinegap: 86
OS2WinAscent: 902
OS2WinAOffset: 0
OS2WinDescent: 184
OS2WinDOffset: 0
HheadAscent: 831
HheadAOffset: 0
HheadDescent: -169
HheadDOffset: 0
OS2SubXSize: 650
OS2SubYSize: 600
OS2SubXOff: 0
OS2SubYOff: 75
OS2SupXSize: 650
OS2SupYSize: 600
OS2SupXOff: 0
OS2SupYOff: 350
OS2StrikeYSize: 50
OS2StrikeYPos: 304
OS2CapHeight: 690
OS2XHeight: 507
OS2Vendor: 'MONO'
OS2CodePages: 20000001.00000000
OS2UnicodeRanges: 8000006f.4000000a.00000000.00000000
Lookup: 1 0 0 "'rtla' Right to Left Alternates lookup 0" { "'rtla' Right to Left Alternates lookup 0 subtable"  } ['rtla' ('DFLT' <'dflt' > ) ]
Lookup: 1 0 0 "'sups' Superscript lookup 1" { "'sups' Superscript lookup 1 subtable" ("superior") } ['sups' ('DFLT' <'dflt' > ) ]
Lookup: 4 0 0 "'frac' Diagonal Fractions lookup 2" { "'frac' Diagonal Fractions lookup 2 subtable"  } ['frac' ('DFLT' <'dflt' > ) ]
Lookup: 4 0 0 "'dlig' Discretionary Ligatures in Latin lookup 3" { "'dlig' Discretionary Ligatures in Latin lookup 3 subtable"  } ['dlig' ('latn' <'dflt' > ) ]
Lookup: 4 0 1 "'liga' Standard Ligatures in Latin lookup 4" { "'liga' Standard Ligatures in Latin lookup 4 subtable"  } ['liga' ('latn' <'dflt' > ) ]

StartChar: .notdef
Encoding: 65536 -1 0
Width: 600
GlyphClass: 1
Flags: MW
HStem: 0 34<59.5059 388.506 59.5059 414.656> 656 34<203.105 532.105 203.105 203.105>
LayerCount: 2
Fore
SplineSet
176.955078125 690 m 1
 573.955078125 690 l 1
 414.65625 0 l 1
 17.65625 0 l 1
 176.955078125 690 l 1
388.505859375 34 m 1
 532.10546875 656 l 1
 203.10546875 656 l 1
 59.505859375 34 l 1
 388.505859375 34 l 1
EndSplineSet
EndChar

StartChar: exclam
Encoding: 33 33 3
Width: 239
GlyphClass: 2
Flags: MW
HStem: 0 93<13.127 80.6562 -8.34375 102.127> 670 20G<153.955 237.955 237.955 237.955>
VStem: -8.34375 246.299
LayerCount: 2
Fore
SplineSet
153.955078125 690 m 1
 237.955078125 690 l 1
 109.90625 196 l 1
 53.90625 196 l 1
 153.955078125 690 l 1
13.126953125 93 m 1
 102.126953125 93 l 1
 80.65625 0 l 1
 -8.34375 0 l 1
 13.126953125 93 l 1
EndSplineSet
EndChar

StartChar: quotedbl
Encoding: 34 34 4
Width: 308
GlyphClass: 2
Flags: MW
HStem: 460 230<128.955 141.855 75.8555 194.955 128.955 211.855 264.955 277.855>
VStem: 75.8555 255.1<460 690>
LayerCount: 2
Fore
SplineSet
128.955078125 690 m 1
 194.955078125 690 l 1
 141.85546875 460 l 1
 75.85546875 460 l 1
 128.955078125 690 l 1
264.955078125 690 m 1
 330.955078125 690 l 1
 277.85546875 460 l 1
 211.85546875 460 l 1
 264.955078125 690 l 1
EndSplineSet
EndChar

StartChar: numbersign
Encoding: 35 35 5
Width: 511
GlyphClass: 2
Flags: MW
HStem: 0 21G<-5.34375 54.6562 -5.34375 -5.34375 192.656 252.656 192.656 192.656> 221 56<5.60645 74.6787 -7.32129 95.6064 154.606 272.679 5.60645 134.679 352.606 429.679> 430 55<77.627 150.93 64.9297 170.627 77.627 209.93 229.627 347.93 427.627 501.93> 670 20G<244.955 303.955 303.955 303.955 441.955 501.955 501.955 501.955>
LayerCount: 2
Fore
SplineSet
407.9296875 430 m 1
 352.606445312 277 l 1
 442.606445312 277 l 1
 429.678710938 221 l 1
 332.678710938 221 l 1
 252.65625 0 l 1
 192.65625 0 l 1
 272.678710938 221 l 1
 134.678710938 221 l 1
 54.65625 0 l 1
 -5.34375 0 l 1
 74.6787109375 221 l 1
 -7.3212890625 221 l 1
 5.6064453125 277 l 1
 95.6064453125 277 l 1
 150.9296875 430 l 1
 64.9296875 430 l 1
 77.626953125 485 l 1
 170.626953125 485 l 1
 244.955078125 690 l 1
 303.955078125 690 l 1
 229.626953125 485 l 1
 367.626953125 485 l 1
 441.955078125 690 l 1
 501.955078125 690 l 1
 427.626953125 485 l 1
 514.626953125 485 l 1
 501.9296875 430 l 1
 407.9296875 430 l 1
347.9296875 430 m 1
 209.9296875 430 l 1
 154.606445312 277 l 1
 292.606445312 277 l 1
 347.9296875 430 l 1
EndSplineSet
EndChar

StartChar: dollar
Encoding: 36 36 6
Width: 457
GlyphClass: 2
Flags: MW
HStem: 596.999 62.999<305.484 320.029>
VStem: -2.09082 69<209 209> 362.089 69<486.999 486.999>
LayerCount: 2
Fore
SplineSet
304.318359375 83 m 0
 268.905273438 52.3330078125 225.583984375 34.3330078125 174.352539062 29 c 1
 154.036132812 -59 l 1
 96.0361328125 -59 l 1
 116.122070312 28 l 1
 69.3525390625 33.3330078125 35.841796875 51.3330078125 15.5888671875 82 c 0
 -4.6640625 112.666992188 -10.5576171875 155 -2.0908203125 209 c 1
 66.9091796875 209 l 1
 62.0849609375 173.666992188 65.1455078125 146.5 76.091796875 127.5 c 0
 87.0380859375 108.5 105.306640625 96.6669921875 130.896484375 92 c 1
 183.99609375 322 l 1
 177.2265625 323 l 2
 132.71484375 332.333007812 101.421875 349.833007812 83.34765625 375.5 c 0
 65.2734375 401.166992188 61.7763671875 438 72.8583984375 486 c 0
 84.248046875 535.333007812 106.944335938 575.166015625 140.947265625 605.499023438 c 0
 174.950195312 635.83203125 215.233398438 653.665039062 261.797851562 658.998046875 c 1
 280.729492188 740.998046875 l 1
 338.729492188 740.998046875 l 1
 320.029296875 659.998046875 l 1
 362.130859375 654.662109375 393.078125 637.829101562 412.870117188 609.498046875 c 0
 432.662109375 581.1640625 438.734375 540.331054688 431.088867188 486.999023438 c 1
 362.088867188 486.999023438 l 1
 372.043945312 550.33203125 353.17578125 586.999023438 305.484375 596.999023438 c 1
 254.923828125 377.999023438 l 1
 271.231445312 374.999023438 l 2
 315.897460938 366.33203125 347.2421875 348.33203125 365.264648438 320.999023438 c 0
 383.287109375 293.666015625 386.604492188 255.333007812 375.21484375 206 c 0
 363.364257812 154.666992188 339.731445312 113.666992188 304.318359375 83 c 0
148.161132812 424.5 m 0
 157.389648438 408.166992188 174.568359375 396.666992188 199.696289062 390 c 1
 247.254882812 596 l 1
 220.177734375 591.333007812 197.85546875 579.833007812 180.290039062 561.5 c 0
 162.724609375 543.166992188 150.631835938 519.666992188 144.013671875 491 c 0
 137.548828125 463 138.931640625 440.833007812 148.161132812 424.5 c 0
264.015625 125 m 0
 283.325195312 143.666992188 296.672851562 169 304.060546875 201 c 0
 311.448242188 233 309.899414062 257.333007812 299.4140625 274 c 0
 288.928710938 290.666992188 268.866210938 302.666992188 239.2265625 310 c 1
 188.666015625 91 l 1
 219.58984375 95 244.706054688 106.333007812 264.015625 125 c 0
198.494140625 688 m 1024
EndSplineSet
EndChar

StartChar: percent
Encoding: 37 37 7
Width: 830
GlyphClass: 2
Flags: MW
HStem: -6.00098 58<584.661 602.271> 267 58<144.688 162.298> 364.998 59.001<660.544 676.923> 637.999 59.001<220.571 236.95> 670 20G<645.955 708.955 708.955 708.955>
LayerCount: 2
Fore
SplineSet
57.83984375 304 m 0xf0
 44.2021484375 328.666992188 43.0771484375 365.666992188 54.466796875 415 c 2
 86.5576171875 554 l 2
 97.4853515625 601.333007812 115.88671875 637 141.759765625 661 c 0
 167.633789062 685 200.571289062 697 240.571289062 697 c 0
 282.571289062 697 310.672851562 685.166992188 324.875976562 661.5 c 0
 339.079101562 637.833007812 340.638671875 602 329.557617188 554 c 2
 297.466796875 415 l 2
 286.077148438 365.666992188 267.702148438 328.666992188 242.33984375 304 c 0
 216.978515625 279.333007812 183.297851562 267 141.297851562 267 c 0
 99.2978515625 267 71.478515625 279.333007812 57.83984375 304 c 0xf0
645.955078125 690 m 1xe8
 708.955078125 690 l 1
 176.65625 0 l 1
 113.65625 0 l 1
 645.955078125 690 l 1xe8
201.65234375 346.5 m 0
 212.294921875 360.833984375 221.463867188 384.666015625 229.159179688 417.999023438 c 2
 259.171875 547.999023438 l 2
 266.559570312 579.999023438 268.037109375 602.999023438 263.6015625 616.999023438 c 0
 259.166992188 630.999023438 246.950195312 637.999023438 226.950195312 637.999023438 c 0xf0
 206.950195312 637.999023438 191.500976562 630.999023438 180.6015625 616.999023438 c 0
 169.703125 602.999023438 160.559570312 579.999023438 153.171875 547.999023438 c 2
 123.159179688 417.999023438 l 2
 115.463867188 384.666015625 113.793945312 360.833007812 118.15234375 346.5 c 0
 122.509765625 332.166992188 134.688476562 325 154.688476562 325 c 0
 175.35546875 325 191.009765625 332.166992188 201.65234375 346.5 c 0
497.813476562 30.9990234375 m 0
 484.174804688 55.666015625 483.049804688 92.666015625 494.439453125 141.999023438 c 2
 526.530273438 280.999023438 l 2
 537.458007812 328.33203125 555.859375 363.999023438 581.733398438 387.999023438 c 0
 607.606445312 411.999023438 640.543945312 423.999023438 680.543945312 423.999023438 c 0
 722.543945312 423.999023438 750.645507812 412.166015625 764.848632812 388.499023438 c 0
 779.051757812 364.83203125 780.611328125 328.999023438 769.530273438 280.999023438 c 2
 737.439453125 141.999023438 l 2
 726.049804688 92.666015625 707.674804688 55.666015625 682.313476562 30.9990234375 c 0
 656.951171875 6.33203125 623.270507812 -6.0009765625 581.270507812 -6.0009765625 c 0
 539.270507812 -6.0009765625 511.451171875 6.33203125 497.813476562 30.9990234375 c 0
641.625 73.4990234375 m 0
 652.266601562 87.83203125 661.436523438 111.665039062 669.131835938 144.998046875 c 2
 699.14453125 274.998046875 l 2
 706.532226562 306.998046875 708.009765625 329.998046875 703.57421875 343.998046875 c 0
 699.139648438 357.998046875 686.922851562 364.998046875 666.922851562 364.998046875 c 0
 646.922851562 364.998046875 631.473632812 357.998046875 620.57421875 343.998046875 c 0
 609.67578125 329.998046875 600.532226562 306.998046875 593.14453125 274.998046875 c 2
 563.131835938 144.998046875 l 2
 555.436523438 111.665039062 553.766601562 87.83203125 558.125 73.4990234375 c 0
 562.482421875 59.166015625 574.661132812 51.9990234375 594.661132812 51.9990234375 c 0
 615.328125 51.9990234375 630.982421875 59.166015625 641.625 73.4990234375 c 0
EndSplineSet
EndChar

StartChar: ampersand
Encoding: 38 38 8
Width: 597
GlyphClass: 2
Flags: MW
HStem: -10 63<142.895 157.014> 0 65<411.655 469.663 446.663 454.655> 640 60<309.264 327.745>
LayerCount: 2
Fore
SplineSet
469.663085938 65 m 1x60
 454.655273438 0 l 1
 420.655273438 0 l 2x60
 402.655273438 0 389.053710938 3.1669921875 379.848632812 9.5 c 0
 370.643554688 15.8330078125 362.04296875 27.666015625 354.043945312 44.9990234375 c 2
 334.509765625 85.9990234375 l 1
 300.147460938 52.666015625 267.529296875 28.3330078125 236.65625 13 c 0
 205.784179688 -2.3330078125 173.680664062 -10 140.34765625 -10 c 0xa0
 87.6806640625 -10 50.3359375 5.8330078125 28.3134765625 37.5 c 0
 6.2919921875 69.1669921875 1.283203125 111 13.2880859375 163 c 0
 21.9072265625 200.333007812 40.80859375 236 69.9912109375 270 c 0
 99.1728515625 304 141.125 341.333007812 195.846679688 382 c 1
 173.75 430.666992188 159.612304688 466.166992188 153.435546875 488.5 c 0
 147.258789062 510.833007812 146.786132812 533.333007812 152.01953125 556 c 0
 161.715820312 598 183.34765625 632.5 216.9140625 659.5 c 0
 250.48046875 686.5 288.263671875 700 330.263671875 700 c 0
 372.263671875 700 403.48046875 686.5 423.9140625 659.5 c 0
 444.34765625 632.5 449.869140625 598.666992188 440.48046875 558 c 0
 433.247070312 526.666015625 418.051757812 497.666015625 394.895507812 471 c 0
 371.73828125 444.333007812 333.697265625 411.666015625 280.770507812 373 c 1
 363.90625 196 l 1
 458.0703125 292 l 1
 495.604492188 251 l 1
 389.439453125 142 l 1
 412.896484375 92 l 2
 421.407226562 74 432.663085938 65 446.663085938 65 c 2
 469.663085938 65 l 1x60
255.716796875 617.5 m 0
 237.920898438 602.5 226.176757812 582.666992188 220.481445312 558 c 0
 216.94140625 542.666992188 217.415039062 526.666992188 221.900390625 510 c 0
 226.384765625 493.333007812 237.75390625 465.333007812 256.005859375 426 c 1
 298.573242188 457.333007812 327.600585938 482 343.08984375 500 c 0
 358.578125 518 368.78515625 537.666992188 373.7109375 559 c 0
 379.251953125 583 376.75390625 602.5 366.216796875 617.5 c 0
 355.6796875 632.5 339.078125 640 316.411132812 640 c 0
 293.744140625 640 273.512695312 632.5 255.716796875 617.5 c 0
227.395507812 72.5 m 0
 249.729492188 85.5 276.92578125 108.000976562 308.98046875 140.000976562 c 1
 220.844726562 330.000976562 l 1
 178.278320312 298.66796875 146.03125 270.16796875 124.10546875 244.500976562 c 0
 102.1796875 218.833984375 88.138671875 192.666992188 81.982421875 166 c 0
 73.978515625 131.333007812 76.796875 103.833007812 90.435546875 83.5 c 0
 104.07421875 63.1669921875 126.89453125 53 158.89453125 53 c 0xa0
 182.227539062 53 205.060546875 59.5 227.395507812 72.5 c 0
EndSplineSet
EndChar

StartChar: quotesingle
Encoding: 39 39 9
Width: 172
GlyphClass: 2
Flags: MW
HStem: 460 230<128.955 141.855 75.8555 194.955>
VStem: 75.8555 119.1
LayerCount: 2
Fore
SplineSet
128.955078125 690 m 1
 194.955078125 690 l 1
 141.85546875 460 l 1
 75.85546875 460 l 1
 128.955078125 690 l 1
EndSplineSet
EndChar

StartChar: parenleft
Encoding: 40 40 10
Width: 288
GlyphClass: 2
Flags: W
LayerCount: 2
Fore
SplineSet
51.380859375 328 m 0
 84.93359375 473.333007812 156.306640625 610.666992188 265.499023438 740 c 1
 316.499023438 740 l 1
 268.08203125 674.666992188 227.29296875 607 194.1328125 537 c 0
 160.971679688 467 136.387695312 397.333007812 120.380859375 328 c 0
 104.220703125 258 96.521484375 187.833007812 97.283203125 117.5 c 0
 98.0458984375 47.1669921875 107.706054688 -20 126.263671875 -84 c 1
 74.263671875 -84 l 1
 25.763671875 46.6669921875 18.1357421875 184 51.380859375 328 c 0
EndSplineSet
Substitution2: "'rtla' Right to Left Alternates lookup 0 subtable" parenright
EndChar

StartChar: parenright
Encoding: 41 41 11
Width: 288
GlyphClass: 2
Flags: W
LayerCount: 2
Fore
SplineSet
78.8984375 118 m 0
 112.546875 188.666992188 137.374023438 258.666992188 153.380859375 328 c 0
 169.387695312 397.333007812 176.8046875 467 175.6328125 537 c 0
 174.459960938 607 164.749023438 674.666992188 146.5 740 c 1
 197.5 740 l 1
 247.28125 612 255.243164062 474.666992188 221.381835938 328 c 0
 188.13671875 184 117.098632812 46.6669921875 8.2646484375 -84 c 1
 -43.7353515625 -84 l 1
 4.373046875 -20 45.2509765625 47.3330078125 78.8984375 118 c 0
EndSplineSet
Substitution2: "'rtla' Right to Left Alternates lookup 0 subtable" parenleft
EndChar

StartChar: asterisk
Encoding: 42 42 12
Width: 377
GlyphClass: 2
Flags: MW
HStem: 415 275<178.467 286.955 178.467 286.955>
VStem: 92.2451 282.317<505 606>
LayerCount: 2
Fore
SplineSet
202.4765625 519 m 1
 104.93359375 469 l 1
 92.2451171875 505 l 1
 192.01953125 556 l 1
 115.5625 606 l 1
 144.874023438 642 l 1
 219.330078125 592 l 1
 241.955078125 690 l 1
 286.955078125 690 l 1
 264.330078125 592 l 1
 362.874023438 642 l 1
 374.5625 606 l 1
 275.01953125 556 l 1
 351.245117188 505 l 1
 322.93359375 469 l 1
 247.4765625 519 l 1
 223.466796875 415 l 1
 178.466796875 415 l 1
 202.4765625 519 l 1
EndSplineSet
EndChar

StartChar: plus
Encoding: 43 43 13
Width: 512
GlyphClass: 2
Flags: MW
HStem: 243 66<44.9941 195.758 29.7578 210.994 44.9941 261.758 276.994 427.758>
LayerCount: 2
Fore
SplineSet
195.7578125 243 m 1
 29.7578125 243 l 1
 44.994140625 309 l 1
 210.994140625 309 l 1
 249.318359375 475 l 1
 315.318359375 475 l 1
 276.994140625 309 l 1
 442.994140625 309 l 1
 427.7578125 243 l 1
 261.7578125 243 l 1
 223.43359375 77 l 1
 157.43359375 77 l 1
 195.7578125 243 l 1
EndSplineSet
EndChar

StartChar: comma
Encoding: 44 44 14
Width: 172
GlyphClass: 2
Flags: MW
HStem: -137 230<-61.9727 57.127>
VStem: -61.9727 119.1
LayerCount: 2
Fore
SplineSet
-8.873046875 93 m 1
 57.126953125 93 l 1
 18.3408203125 -75 l 1
 -61.97265625 -137 l 1
 -8.873046875 93 l 1
EndSplineSet
EndChar

StartChar: hyphen
Encoding: 45 45 15
Width: 393
GlyphClass: 2
Flags: MW
HStem: 314 66<63.3867 323.149 48.1494 338.387>
VStem: 48.1494 290.237<314 380>
LayerCount: 2
Fore
SplineSet
63.38671875 380 m 1
 338.38671875 380 l 1
 323.149414062 314 l 1
 48.1494140625 314 l 1
 63.38671875 380 l 1
EndSplineSet
EndChar

StartChar: period
Encoding: 46 46 16
Width: 194
GlyphClass: 2
Flags: MW
HStem: 0 92<-9.10352 57.6562 -30.3438 78.8965>
VStem: -30.3438 109.24<0 92>
LayerCount: 2
Fore
SplineSet
-9.103515625 92 m 1
 78.896484375 92 l 1
 57.65625 0 l 1
 -30.34375 0 l 1
 -9.103515625 92 l 1
EndSplineSet
EndChar

StartChar: slash
Encoding: 47 47 17
Width: 392
GlyphClass: 2
Flags: MW
HStem: 670 20G<348.955 408.955 408.955 408.955>
LayerCount: 2
Fore
SplineSet
348.955078125 690 m 1
 408.955078125 690 l 1
 33.34765625 -10 l 1
 -26.65234375 -10 l 1
 348.955078125 690 l 1
EndSplineSet
EndChar

StartChar: zero
Encoding: 48 48 18
Width: 493
GlyphClass: 2
Flags: MW
HStem: -10 66<156.25 194.917 156.25 220.681> 634 66<289.692 328.358>
LayerCount: 2
Fore
SplineSet
31.369140625 211 m 2
 94.166015625 483 l 2
 127.564453125 627.666992188 204.263671875 700 324.263671875 700 c 0
 444.930664062 700 488.564453125 627.666992188 455.166015625 483 c 2
 392.369140625 211 l 2
 358.35546875 63.6669921875 281.014648438 -10 160.34765625 -10 c 0
 40.34765625 -10 -2.64453125 63.6669921875 31.369140625 211 c 2
267.588867188 95 m 0
 290.258789062 121 308.594726562 164.333007812 322.600585938 225 c 2
 378.008789062 465 l 2
 392.015625 525.666992188 393.686523438 569 383.021484375 595 c 0
 372.357421875 621 347.69140625 634 309.025390625 634 c 0
 270.358398438 634 239.857421875 621 217.521484375 595 c 0
 195.186523438 569 177.015625 525.666992188 163.008789062 465 c 2
 107.600585938 225 l 2
 93.5947265625 164.333007812 91.7578125 121 102.087890625 95 c 0
 112.41796875 69 136.916992188 56 175.583984375 56 c 0
 214.250976562 56 244.918945312 69 267.588867188 95 c 0
EndSplineSet
EndChar

StartChar: one
Encoding: 49 49 19
Width: 329
GlyphClass: 2
Flags: MW
HStem: 0 21G<85.6562 157.656 85.6562 85.6562> 670 20G<243.955 316.955 316.955 316.955>
VStem: 86.0156 230.939<517 690>
LayerCount: 2
Fore
SplineSet
225.5625 606 m 1
 86.015625 517 l 1
 104.946289062 599 l 1
 243.955078125 690 l 1
 316.955078125 690 l 1
 157.65625 0 l 1
 85.65625 0 l 1
 225.5625 606 l 1
EndSplineSet
Substitution2: "'sups' Superscript lookup 1 subtable" uni00B9
EndChar

StartChar: two
Encoding: 50 50 20
Width: 468
GlyphClass: 2
Flags: MW
HStem: 0 65<80.6631 325.656> 634.999 65<285.596 310.923>
LayerCount: 2
Fore
SplineSet
-10.72265625 59 m 1
 297.924804688 391 l 2
 337.262695312 434.333984375 361.241210938 474.666992188 369.860351562 512 c 2
 373.323242188 527 l 2
 381.018554688 560.333007812 377.764648438 586.666015625 363.561523438 605.999023438 c 0
 349.357421875 625.33203125 326.58984375 634.999023438 295.256835938 634.999023438 c 0
 263.923828125 634.999023438 237.063476562 625.499023438 214.676757812 606.499023438 c 0
 192.290039062 587.499023438 176.864257812 559.666015625 168.399414062 522.999023438 c 2
 164.243164062 504.999023438 l 1
 92.2431640625 504.999023438 l 1
 97.322265625 526.999023438 l 2
 109.328125 578.999023438 134.818359375 620.83203125 173.796875 652.499023438 c 0
 212.774414062 684.166015625 258.9296875 699.999023438 312.262695312 699.999023438 c 0
 346.9296875 699.999023438 375.865234375 692.499023438 399.069335938 677.499023438 c 0
 422.2734375 662.499023438 438.040039062 641.999023438 446.37109375 615.999023438 c 0
 454.701171875 589.999023438 455.172851562 560.999023438 447.78515625 528.999023438 c 2
 443.860351562 511.999023438 l 2
 437.396484375 483.999023438 426.240234375 457.33203125 410.391601562 431.999023438 c 0
 394.54296875 406.666015625 373.462890625 380.333007812 347.15234375 353 c 2
 80.6630859375 65 l 1
 340.663085938 65 l 1
 325.65625 0 l 1
 -24.34375 0 l 1
 -10.72265625 59 l 1
EndSplineSet
Substitution2: "'sups' Superscript lookup 1 subtable" uni00B2
EndChar

StartChar: three
Encoding: 51 51 21
Width: 495
GlyphClass: 2
Flags: MW
HStem: -10 64.9971<155.688 184.348> 324.998 66<208.927 229.689 193.689 243.927> 634.998 65<294.265 320.258>
LayerCount: 2
Fore
SplineSet
34.62109375 34.5 m 0
 8.8037109375 64.1669921875 1.744140625 104.330078125 13.44140625 154.997070312 c 2
 17.134765625 170.997070312 l 1
 90.134765625 170.997070312 l 1
 87.1337890625 157.997070312 l 2
 79.74609375 125.997070312 83.7685546875 100.830078125 99.203125 82.4970703125 c 0
 114.637695312 64.1640625 139.021484375 54.9970703125 172.354492188 54.9970703125 c 0
 207.6875 54.9970703125 237.85546875 65.830078125 262.857421875 87.4970703125 c 0
 287.859375 109.1640625 304.59375 138.331054688 313.05859375 174.998046875 c 2
 319.061523438 200.998046875 l 2
 327.833984375 238.998046875 324.298828125 269.165039062 308.455078125 291.498046875 c 0
 292.611328125 313.831054688 266.356445312 324.998046875 229.689453125 324.998046875 c 2
 193.689453125 324.998046875 l 1
 208.926757812 390.998046875 l 1
 243.926757812 390.998046875 l 2
 277.260742188 390.998046875 306.017578125 401.498046875 330.198242188 422.498046875 c 0
 354.379882812 443.498046875 370.395507812 470.998046875 378.245117188 504.998046875 c 2
 382.862304688 524.998046875 l 2
 390.55859375 558.331054688 387.381835938 584.998046875 373.33203125 604.998046875 c 0
 359.282226562 624.998046875 336.2578125 634.998046875 304.2578125 634.998046875 c 0
 272.2578125 634.998046875 245.103515625 625.665039062 222.793945312 606.998046875 c 0
 200.484375 588.331054688 185.712890625 563.331054688 178.478515625 531.998046875 c 2
 174.78515625 515.998046875 l 1
 104.78515625 515.998046875 l 1
 108.940429688 533.998046875 l 2
 120.637695312 584.665039062 145.44921875 624.998046875 183.375976562 654.998046875 c 0
 221.301757812 684.998046875 267.264648438 699.998046875 321.264648438 699.998046875 c 0
 374.59765625 699.998046875 413.352539062 684.498046875 437.528320312 653.498046875 c 0
 461.704101562 622.498046875 467.790039062 580.998046875 455.78515625 528.998046875 c 2
 450.706054688 506.998046875 l 2
 443.010742188 473.665039062 428.315429688 444.665039062 406.620117188 419.998046875 c 0
 384.92578125 395.331054688 359.693359375 376.998046875 330.922851562 364.998046875 c 1
 360.15234375 352.998046875 379.99609375 332.831054688 390.455078125 304.498046875 c 0
 400.9140625 276.165039062 401.603515625 242.33203125 392.522460938 202.999023438 c 2
 386.981445312 178.999023438 l 2
 373.745117188 121.666015625 345.997070312 75.8330078125 303.737304688 41.5 c 0
 261.477539062 7.1669921875 212.34765625 -10 156.34765625 -10 c 0
 101.014648438 -10 60.439453125 4.8330078125 34.62109375 34.5 c 0
EndSplineSet
Substitution2: "'sups' Superscript lookup 1 subtable" uni00B3
EndChar

StartChar: four
Encoding: 52 52 22
Width: 499
GlyphClass: 2
Flags: MW
HStem: 0 21G<221.656 294.656 221.656 221.656> 135 66<9.06055 9.06055 82.0605 252.823 -6.17676 9.06055 341.061 400.823> 670 20G<328.955 401.955 401.955 401.955>
LayerCount: 2
Fore
SplineSet
400.823242188 135 m 1
 325.823242188 135 l 1
 294.65625 0 l 1
 221.65625 0 l 1
 252.823242188 135 l 1
 -6.1767578125 135 l 1
 9.060546875 201 l 1
 328.955078125 690 l 1
 401.955078125 690 l 1
 82.060546875 201 l 1
 268.060546875 201 l 1
 311.463867188 389 l 1
 384.463867188 389 l 1
 341.060546875 201 l 1
 416.060546875 201 l 1
 400.823242188 135 l 1
EndSplineSet
EndChar

StartChar: five
Encoding: 53 53 23
Width: 484
GlyphClass: 2
Flags: MW
HStem: -10 66<152.917 183.014> 382 66<260.084 263.513> 623 67<204.486 467.486 204.486 204.486>
LayerCount: 2
Fore
SplineSet
36.775390625 33 m 0
 12.3935546875 61.6669921875 5.896484375 100.666992188 17.28515625 150 c 2
 20.287109375 163 l 1
 90.287109375 163 l 1
 88.6708984375 156 l 2
 81.283203125 124 84.587890625 99.3330078125 98.5869140625 82 c 0
 112.584960938 64.6669921875 136.250976562 56 169.583984375 56 c 0
 239.583984375 56 284.587890625 99.3330078125 304.596679688 186 c 2
 319.603515625 251 l 2
 329.76171875 295 328.841796875 327.833007812 316.84375 349.5 c 0
 304.845703125 371.166992188 281.1796875 382 245.846679688 382 c 0
 221.1796875 382 198.755859375 375.833007812 178.576171875 363.5 c 0
 158.39453125 351.166992188 142.098632812 334 129.686523438 312 c 1
 65.6865234375 312 l 1
 152.954101562 690 l 1
 482.954101562 690 l 1
 467.486328125 623 l 1
 204.486328125 623 l 1
 153.6953125 403 l 1
 168.7734375 416.334960938 186.607421875 427.16796875 207.198242188 435.5 c 0
 227.7890625 443.833007812 249.083984375 448 271.083984375 448 c 0
 326.416992188 448 364.236328125 431.333007812 384.541015625 398 c 0
 404.845703125 364.666992188 407.840820312 317 393.526367188 255 c 2
 376.211914062 180 l 2
 362.359375 120 335.918945312 73.3330078125 296.889648438 40 c 0
 257.861328125 6.6669921875 210.680664062 -10 155.34765625 -10 c 0
 100.680664062 -10 61.15625 4.3330078125 36.775390625 33 c 0
EndSplineSet
EndChar

StartChar: six
Encoding: 54 54 24
Width: 494
GlyphClass: 2
Flags: MW
HStem: -10 65<158.687 179.348> 342 66<225.281 299.516> 670 20G<336.954 412.954 412.954 412.954>
LayerCount: 2
Fore
SplineSet
36.4677734375 42.5 m 0
 10.548828125 77.5 4.4375 124.666992188 18.134765625 184 c 2
 25.984375 218 l 2
 31.6796875 242.666992188 40.720703125 266.666992188 53.107421875 290 c 0
 65.494140625 313.333007812 81.4326171875 338.333007812 100.921875 365 c 2
 336.954101562 690 l 1
 412.954101562 690 l 1
 194.000976562 387 l 1
 203.38671875 393 215.374023438 398 229.96484375 402 c 0
 244.5546875 406 259.18359375 408 273.849609375 408 c 0
 325.182617188 408 362.7578125 391 386.575195312 357 c 0
 410.392578125 323 415.682617188 277.333007812 402.446289062 220 c 2
 394.596679688 186 l 2
 385.208007812 145.333007812 368.9609375 110.333007812 345.85546875 81 c 0
 322.750976562 51.6669921875 295.22265625 29.1669921875 263.2734375 13.5 c 0
 231.323242188 -2.1669921875 197.34765625 -10 161.34765625 -10 c 0
 104.014648438 -10 62.3876953125 7.5 36.4677734375 42.5 c 0
268.318359375 89.5 m 0
 294.294921875 112.5 311.748046875 143.33203125 320.674804688 181.999023438 c 2
 328.524414062 215.999023438 l 2
 337.451171875 254.666015625 334.198242188 285.333007812 318.764648438 308 c 0
 303.331054688 330.666992188 277.947265625 342 242.614257812 342 c 0
 207.947265625 342 177.702148438 330.833007812 151.87890625 308.5 c 0
 126.056640625 286.166992188 108.681640625 255.666992188 99.7548828125 217 c 2
 91.9052734375 183 l 2
 82.82421875 143.666992188 85.7958984375 112.5 100.819335938 89.5 c 0
 115.841796875 66.5 141.020507812 55 176.353515625 55 c 0
 211.686523438 55 242.340820312 66.5 268.318359375 89.5 c 0
EndSplineSet
EndChar

StartChar: seven
Encoding: 55 55 25
Width: 431
GlyphClass: 2
Flags: MW
HStem: 0 21G<9.65625 82.6562 9.65625 9.65625> 624 66<115.955 381.718 100.718 466.955 451.718 451.718>
LayerCount: 2
Fore
SplineSet
466.955078125 690 m 1
 451.717773438 624 l 1
 82.65625 0 l 1
 9.65625 0 l 1
 381.717773438 624 l 1
 100.717773438 624 l 1
 115.955078125 690 l 1
 466.955078125 690 l 1
EndSplineSet
EndChar

StartChar: eight
Encoding: 56 56 26
Width: 512
GlyphClass: 2
Flags: MW
HStem: -10 64.999<167.685 188.015> 329.999 65.001<248.181 266.841> 634.999 65.001<316.93 334.589>
LayerCount: 2
Fore
SplineSet
76.7734375 13.5 m 0
 51.72265625 29.1669921875 34.505859375 51.333984375 25.1240234375 80.0009765625 c 0
 15.7421875 108.66796875 15.361328125 141.66796875 23.98046875 179.000976562 c 2
 29.751953125 204.000976562 l 2
 38.0634765625 240.000976562 53.9892578125 272.16796875 77.5302734375 300.500976562 c 0
 101.071289062 328.833984375 129.458984375 350.000976562 162.690429688 364.000976562 c 1
 140.282226562 376.66796875 124.552734375 395.16796875 115.50390625 419.500976562 c 0
 106.455078125 443.834960938 105.778320312 472.66796875 113.473632812 506.000976562 c 2
 118.090820312 526.000976562 l 2
 125.6328125 558.66796875 139.776367188 588.16796875 160.5234375 614.500976562 c 0
 181.26953125 640.833984375 206.74609375 661.666992188 236.953125 677 c 0
 267.16015625 692.333007812 299.596679688 700 334.263671875 700 c 0
 369.596679688 700 398.994140625 692.333007812 422.454101562 677 c 0
 445.913085938 661.6640625 461.770507812 640.831054688 470.024414062 614.5 c 0
 478.278320312 588.166992188 478.634765625 558.666992188 471.092773438 526 c 2
 466.475585938 506 l 2
 458.780273438 472.666992188 444.623046875 443.833984375 424.005859375 419.500976562 c 0
 403.387695312 395.16796875 378.950195312 376.66796875 350.692382812 364.000976562 c 1
 377.973632812 349.333984375 396.676757812 327.833984375 406.802734375 299.500976562 c 0
 416.928710938 271.16796875 417.989257812 239.66796875 409.985351562 205.000976562 c 2
 404.213867188 180.000976562 l 2
 395.440429688 142.000976562 379.578125 108.66796875 356.626953125 80.0009765625 c 0
 333.67578125 51.333984375 306.057617188 29.1669921875 273.774414062 13.5 c 0
 241.490234375 -2.1669921875 206.681640625 -10 169.348632812 -10 c 0
 132.681640625 -10 101.823242188 -2.1669921875 76.7734375 13.5 c 0
346.50390625 426 m 0
 370.275390625 446.666992188 385.931640625 473.333007812 393.473632812 506 c 2
 398.322265625 527 l 2
 405.555664062 558.333007812 401.852539062 584.166015625 387.213867188 604.499023438 c 0
 372.575195312 624.83203125 349.922851562 634.999023438 319.255859375 634.999023438 c 0
 288.588867188 634.999023438 261.408203125 624.83203125 237.713867188 604.499023438 c 0
 214.01953125 584.165039062 198.555664062 558.33203125 191.322265625 527 c 2
 186.473632812 506 l 2
 178.931640625 473.333007812 182.108398438 446.666015625 196.00390625 426 c 0
 209.899414062 405.333007812 232.514648438 395 263.84765625 395 c 0
 295.180664062 395 322.732421875 405.333007812 346.50390625 426 c 0
278.31640625 89.4990234375 m 0
 304.959960938 112.499023438 322.591796875 142.666015625 331.2109375 179.999023438 c 2
 336.982421875 204.999023438 l 2
 345.6015625 242.33203125 342.065429688 272.499023438 326.375976562 295.499023438 c 0
 310.685546875 318.499023438 284.840820312 329.999023438 248.840820312 329.999023438 c 0
 213.5078125 329.999023438 182.481445312 318.33203125 155.76171875 294.999023438 c 0
 129.041015625 271.666015625 111.448242188 241.666015625 102.983398438 204.999023438 c 2
 97.2119140625 179.999023438 l 2
 88.74609375 143.33203125 92.4873046875 113.33203125 108.43359375 89.9990234375 c 0
 124.379882812 66.666015625 150.018554688 54.9990234375 185.3515625 54.9990234375 c 0
 220.685546875 54.9990234375 251.673828125 66.4990234375 278.31640625 89.4990234375 c 0
EndSplineSet
EndChar

StartChar: nine
Encoding: 57 57 27
Width: 494
GlyphClass: 2
Flags: MW
HStem: 0 21G<74.6562 150.656 74.6562 74.6562> 282 66<187.095 261.667> 635 65<307.264 327.926>
LayerCount: 2
Fore
SplineSet
292.609375 303 m 1
 283.224609375 297 271.239257812 292 256.6484375 288 c 0
 242.057617188 284 227.428710938 282 212.76171875 282 c 0
 161.428710938 282 123.892578125 299.166992188 100.15234375 333.5 c 0
 76.4111328125 367.833007812 71.0830078125 413.333007812 84.1650390625 470 c 2
 92.0146484375 504 l 2
 101.403320312 544.666992188 117.651367188 579.666992188 140.755859375 609 c 0
 163.861328125 638.333007812 191.388671875 660.833007812 223.338867188 676.5 c 0
 255.2890625 692.166992188 289.263671875 700 325.263671875 700 c 0
 382.596679688 700 424.223632812 682.5 450.143554688 647.5 c 0
 476.063476562 612.5 482.173828125 565.333007812 468.475585938 506 c 2
 460.625976562 472 l 2
 454.931640625 447.333007812 445.967773438 423.666015625 433.734375 401 c 0
 421.500976562 378.333007812 405.485351562 353 385.688476562 325 c 2
 150.65625 0 l 1
 74.65625 0 l 1
 292.609375 303 l 1
335.234375 381.5 m 0
 360.723632812 403.833007812 377.930664062 434.333007812 386.858398438 473 c 2
 394.70703125 507 l 2
 403.788085938 546.333007812 400.81640625 577.5 385.793945312 600.5 c 0
 370.770507812 623.5 345.592773438 635 310.259765625 635 c 0
 274.926757812 635 244.271484375 623.5 218.294921875 600.5 c 0
 192.317382812 577.5 174.866210938 546.666992188 165.939453125 508 c 2
 158.08984375 474 l 2
 149.163085938 435.333007812 152.416015625 404.666015625 167.849609375 382 c 0
 183.284179688 359.333007812 208.666992188 348 244 348 c 0
 279.333984375 348 309.745117188 359.166992188 335.234375 381.5 c 0
EndSplineSet
EndChar

StartChar: colon
Encoding: 58 58 28
Width: 194
GlyphClass: 2
Flags: MW
HStem: 0 92<-9.10352 57.6562 -30.3438 78.8965> 338 92<68.9297 135.689 47.6895 156.93>
VStem: -30.3438 187.273
LayerCount: 2
Fore
SplineSet
-9.103515625 92 m 1
 78.896484375 92 l 1
 57.65625 0 l 1
 -30.34375 0 l 1
 -9.103515625 92 l 1
68.9296875 430 m 1
 156.9296875 430 l 1
 135.689453125 338 l 1
 47.689453125 338 l 1
 68.9296875 430 l 1
EndSplineSet
EndChar

StartChar: semicolon
Encoding: 59 59 29
Width: 194
GlyphClass: 2
Flags: MW
HStem: 338 92<68.9297 135.689 47.6895 156.93>
VStem: -39.9727 196.902
LayerCount: 2
Fore
SplineSet
68.9296875 430 m 1
 156.9296875 430 l 1
 135.689453125 338 l 1
 47.689453125 338 l 1
 68.9296875 430 l 1
13.126953125 93 m 1
 79.126953125 93 l 1
 40.3408203125 -75 l 1
 -39.97265625 -137 l 1
 13.126953125 93 l 1
EndSplineSet
EndChar

StartChar: less
Encoding: 60 60 30
Width: 512
GlyphClass: 2
Flags: W
LayerCount: 2
Fore
SplineSet
30.6806640625 247 m 1
 44.3017578125 306 l 1
 479.703125 468 l 1
 463.310546875 397 l 1
 130.375976562 276 l 1
 407.44140625 155 l 1
 391.048828125 84 l 1
 30.6806640625 247 l 1
EndSplineSet
Substitution2: "'rtla' Right to Left Alternates lookup 0 subtable" greater
EndChar

StartChar: equal
Encoding: 61 61 31
Width: 512
GlyphClass: 2
Flags: MW
HStem: 147 66<22.8311 405.594 7.59375 420.831> 338 67<67.1582 449.689 51.6895 465.158>
LayerCount: 2
Fore
SplineSet
67.158203125 405 m 1
 465.158203125 405 l 1
 449.689453125 338 l 1
 51.689453125 338 l 1
 67.158203125 405 l 1
22.8310546875 213 m 1
 420.831054688 213 l 1
 405.59375 147 l 1
 7.59375 147 l 1
 22.8310546875 213 l 1
EndSplineSet
EndChar

StartChar: greater
Encoding: 62 62 32
Width: 512
GlyphClass: 2
Flags: W
LayerCount: 2
Fore
SplineSet
9.44140625 155 m 1
 342.375976562 276 l 1
 65.310546875 397 l 1
 81.703125 468 l 1
 442.301757812 306 l 1
 428.680664062 247 l 1
 -6.951171875 84 l 1
 9.44140625 155 l 1
EndSplineSet
Substitution2: "'rtla' Right to Left Alternates lookup 0 subtable" less
EndChar

StartChar: question
Encoding: 63 63 33
Width: 429
GlyphClass: 2
Flags: MW
HStem: -0.000976562 93<102.128 169.657 80.6572 191.128> 634 66<261.596 288.027>
VStem: 75.8633 72<525 525>
LayerCount: 2
Fore
SplineSet
143.372070312 237 m 2
 148.913085938 261 155.749023438 280.499023438 163.87890625 295.499023438 c 0
 172.008789062 310.499023438 186.125976562 328.33203125 206.23046875 348.999023438 c 2
 277.083007812 421.999023438 l 2
 300.624023438 445.999023438 317.370117188 465.83203125 327.3203125 481.499023438 c 0
 337.270507812 497.166015625 344.400390625 514.333007812 348.709960938 533 c 0
 356.09765625 565 353.1640625 589.833007812 339.91015625 607.5 c 0
 326.655273438 625.166992188 304.02734375 634 272.02734375 634 c 0
 207.360351562 634 165.97265625 597.666992188 147.86328125 525 c 1
 75.86328125 525 l 1
 90.125 581 115.423828125 624.166992188 151.759765625 654.5 c 0
 188.095703125 684.833007812 233.9296875 700 289.262695312 700 c 0
 341.9296875 700 380.057617188 684.666992188 403.64453125 654 c 0
 427.231445312 623.333007812 433.252929688 583 421.708984375 533 c 0
 416.16796875 509 407.088867188 487 394.471679688 467 c 0
 381.854492188 447 363.62109375 424.333007812 339.772460938 399 c 2
 264.303710938 319 l 2
 249.276367188 303 238.454101562 289.333007812 231.837890625 278 c 0
 225.221679688 266.666992188 219.989257812 252.666992188 216.141601562 236 c 2
 202.750976562 178 l 1
 129.750976562 178 l 1
 143.372070312 237 l 2
102.127929688 92.9990234375 m 1
 191.127929688 92.9990234375 l 1
 169.657226562 -0.0009765625 l 1
 80.6572265625 -0.0009765625 l 1
 102.127929688 92.9990234375 l 1
EndSplineSet
EndChar

StartChar: at
Encoding: 64 64 34
Width: 872
GlyphClass: 2
Flags: MW
HStem: -128 65.001<306.778 347.104> 56.0029 58<358.309 363.586> 441.003 58<422.86 460.527 422.86 481.47> 626 64.002<475.29 528.179>
LayerCount: 2
Fore
SplineSet
138.071289062 -80.5 m 0
 88.0498046875 -48.8330078125 53.78515625 -4.4970703125 35.27734375 52.5029296875 c 0
 16.7705078125 109.502929688 16.05859375 175.002929688 33.1435546875 249.002929688 c 2
 48.841796875 317.002929688 l 2
 65.7724609375 390.336914062 96.740234375 455.169921875 141.74609375 511.502929688 c 0
 186.751953125 567.8359375 241.37109375 611.668945312 305.60546875 643.001953125 c 0
 369.838867188 674.334960938 438.623046875 690.001953125 511.956054688 690.001953125 c 0
 584.623046875 690.001953125 646.005859375 674.334960938 696.10546875 643.001953125 c 0
 746.204101562 611.66796875 780.750976562 567.834960938 799.74609375 511.502929688 c 0
 818.740234375 455.169921875 819.926757812 391.002929688 803.303710938 319.002929688 c 2
 787.8359375 252.002929688 l 2
 772.752929688 186.669921875 747.440429688 137.669921875 711.8984375 105.002929688 c 0
 676.356445312 72.3359375 636.252929688 56.0029296875 591.5859375 56.0029296875 c 0
 564.252929688 56.0029296875 542.009765625 62.169921875 524.856445312 74.5029296875 c 0
 507.704101562 86.8359375 496.744140625 104.3359375 491.977539062 127.002929688 c 1
 476.590820312 103.669921875 456.678710938 86.0029296875 432.241210938 74.0029296875 c 0
 407.803710938 62.0029296875 379.5859375 56.0029296875 347.5859375 56.0029296875 c 0
 296.252929688 56.0029296875 262.241210938 71.8359375 245.551757812 103.502929688 c 0
 228.862304688 135.169921875 227.13671875 179.669921875 240.373046875 237.002929688 c 2
 258.841796875 317.002929688 l 2
 272.232421875 375.002929688 294.583007812 419.8359375 325.893554688 451.502929688 c 0
 357.205078125 483.169921875 397.860351562 499.002929688 447.860351562 499.002929688 c 0
 473.194335938 499.002929688 494.411132812 494.169921875 511.51171875 484.502929688 c 0
 528.615234375 474.8359375 540.498046875 461.3359375 547.161132812 444.002929688 c 1
 557.55078125 489.002929688 l 1
 622.55078125 489.002929688 l 1
 555.830078125 200.002929688 l 2
 549.2109375 171.3359375 550.708984375 149.668945312 560.323242188 135.001953125 c 0
 569.936523438 120.334960938 585.077148438 113.001953125 605.744140625 113.001953125 c 0
 631.744140625 113.001953125 653.874023438 123.668945312 672.131835938 145.001953125 c 0
 690.389648438 166.334960938 705.213867188 201.66796875 716.603515625 251.000976562 c 2
 732.071289062 318.000976562 l 2
 746.385742188 380.000976562 746.557617188 434.16796875 732.587890625 480.500976562 c 0
 718.6171875 526.833984375 691.390625 562.666992188 650.90625 588 c 0
 610.421875 613.333007812 559.178710938 626 497.178710938 626 c 0
 435.178710938 626 378.087890625 613.333007812 325.90625 588 c 0
 273.723632812 562.666015625 229.951171875 526.833007812 194.587890625 480.5 c 0
 159.223632812 434.166992188 134.461914062 380.333984375 120.302734375 319.000976562 c 2
 103.911132812 248.000976562 l 2
 89.7509765625 186.66796875 89.5791015625 132.500976562 103.39453125 85.5009765625 c 0
 117.2109375 38.5009765625 144.1171875 2.0009765625 184.115234375 -23.9990234375 c 0
 224.112304688 -49.9990234375 275.444335938 -62.9990234375 338.111328125 -62.9990234375 c 0
 382.111328125 -62.9990234375 421.740234375 -58.83203125 456.997070312 -50.4990234375 c 0
 492.25390625 -42.166015625 528.216796875 -29.3330078125 564.884765625 -12 c 1
 575.725585938 -69 l 1
 534.954101562 -89.6669921875 494.658203125 -104.666992188 454.8359375 -114 c 0
 415.014648438 -123.333007812 371.104492188 -128 323.104492188 -128 c 0
 249.771484375 -128 188.09375 -112.166992188 138.071289062 -80.5 c 0
496.373046875 237.002929688 m 2
 515.303710938 319.002929688 l 2
 534.081054688 400.3359375 512.469726562 441.002929688 450.469726562 441.002929688 c 0
 387.802734375 441.002929688 346.850585938 399.3359375 327.611328125 316.002929688 c 2
 310.52734375 242.002929688 l 2
 300.984375 200.669921875 301.006835938 169.002929688 310.594726562 147.002929688 c 0
 320.182617188 125.002929688 341.642578125 114.002929688 374.975585938 114.002929688 c 0
 436.975585938 114.002929688 477.44140625 155.002929688 496.373046875 237.002929688 c 2
EndSplineSet
EndChar

StartChar: A
Encoding: 65 65 35
Width: 577
GlyphClass: 2
Flags: MW
HStem: 0 21G<-76.3438 0.65625 -76.3438 -76.3438 409.656 409.656 409.656 486.656> 166 62<132.294 383.294 132.294 389.98 96.9805 383.294> 670 20G<333.955 394.955 394.955 394.955>
LayerCount: 2
Fore
SplineSet
389.98046875 166 m 1
 96.98046875 166 l 1
 0.65625 0 l 1
 -76.34375 0 l 1
 333.955078125 690 l 1
 394.955078125 690 l 1
 486.65625 0 l 1
 409.65625 0 l 1
 389.98046875 166 l 1
383.293945312 228 m 1
 340.407226562 588 l 1
 132.293945312 228 l 1
 383.293945312 228 l 1
EndSplineSet
EndChar

StartChar: B
Encoding: 66 66 36
Width: 614
GlyphClass: 2
Flags: MW
HStem: 0 64.999<84.6602 255.654> 319.999 65<158.538 321.532 143.532 330.538> 624.999 65.001<213.947 213.947 213.947 386.947>
LayerCount: 2
Fore
SplineSet
503.03125 294 m 0
 516.080078125 265.333007812 517.831054688 230.33203125 508.288085938 188.999023438 c 0
 494.58984375 129.666015625 465.2265625 83.3330078125 420.198242188 50 c 0
 375.168945312 16.6669921875 320.321289062 0 255.654296875 0 c 2
 -3.345703125 0 l 1
 155.953125 690 l 1
 408.953125 690 l 2
 473.620117188 690 520.131835938 674.166992188 548.48828125 642.5 c 0
 576.844726562 610.833007812 584.327148438 566 570.936523438 508 c 0
 562.779296875 472.666992188 546.134765625 441 521.00390625 413 c 0
 495.873046875 385 465.409179688 365.666992188 429.61328125 355 c 1
 465.509765625 343 489.983398438 322.666992188 503.03125 294 c 0
213.947265625 624.999023438 m 1
 158.538085938 384.999023438 l 1
 330.538085938 384.999023438 l 2
 373.87109375 384.999023438 410.141601562 394.83203125 439.348632812 414.499023438 c 0
 468.556640625 434.166015625 487.77734375 463.999023438 497.01171875 503.999023438 c 0
 506.24609375 543.999023438 501.2109375 574.166015625 481.905273438 594.499023438 c 0
 462.599609375 614.83203125 430.947265625 624.999023438 386.947265625 624.999023438 c 2
 213.947265625 624.999023438 l 1
376.279296875 97.9990234375 m 0
 406.69140625 119.999023438 426.74609375 152 436.442382812 194 c 0
 445.985351562 235.333007812 440.71875 266.666015625 420.64453125 287.999023438 c 0
 400.569335938 309.33203125 367.532226562 319.999023438 321.532226562 319.999023438 c 2
 143.532226562 319.999023438 l 1
 84.66015625 64.9990234375 l 1
 261.66015625 64.9990234375 l 2
 307.66015625 64.9990234375 345.8671875 75.9990234375 376.279296875 97.9990234375 c 0
EndSplineSet
EndChar

StartChar: C
Encoding: 67 67 37
Width: 610
GlyphClass: 2
Flags: MW
HStem: -8 66.999<186.81 259.476> 632.998 66<350.032 396.796>
LayerCount: 2
Fore
SplineSet
61.4697265625 55.5 m 0
 27.2431640625 97.8330078125 20.671875 164.666015625 41.7578125 255.999023438 c 2
 83.0830078125 434.999023438 l 2
 104.168945312 526.33203125 141.598632812 593.165039062 195.372070312 635.498046875 c 0
 249.14453125 677.831054688 313.032226562 698.998046875 387.032226562 698.998046875 c 0
 433.69921875 698.998046875 472.865234375 690.331054688 504.530273438 672.998046875 c 0
 536.1953125 655.665039062 558.000976562 630.998046875 569.946289062 598.998046875 c 0
 581.891601562 566.998046875 583.015625 529.998046875 573.319335938 487.998046875 c 2
 572.626953125 484.998046875 l 1
 499.626953125 484.998046875 l 1
 500.319335938 487.998046875 l 2
 510.631835938 532.665039062 504.2890625 567.998046875 481.291992188 593.998046875 c 0
 458.293945312 619.998046875 421.795898438 632.998046875 371.795898438 632.998046875 c 0
 316.462890625 632.998046875 270.678710938 617.331054688 234.444335938 585.998046875 c 0
 198.2109375 554.665039062 171.859375 503.33203125 155.391601562 431.999023438 c 2
 113.834960938 251.999023438 l 2
 84.1298828125 123.33203125 126.27734375 58.9990234375 240.27734375 58.9990234375 c 0
 290.27734375 58.9990234375 332.573242188 71.83203125 367.166015625 97.4990234375 c 0
 401.758789062 123.166015625 424.209960938 158.333007812 434.522460938 203 c 2
 435.446289062 207 l 1
 506.446289062 207 l 1
 505.522460938 203 l 2
 490.592773438 138.333007812 457.7421875 87 406.96875 49 c 0
 356.196289062 11 295.142578125 -8 223.809570312 -8 c 0
 149.809570312 -8 95.6962890625 13.1669921875 61.4697265625 55.5 c 0
EndSplineSet
EndChar

StartChar: D
Encoding: 68 68 38
Width: 621
GlyphClass: 2
Flags: MW
HStem: 0 65.999<85.8936 232.656> 623.999 66.001<155.955 377.718 155.955 214.718>
LayerCount: 2
Fore
SplineSet
155.955078125 690 m 1
 391.955078125 689.999023438 l 2
 465.288085938 689.999023438 518.568359375 668.83203125 551.794921875 626.499023438 c 0
 585.021484375 584.165039062 591.091796875 517.33203125 570.005859375 425.999023438 c 2
 532.60546875 263.999023438 l 2
 511.51953125 172.666015625 474.58984375 105.833007812 421.81640625 63.5 c 0
 369.04296875 21.1669921875 305.989257812 0 232.65625 0 c 2
 -3.34375 0 l 1
 155.955078125 690 l 1
248.893554688 65.9990234375 m 2
 358.2265625 65.9990234375 427.823242188 130.666015625 457.681640625 259.999023438 c 2
 495.313476562 422.999023438 l 2
 511.474609375 492.999023438 509.081054688 543.999023438 488.135742188 575.999023438 c 0
 467.19140625 607.999023438 430.384765625 623.999023438 377.717773438 623.999023438 c 2
 214.717773438 623.999023438 l 1
 85.8935546875 65.9990234375 l 1
 248.893554688 65.9990234375 l 2
EndSplineSet
EndChar

StartChar: E
Encoding: 69 69 39
Width: 547
GlyphClass: 2
Flags: MW
HStem: 0 66<84.8936 415.656> 318 66<158.31 439.072 143.072 454.31> 624 66<213.718 213.718 213.718 559.718>
LayerCount: 2
Fore
SplineSet
213.717773438 624 m 1
 158.309570312 384 l 1
 454.309570312 384 l 1
 439.072265625 318 l 1
 143.072265625 318 l 1
 84.8935546875 66 l 1
 430.893554688 66 l 1
 415.65625 0 l 1
 -3.34375 0 l 1
 155.955078125 690 l 1
 574.955078125 690 l 1
 559.717773438 624 l 1
 213.717773438 624 l 1
EndSplineSet
EndChar

StartChar: F
Encoding: 70 70 40
Width: 539
GlyphClass: 2
Flags: MW
HStem: 0 21G<-3.34375 69.6562 -3.34375 -3.34375> 316 66<157.848 438.61 142.61 453.848> 624 66<213.718 213.718 213.718 559.718>
LayerCount: 2
Fore
SplineSet
213.717773438 624 m 1
 157.84765625 382 l 1
 453.84765625 382 l 1
 438.610351562 316 l 1
 142.610351562 316 l 1
 69.65625 0 l 1
 -3.34375 0 l 1
 155.955078125 690 l 1
 574.955078125 690 l 1
 559.717773438 624 l 1
 213.717773438 624 l 1
EndSplineSet
EndChar

StartChar: G
Encoding: 71 71 41
Width: 610
GlyphClass: 2
Flags: MW
HStem: -8 66.999<185.143 258.143> 292 63<304.614 455.07 290.07 542.614> 633 66<348.366 395.461>
LayerCount: 2
Fore
SplineSet
60.9697265625 55.5 m 0
 27.076171875 97.8330078125 20.671875 164.66796875 41.7578125 256.000976562 c 2
 83.0830078125 435.000976562 l 2
 104.168945312 526.333984375 141.431640625 593.166992188 194.872070312 635.5 c 0
 248.3125 677.833007812 311.69921875 699 385.032226562 699 c 0
 432.366210938 699 471.698242188 690.333007812 503.029296875 673 c 0
 534.362304688 655.666992188 556.0390625 631.166992188 568.060546875 599.5 c 0
 580.083007812 567.833007812 581.323242188 531.333007812 571.78125 490 c 2
 570.857421875 486 l 1
 497.857421875 486 l 1
 498.78125 490 l 2
 508.939453125 534 502.48046875 568.833007812 479.40625 594.5 c 0
 456.33203125 620.166992188 420.127929688 633 370.794921875 633 c 0
 315.461914062 633 269.806640625 617.166992188 233.829101562 585.5 c 0
 197.850585938 553.833007812 171.705078125 502.666015625 155.390625 431.999023438 c 2
 113.833984375 251.999023438 l 2
 84.12890625 123.33203125 125.943359375 58.9990234375 239.276367188 58.9990234375 c 0
 291.943359375 58.9990234375 335.418945312 73.33203125 369.705078125 101.999023438 c 0
 403.990234375 130.666015625 428.366210938 176.333007812 442.833984375 239 c 2
 455.0703125 292 l 1
 290.0703125 292 l 1
 304.614257812 355 l 1
 542.614257812 355 l 1
 518.834960938 252 l 2
 497.903320312 161.333007812 461.333007812 95.3330078125 409.123046875 54 c 0
 356.9140625 12.6669921875 294.475585938 -8 221.809570312 -8 c 0
 148.4765625 -8 94.86328125 13.1669921875 60.9697265625 55.5 c 0
EndSplineSet
EndChar

StartChar: H
Encoding: 72 72 42
Width: 629
GlyphClass: 2
Flags: MW
HStem: 0 21G<-3.34375 69.6562 -3.34375 -3.34375 392.656 465.656 392.656 392.656> 320 66<158.771 466.534 143.534 481.771> 670 20G<155.955 228.955 228.955 228.955 551.955 624.955 624.955 624.955>
LayerCount: 2
Fore
SplineSet
624.955078125 690 m 1
 465.65625 0 l 1
 392.65625 0 l 1
 466.534179688 320 l 1
 143.534179688 320 l 1
 69.65625 0 l 1
 -3.34375 0 l 1
 155.955078125 690 l 1
 228.955078125 690 l 1
 158.771484375 386 l 1
 481.771484375 386 l 1
 551.955078125 690 l 1
 624.955078125 690 l 1
EndSplineSet
EndChar

StartChar: I
Encoding: 73 73 43
Width: 249
GlyphClass: 2
Flags: MW
HStem: 0 21G<4.65625 77.6562 4.65625 4.65625> 670 20G<163.955 236.955 236.955 236.955>
VStem: 4.65625 232.299
LayerCount: 2
Fore
SplineSet
163.955078125 690 m 1
 236.955078125 690 l 1
 77.65625 0 l 1
 4.65625 0 l 1
 163.955078125 690 l 1
EndSplineSet
EndChar

StartChar: J
Encoding: 74 74 44
Width: 313
GlyphClass: 2
Flags: MW
HStem: 0 66<-36.1064 16.6562 -51.3438 20.8926> 670 20G<227.955 300.955 300.955 300.955>
LayerCount: 2
Fore
SplineSet
-36.1064453125 66 m 1
 20.892578125 66 l 2
 43.5595703125 66 61.1123046875 72 73.548828125 84 c 0
 85.986328125 96 95.283203125 115.333007812 101.439453125 142 c 2
 227.955078125 690 l 1
 300.955078125 690 l 1
 172.362304688 133 l 2
 162.357421875 89.6669921875 144.072265625 56.6669921875 117.505859375 34 c 0
 90.939453125 11.3330078125 57.3232421875 0 16.65625 0 c 2
 -51.34375 0 l 1
 -36.1064453125 66 l 1
EndSplineSet
EndChar

StartChar: K
Encoding: 75 75 45
Width: 598
GlyphClass: 2
Flags: MW
HStem: 0 21G<-3.34375 69.6562 -3.34375 -3.34375 421.656 421.656 421.656 506.656> 670 20G<155.955 228.955 228.955 228.955 547.955 634.955 634.955 634.955>
LayerCount: 2
Fore
SplineSet
294.692382812 364 m 1
 113.521484375 190 l 1
 69.65625 0 l 1
 -3.34375 0 l 1
 155.955078125 690 l 1
 228.955078125 690 l 1
 136.146484375 288 l 1
 547.955078125 690 l 1
 634.955078125 690 l 1
 354.8515625 421 l 1
 506.65625 0 l 1
 421.65625 0 l 1
 294.692382812 364 l 1
EndSplineSet
EndChar

StartChar: L
Encoding: 76 76 46
Width: 529
GlyphClass: 2
Flags: MW
HStem: 0 66<84.8936 413.656> 670 20G<155.955 228.955 228.955 228.955>
LayerCount: 2
Fore
SplineSet
155.955078125 690 m 1
 228.955078125 690 l 1
 84.8935546875 66 l 1
 428.893554688 66 l 1
 413.65625 0 l 1
 -3.34375 0 l 1
 155.955078125 690 l 1
EndSplineSet
EndChar

StartChar: M
Encoding: 77 77 47
Width: 753
GlyphClass: 2
Flags: MW
HStem: 0 21G<-3.34375 69.6562 -3.34375 -3.34375 516.656 589.656 516.656 516.656> 670 20G<155.955 228.955 228.955 228.955 675.955 748.955 748.955 748.955>
LayerCount: 2
Fore
SplineSet
748.955078125 690 m 1
 589.65625 0 l 1
 516.65625 0 l 1
 641.325195312 540 l 1
 353.516601562 138 l 1
 297.516601562 138 l 1
 194.325195312 540 l 1
 69.65625 0 l 1
 -3.34375 0 l 1
 155.955078125 690 l 1
 228.955078125 690 l 1
 345.6015625 225 l 1
 675.955078125 690 l 1
 748.955078125 690 l 1
EndSplineSet
EndChar

StartChar: N
Encoding: 78 78 48
Width: 663
GlyphClass: 2
Flags: MW
HStem: 0 21G<-3.34375 69.6562 -3.34375 -3.34375 426.656 499.656 426.656 426.656> 670 20G<155.955 228.955 228.955 228.955 585.955 658.955 658.955 658.955>
LayerCount: 2
Fore
SplineSet
658.955078125 690 m 1
 499.65625 0 l 1
 426.65625 0 l 1
 198.01953125 556 l 1
 69.65625 0 l 1
 -3.34375 0 l 1
 155.955078125 690 l 1
 228.955078125 690 l 1
 458.0546875 136 l 1
 585.955078125 690 l 1
 658.955078125 690 l 1
EndSplineSet
EndChar

StartChar: O
Encoding: 79 79 49
Width: 610
GlyphClass: 2
Flags: MW
HStem: -8 67.001<208.945 256.143> 633.002 65.9971<347.367 420.367 347.367 423.797>
LayerCount: 2
Fore
SplineSet
59.9697265625 55.5 m 0
 26.7431640625 97.8330078125 20.673828125 164.666992188 41.759765625 256 c 2
 83.0849609375 435 l 2
 104.170898438 526.333007812 141.267578125 593.166015625 194.374023438 635.499023438 c 0
 247.48046875 677.83203125 310.700195312 698.999023438 384.033203125 698.999023438 c 0
 456.700195312 698.999023438 509.646484375 677.83203125 542.873046875 635.499023438 c 0
 576.099609375 593.165039062 582.169921875 526.33203125 561.083984375 434.999023438 c 2
 519.758789062 255.999023438 l 2
 498.672851562 164.666015625 461.576171875 97.8330078125 408.469726562 55.5 c 0
 355.36328125 13.1669921875 292.4765625 -8 219.809570312 -8 c 0
 146.4765625 -8 93.1962890625 13.1669921875 59.9697265625 55.5 c 0
445.8359375 252.000976562 m 2
 487.392578125 432.001953125 l 2
 518.329101562 566.001953125 478.796875 633.001953125 368.796875 633.001953125 c 0
 313.463867188 633.001953125 268.141601562 617.168945312 232.831054688 585.501953125 c 0
 197.520507812 553.834960938 171.70703125 502.66796875 155.392578125 432.000976562 c 2
 113.8359375 252.000976562 l 2
 98.291015625 184.66796875 101.145507812 135.66796875 122.3984375 105.000976562 c 0
 143.651367188 74.333984375 181.611328125 59.0009765625 236.278320312 59.0009765625 c 0
 346.278320312 59.0009765625 416.130859375 123.333984375 445.8359375 252.000976562 c 2
EndSplineSet
EndChar

StartChar: P
Encoding: 80 80 50
Width: 577
GlyphClass: 2
Flags: MW
HStem: 0 21G<-3.34375 69.6562 -3.34375 -3.34375> 285 66<150.691 310.454 135.454 319.691> 624 66<213.718 382.718 213.718 213.718>
LayerCount: 2
Fore
SplineSet
550.603515625 636.5 m 0
 581.036132812 600.833007812 588.633789062 550 573.396484375 484 c 0
 559.083007812 422 528.346679688 373.333007812 481.189453125 338 c 0
 434.032226562 302.666992188 377.12109375 285 310.454101562 285 c 2
 135.454101562 285 l 1
 69.65625 0 l 1
 -3.34375 0 l 1
 155.955078125 690 l 1
 403.955078125 690 l 2
 471.288085938 690 520.170898438 672.166992188 550.603515625 636.5 c 0
438.309570312 384 m 0
 469.388671875 406 490.083984375 439.333007812 500.396484375 484 c 0
 511.32421875 531.333007812 506.443359375 566.5 485.752929688 589.5 c 0
 465.063476562 612.5 430.717773438 624 382.717773438 624 c 2
 213.717773438 624 l 1
 150.69140625 351 l 1
 319.69140625 351 l 2
 367.69140625 351 407.23046875 362 438.309570312 384 c 0
EndSplineSet
EndChar

StartChar: Q
Encoding: 81 81 51
Width: 610
GlyphClass: 2
Flags: MW
HStem: -7.99805 67<208.946 231.144> 633.003 65.9971<347.367 420.367 347.367 423.798>
LayerCount: 2
Fore
SplineSet
353.2734375 20 m 1
 396.184570312 -118.998046875 l 1
 331.796875 -150.998046875 l 1
 285.196289062 -1.998046875 l 1
 264.272460938 -5.998046875 242.477539062 -7.998046875 219.810546875 -7.998046875 c 0
 146.477539062 -7.998046875 93.197265625 13.1689453125 59.970703125 55.501953125 c 0
 26.744140625 97.8349609375 20.673828125 164.66796875 41.759765625 256.000976562 c 2
 83.0849609375 435.000976562 l 2
 104.170898438 526.333984375 141.267578125 593.166992188 194.374023438 635.5 c 0
 247.48046875 677.833007812 310.700195312 699 384.033203125 699 c 0
 456.700195312 699 509.646484375 677.833007812 542.873046875 635.5 c 0
 576.099609375 593.166015625 582.169921875 526.333007812 561.083984375 435 c 2
 519.758789062 256 l 2
 492.516601562 138 437.021484375 59.3330078125 353.2734375 20 c 1
487.392578125 432.001953125 m 2
 518.329101562 566.001953125 478.797851562 633.002929688 368.797851562 633.002929688 c 0
 313.46484375 633.002929688 268.142578125 617.169921875 232.831054688 585.502929688 c 0
 197.520507812 553.8359375 171.708007812 502.668945312 155.392578125 432.001953125 c 2
 113.836914062 252.001953125 l 2
 98.2919921875 184.668945312 101.145507812 135.668945312 122.399414062 105.001953125 c 0
 143.65234375 74.3349609375 181.612304688 59.001953125 236.279296875 59.001953125 c 0
 346.279296875 59.001953125 416.131835938 123.334960938 445.836914062 252.001953125 c 2
 487.392578125 432.001953125 l 2
EndSplineSet
EndChar

StartChar: R
Encoding: 82 82 52
Width: 599
GlyphClass: 2
Flags: MW
HStem: 0 21G<-3.34375 69.6562 -3.34375 -3.34375 391.656 391.656 391.656 475.656> 303 63<154.154 154.154 154.154 305.609 139.609 154.154> 624 66<213.718 390.718 213.718 213.718>
LayerCount: 2
Fore
SplineSet
305.609375 303 m 1
 139.609375 303 l 1
 69.65625 0 l 1
 -3.34375 0 l 1
 155.955078125 690 l 1
 411.955078125 690 l 2
 476.622070312 690 523.569335938 673.166992188 552.796875 639.5 c 0
 582.024414062 605.833007812 589.48046875 558 575.166992188 496 c 0
 563.77734375 446.666992188 541.388671875 406 508.000976562 374 c 0
 474.61328125 342 433.35546875 320.666992188 384.225585938 310 c 1
 475.65625 0 l 1
 391.65625 0 l 1
 305.609375 303 l 1
154.154296875 366 m 1
 331.15234375 365.999023438 l 2
 375.819335938 365.999023438 413.064453125 377.166015625 442.88671875 399.499023438 c 0
 472.709960938 421.833007812 492.392578125 453.666015625 501.934570312 494.999023438 c 0
 511.78515625 537.666992188 507.044921875 569.833984375 487.713867188 591.5 c 0
 468.3828125 613.166992188 436.05078125 624 390.717773438 624 c 2
 213.717773438 624 l 1
 154.154296875 366 l 1
EndSplineSet
EndChar

StartChar: S
Encoding: 83 83 53
Width: 546
GlyphClass: 2
Flags: MW
HStem: -6 64.002<149.044 215.937> 507 21G<450.705 522.705 450.705 450.705> 636 63.001<313.699 377.154>
VStem: -5.32715 72<195.002 195.002> 450.705 72<507 507>
LayerCount: 2
Fore
SplineSet
28.0458984375 45 m 0
 -3.4384765625 79 -14.564453125 129.001953125 -5.3271484375 195.001953125 c 1
 66.6728515625 195.001953125 l 1
 54.919921875 103.668945312 99.0439453125 58.001953125 199.043945312 58.001953125 c 0
 251.043945312 58.001953125 293.083984375 69.001953125 325.163085938 91.001953125 c 0
 357.2421875 113.001953125 378.129882812 145.001953125 387.826171875 187.001953125 c 0
 396.599609375 225.001953125 392.55078125 253.668945312 375.680664062 273.001953125 c 0
 358.811523438 292.3359375 329.556640625 305.668945312 287.916015625 313.000976562 c 2
 212.91796875 326.000976562 l 2
 159.072265625 335.333984375 120.497070312 354.500976562 97.1923828125 383.500976562 c 0
 73.8876953125 412.500976562 68.314453125 453.333984375 80.4736328125 506.000976562 c 0
 94.48046875 566.66796875 125.740234375 614.000976562 174.256835938 648.000976562 c 0
 222.7734375 682.000976562 280.365234375 699.000976562 347.032226562 699.000976562 c 0
 408.365234375 699.000976562 454.876953125 683.16796875 486.56640625 651.500976562 c 0
 518.254882812 619.833984375 530.301757812 571.666992188 522.705078125 507 c 1
 450.705078125 507 l 1
 462.560546875 593 422.8203125 636 331.487304688 636 c 0
 284.154296875 636 244.743164062 624.833007812 213.254882812 602.5 c 0
 181.765625 580.166992188 161.556640625 549.666992188 152.629882812 511 c 0
 144.780273438 477 148.829101562 450.5 164.776367188 431.5 c 0
 180.72265625 412.5 208.515625 399.333007812 248.155273438 392 c 2
 324.923828125 378 l 2
 380.615234375 368 420.330078125 348 444.071289062 318 c 0
 467.8125 288 473.372070312 245.666992188 460.750976562 191 c 0
 446.283203125 128.333007812 414.0859375 79.8330078125 364.16015625 45.5 c 0
 314.233398438 11.1669921875 252.603515625 -6 179.270507812 -6 c 0
 109.9375 -6 59.529296875 11 28.0458984375 45 c 0
EndSplineSet
EndChar

StartChar: T
Encoding: 84 84 54
Width: 482
GlyphClass: 2
Flags: MW
HStem: 0 21G<121.656 193.656 121.656 121.656> 624 66<83.9551 265.718 68.7178 549.955 337.718 534.718 337.718 337.718>
LayerCount: 2
Fore
SplineSet
534.717773438 624 m 1
 337.717773438 624 l 1
 193.65625 0 l 1
 121.65625 0 l 1
 265.717773438 624 l 1
 68.7177734375 624 l 1
 83.955078125 690 l 1
 549.955078125 690 l 1
 534.717773438 624 l 1
EndSplineSet
EndChar

StartChar: U
Encoding: 85 85 55
Width: 635
GlyphClass: 2
Flags: MW
HStem: -6 65<223.277 255.938> 670 20G<155.955 229.955 229.955 229.955 557.955 630.955 630.955 630.955>
LayerCount: 2
Fore
SplineSet
117.966796875 23 m 0
 86.4296875 42.3330078125 64.4072265625 69.6669921875 51.8974609375 105 c 0
 39.3876953125 140.333007812 38.2890625 180.333007812 48.6015625 225 c 2
 155.955078125 690 l 1
 229.955078125 690 l 1
 123.987304688 231 l 2
 111.828125 178.333007812 117.002929688 136.5 139.512695312 105.5 c 0
 162.0234375 74.5 198.27734375 59 248.27734375 59 c 0
 297.610351562 59 340.856445312 74.5 378.012695312 105.5 c 0
 415.169921875 136.5 439.828125 178.333007812 451.987304688 231 c 2
 557.955078125 690 l 1
 630.955078125 690 l 1
 523.6015625 225 l 2
 513.135742188 179.666992188 493.6953125 139.5 465.282226562 104.5 c 0
 436.869140625 69.5 402.4296875 42.3330078125 361.966796875 23 c 0
 321.502929688 3.6669921875 278.604492188 -6 233.271484375 -6 c 0
 187.938476562 -6 149.502929688 3.6669921875 117.966796875 23 c 0
EndSplineSet
EndChar

StartChar: V
Encoding: 86 86 56
Width: 523
GlyphClass: 2
Flags: MW
HStem: 0 21G<147.656 207.656 147.656 147.656> 670 20G<82.9551 158.955 158.955 158.955 515.955 591.955 591.955 591.955>
LayerCount: 2
Fore
SplineSet
82.955078125 690 m 1
 158.955078125 690 l 1
 205.8984375 118 l 1
 515.955078125 690 l 1
 591.955078125 690 l 1
 207.65625 0 l 1
 147.65625 0 l 1
 82.955078125 690 l 1
EndSplineSet
EndChar

StartChar: W
Encoding: 87 87 57
Width: 796
GlyphClass: 2
Flags: MW
HStem: 0 21G<100.656 165.656 100.656 100.656 467.656 532.656 467.656 467.656> 670 20G<82.9551 153.955 153.955 153.955 428.955 521.955 521.955 521.955 796.955 864.955 864.955 864.955>
VStem: 82.9551 71<690 690> 100.656 65<0 0> 452.946 69.0088 467.656 65<0 0>
LayerCount: 2
Fore
SplineSet
864.955078125 690 m 1xe8
 532.65625 0 l 1
 467.65625 0 l 1xc4
 452.946289062 599 l 1
 165.65625 0 l 1
 100.65625 0 l 1xd8
 82.955078125 690 l 1
 153.955078125 690 l 1
 161.8984375 118 l 1
 428.955078125 690 l 1
 521.955078125 690 l 1
 529.8984375 118 l 1
 796.955078125 690 l 1
 864.955078125 690 l 1xe8
EndSplineSet
EndChar

StartChar: X
Encoding: 88 88 58
Width: 566
GlyphClass: 2
Flags: MW
HStem: 0 21G<-76.3438 8.65625 -76.3438 -76.3438 387.656 475.656 387.656 387.656> 670 20G<101.955 189.955 189.955 189.955 527.955 612.955 612.955 612.955>
LayerCount: 2
Fore
SplineSet
238.538085938 359 m 1
 101.955078125 690 l 1
 189.955078125 690 l 1
 296.389648438 419 l 1
 527.955078125 690 l 1
 612.955078125 690 l 1
 326.23046875 362 l 1
 475.65625 0 l 1
 387.65625 0 l 1
 267.147460938 301 l 1
 8.65625 0 l 1
 -76.34375 0 l 1
 238.538085938 359 l 1
EndSplineSet
EndChar

StartChar: Y
Encoding: 89 89 59
Width: 499
GlyphClass: 2
Flags: MW
HStem: 0 21G<129.656 202.656 129.656 129.656> 670 20G<82.9551 161.955 161.955 161.955 488.955 567.955 567.955 567.955>
LayerCount: 2
Fore
SplineSet
269.376953125 289 m 1
 202.65625 0 l 1
 129.65625 0 l 1
 196.608398438 290 l 1
 82.955078125 690 l 1
 161.955078125 690 l 1
 248.538085938 359 l 1
 488.955078125 690 l 1
 567.955078125 690 l 1
 269.376953125 289 l 1
EndSplineSet
EndChar

StartChar: Z
Encoding: 90 90 60
Width: 516
GlyphClass: 2
Flags: MW
HStem: 0 66<-28.1064 -28.1064 54.8936 396.656 -43.3438 -28.1064> 624 66<128.955 454.718 113.718 552.955 537.718 537.718>
LayerCount: 2
Fore
SplineSet
411.893554688 66 m 1
 396.65625 0 l 1
 -43.34375 0 l 1
 -28.1064453125 66 l 1
 454.717773438 624 l 1
 113.717773438 624 l 1
 128.955078125 690 l 1
 552.955078125 690 l 1
 537.717773438 624 l 1
 54.8935546875 66 l 1
 411.893554688 66 l 1
EndSplineSet
EndChar

StartChar: bracketleft
Encoding: 91 91 61
Width: 295
GlyphClass: 2
Flags: MW
HStem: -84 66<62.501 133.264> 674 66<222.262 308.262 222.262 222.262>
LayerCount: 2
Fore
SplineSet
167.499023438 740 m 1
 323.499023438 740 l 1
 308.26171875 674 l 1
 222.26171875 674 l 1
 62.5009765625 -18 l 1
 148.500976562 -18 l 1
 133.263671875 -84 l 1
 -22.736328125 -84 l 1
 167.499023438 740 l 1
EndSplineSet
Substitution2: "'rtla' Right to Left Alternates lookup 0 subtable" bracketright
EndChar

StartChar: backslash
Encoding: 92 92 62
Width: 392
GlyphClass: 2
Flags: MW
HStem: 670 20G<134.955 194.955 194.955 194.955>
VStem: 134.955 112.393
LayerCount: 2
Fore
SplineSet
134.955078125 690 m 1
 194.955078125 690 l 1
 247.34765625 -10 l 1
 187.34765625 -10 l 1
 134.955078125 690 l 1
EndSplineSet
EndChar

StartChar: bracketright
Encoding: 93 93 63
Width: 295
GlyphClass: 2
Flags: MW
HStem: -84 66<-28.499 57.501 -28.499 112.264 -43.7363 57.501> 674 66<146.499 217.262 131.262 302.499>
LayerCount: 2
Fore
SplineSet
-28.4990234375 -18 m 1
 57.5009765625 -18 l 1
 217.26171875 674 l 1
 131.26171875 674 l 1
 146.499023438 740 l 1
 302.499023438 740 l 1
 112.263671875 -84 l 1
 -43.736328125 -84 l 1
 -28.4990234375 -18 l 1
EndSplineSet
Substitution2: "'rtla' Right to Left Alternates lookup 0 subtable" bracketleft
EndChar

StartChar: asciicircum
Encoding: 94 94 64
Width: 512
GlyphClass: 2
Flags: MW
HStem: 670 20G<302.955 361.955 361.955 361.955>
LayerCount: 2
Fore
SplineSet
302.955078125 690 m 1
 361.955078125 690 l 1
 441.454101562 285 l 1
 381.454101562 285 l 1
 317.1796875 626 l 1
 96.4541015625 285 l 1
 36.4541015625 285 l 1
 302.955078125 690 l 1
EndSplineSet
EndChar

StartChar: underscore
Encoding: 95 95 65
Width: 457
GlyphClass: 2
Flags: MW
HStem: -104 50<-95.8105 349.646 -107.354 361.189>
LayerCount: 2
Fore
SplineSet
-95.810546875 -54 m 1
 361.189453125 -54 l 1
 349.646484375 -104 l 1
 -107.353515625 -104 l 1
 -95.810546875 -54 l 1
EndSplineSet
EndChar

StartChar: grave
Encoding: 96 96 66
Width: 500
GlyphClass: 2
Flags: MW
HStem: 572 125<225.571 379.713 225.571 316.713>
VStem: 225.571 154.142<572 697>
LayerCount: 2
Fore
SplineSet
225.571289062 697 m 1
 309.571289062 697 l 1
 379.712890625 572 l 1
 316.712890625 572 l 1
 225.571289062 697 l 1
EndSplineSet
EndChar

StartChar: a
Encoding: 97 97 67
Width: 497
GlyphClass: 2
Flags: MW
HStem: -6.00098 55.001<116.97 146.604> 238 49.999<161.27 337.147 200.147 325.604> 457 57<245.989 279.498>
LayerCount: 2
Fore
SplineSet
399.895507812 471 m 0
 424.944335938 442.333007812 431.081054688 400.333007812 418.306640625 345 c 2
 338.657226562 0 l 1
 271.657226562 0 l 1
 284.124023438 54 l 1
 264.01953125 33.3330078125 241.518554688 18.166015625 216.619140625 8.4990234375 c 0
 191.720703125 -1.16796875 162.9375 -6.0009765625 130.270507812 -6.0009765625 c 0
 76.9375 -6.0009765625 38.529296875 6.666015625 15.044921875 31.9990234375 c 0
 -8.439453125 57.33203125 -14.564453125 94.33203125 -3.3291015625 142.999023438 c 0
 7.1376953125 188.33203125 30.166015625 223.83203125 65.7587890625 249.499023438 c 0
 101.3515625 275.166015625 146.147460938 287.999023438 200.147460938 287.999023438 c 2
 337.147460938 287.999023438 l 1
 350.537109375 345.999023438 l 2
 359.002929688 382.666015625 355.390625 410.333007812 339.700195312 429 c 0
 324.009765625 447.666992188 297.831054688 457 261.1640625 457 c 0
 226.497070312 457 197.521484375 449.166992188 174.237304688 433.5 c 0
 150.954101562 417.833007812 136.157226562 396.333007812 129.846679688 369 c 2
 129.154296875 366 l 1
 63.154296875 366 l 1
 64.30859375 371 l 2
 74.3125 414.333007812 97.9833984375 449 135.318359375 475 c 0
 172.654296875 501 218.655273438 514 273.322265625 514 c 0
 332.655273438 514 374.846679688 499.666992188 399.895507812 471 c 0
258.51171875 79.5 m 0
 283.5390625 99.8330078125 300.82421875 130.666992188 310.366210938 172 c 2
 325.603515625 238 l 1
 198.603515625 238 l 2
 123.936523438 238 79.3701171875 206.666992188 64.90234375 144 c 0
 50.28125 80.6669921875 79.9697265625 49 153.969726562 49 c 0
 198.63671875 49 233.484375 59.1669921875 258.51171875 79.5 c 0
EndSplineSet
EndChar

StartChar: b
Encoding: 98 98 68
Width: 510
GlyphClass: 2
Flags: MW
HStem: -6 61.001<178.689 220.271> 452 62<295.656 326.011> 670.001 20G<150.957 218.957 218.957 218.957>
LayerCount: 2
Fore
SplineSet
75.125 67 m 1
 59.6572265625 0.0009765625 l 1
 -8.3427734375 0.0009765625 l 1
 150.95703125 690.000976562 l 1
 218.95703125 690.000976562 l 1
 160.31640625 436.000976562 l 1
 180.165039062 461.334960938 202.794921875 480.66796875 228.206054688 494 c 0
 253.6171875 507.333007812 280.989257812 514 310.322265625 514 c 0
 362.322265625 514 400.76953125 497.166992188 425.6640625 463.5 c 0
 450.55859375 429.833007812 454.770507812 377.333007812 438.301757812 306 c 2
 414.291992188 202 l 2
 397.823242188 130.666992188 369.702148438 78.1669921875 329.9296875 44.5 c 0
 290.157226562 10.8330078125 245.271484375 -6 195.271484375 -6 c 0
 131.938476562 -6 91.888671875 18.3330078125 75.125 67 c 1
347.216796875 206.000976562 m 2
 369.380859375 302 l 2
 392.467773438 402 365.010742188 452 287.010742188 452 c 0
 246.34375 452 212.40625 437.833007812 185.198242188 409.5 c 0
 157.989257812 381.166992188 138.921875 343.333984375 127.994140625 296.000976562 c 2
 107.447265625 207.000976562 l 2
 97.134765625 162.333984375 99.541015625 125.833984375 114.666992188 97.5009765625 c 0
 129.79296875 69.16796875 158.022460938 55.0009765625 199.35546875 55.0009765625 c 0
 274.688476562 55.0009765625 323.975585938 105.333984375 347.216796875 206.000976562 c 2
EndSplineSet
EndChar

StartChar: c
Encoding: 99 99 69
Width: 503
GlyphClass: 2
Flags: MW
HStem: -6 61<166.689 200.606> 451.999 62<261.322 298.342>
LayerCount: 2
Fore
SplineSet
39.19921875 43.5 m 0
 11.150390625 76.5 5.5146484375 129.33203125 22.2919921875 201.999023438 c 2
 46.3017578125 305.999023438 l 2
 62.923828125 377.999023438 92.916015625 430.666015625 136.279296875 463.999023438 c 0
 179.641601562 497.33203125 231.322265625 513.999023438 291.322265625 513.999023438 c 0
 349.322265625 513.999023438 391.615234375 498.666015625 418.202148438 467.999023438 c 0
 444.7890625 437.33203125 452.157226562 396.33203125 440.305664062 344.999023438 c 2
 439.151367188 339.999023438 l 1
 373.151367188 339.999023438 l 1
 374.305664062 344.999023438 l 2
 382.155273438 378.999023438 377.567382812 405.33203125 360.543945312 423.999023438 c 0
 343.520507812 442.666015625 316.67578125 451.999023438 280.008789062 451.999023438 c 0
 238.67578125 451.999023438 203.764648438 440.83203125 175.275390625 418.499023438 c 0
 146.786132812 396.166015625 126.154296875 357.333007812 113.379882812 302 c 2
 91.2158203125 206 l 2
 78.287109375 150 80.7451171875 110.833007812 98.5888671875 88.5 c 0
 116.43359375 66.1669921875 146.022460938 55 187.35546875 55 c 0
 224.689453125 55 256.176757812 64.3330078125 281.819335938 83 c 0
 307.461914062 101.666992188 324.208007812 128 332.057617188 162 c 2
 333.211914062 167 l 1
 399.211914062 167 l 1
 398.2890625 163 l 2
 386.4375 111.666992188 359.971679688 70.6669921875 318.891601562 40 c 0
 277.8125 9.3330078125 228.939453125 -6 172.272460938 -6 c 0
 111.60546875 -6 67.2470703125 10.5 39.19921875 43.5 c 0
EndSplineSet
EndChar

StartChar: d
Encoding: 100 100 70
Width: 511
GlyphClass: 2
Flags: MW
HStem: 0 55 452 62<240.99 285.343> 670 20G<442.955 511.955 511.955 511.955>
LayerCount: 2
Fore
SplineSet
33.9296875 44.5 m 0
 9.7021484375 78.1669921875 5.82421875 130.666992188 22.29296875 202 c 2
 46.302734375 306 l 2
 62.771484375 377.333007812 90.892578125 429.833007812 130.665039062 463.5 c 0
 170.4375 497.166992188 215.65625 514 266.323242188 514 c 0
 327.65625 514 366.987304688 488 384.314453125 436 c 1
 442.955078125 690 l 1
 511.955078125 690 l 1
 352.65625 0 l 1
 283.65625 0 l 1
 299.125 67 l 1
 280.250976562 43 257.889648438 24.8330078125 232.041992188 12.5 c 0
 206.1953125 0.1669921875 177.271484375 -6 145.271484375 -6 c 0
 95.271484375 -6 58.1572265625 10.8330078125 33.9296875 44.5 c 0
274.051757812 97 m 0
 301.848632812 125 320.981445312 161.666992188 331.447265625 207 c 2
 351.994140625 296 l 2
 362.921875 343.333984375 361.323242188 381.166992188 347.198242188 409.5 c 0
 333.072265625 437.833007812 305.67578125 452 265.009765625 452 c 0
 187.676757812 452 137.466796875 402 114.379882812 302 c 2
 92.2158203125 206 l 2
 68.9755859375 105.333007812 94.6884765625 55 169.35546875 55 c 0
 211.35546875 55 246.25390625 69 274.051757812 97 c 0
EndSplineSet
EndChar

StartChar: e
Encoding: 101 101 71
Width: 503
GlyphClass: 2
Flags: MW
HStem: -6 61<167.687 198.271> 240 51<99.0645 359.839 110.839 359.839 110.839 416.064> 452 62<258.322 292.342>
LayerCount: 2
Fore
SplineSet
99.064453125 240 m 1
 92.138671875 210 l 2
 78.90234375 152.666992188 81.2958984375 112.5 99.3193359375 89.5 c 0
 117.341796875 66.5 147.020507812 55 188.353515625 55 c 0
 224.353515625 55 254.521484375 63.6669921875 278.85546875 81 c 0
 303.190429688 98.3330078125 318.8984375 122.333007812 325.978515625 153 c 2
 326.670898438 156 l 1
 392.670898438 156 l 1
 391.516601562 151 l 2
 380.588867188 103.666992188 355.315429688 65.6669921875 315.697265625 37 c 0
 276.079101562 8.3330078125 227.270507812 -6 169.270507812 -6 c 0
 109.9375 -6 66.6826171875 11.6669921875 39.5068359375 47 c 0
 12.3310546875 82.3330078125 7.3623046875 137.333007812 24.6005859375 212 c 2
 44.9169921875 300 l 2
 61.693359375 372.666992188 91.7890625 426.5 135.202148438 461.5 c 0
 178.615234375 496.5 229.322265625 514 287.322265625 514 c 0
 345.322265625 514 387.782226562 496.5 414.702148438 461.5 c 0
 441.622070312 426.5 446.693359375 372.666992188 429.916992188 300 c 2
 416.064453125 240 l 1
 99.064453125 240 l 1
174.274414062 418.5 m 0
 146.452148438 396.166992188 126.153320312 357.333007812 113.37890625 302 c 2
 110.838867188 291 l 1
 359.838867188 291 l 1
 363.994140625 309 l 2
 376.153320312 361.666992188 373.696289062 398.666992188 356.62109375 420 c 0
 339.545898438 441.333007812 311.67578125 452 273.008789062 452 c 0
 235.008789062 452 202.09765625 440.833007812 174.274414062 418.5 c 0
EndSplineSet
EndChar

StartChar: f
Encoding: 102 102 72
Width: 327
GlyphClass: 2
Flags: MW
HStem: 0 21G<30.6562 99.6562 30.6562 30.6562> 453 54<83.7061 135.239 71.2393 147.706 216.706 310.239> 636 54<289.155 364.955 311.955 352.488>
LayerCount: 2
Fore
SplineSet
230.55859375 567 m 2
 216.706054688 507 l 1
 322.706054688 507 l 1
 310.239257812 453 l 1
 204.239257812 453 l 1
 99.65625 0 l 1
 30.65625 0 l 1
 135.239257812 453 l 1
 71.2392578125 453 l 1
 83.7060546875 507 l 1
 147.706054688 507 l 1
 160.866210938 564 l 2
 169.79296875 602.66796875 187.706054688 633.334960938 214.60546875 656 c 0
 241.505859375 678.666992188 273.955078125 690 311.955078125 690 c 2
 364.955078125 690 l 1
 352.48828125 636 l 1
 310.48828125 636 l 2
 267.821289062 636 241.178710938 613 230.55859375 567 c 2
EndSplineSet
EndChar

StartChar: g
Encoding: 103 103 73
Width: 511
GlyphClass: 2
Flags: MW
HStem: -158 58.999<125.8 157.845> 30.999 62<140.793 169.813> 455.999 61<241.681 286.265>
VStem: -21.1152 68<-25.001 -25.001>
LayerCount: 2
Fore
SplineSet
8.990234375 -122 m 0
 -17.1357421875 -98 -27.1708984375 -65.66796875 -21.115234375 -25.0009765625 c 1
 46.884765625 -25.0009765625 l 1
 45.138671875 -47.0009765625 52.521484375 -64.833984375 69.033203125 -78.5009765625 c 0
 85.544921875 -92.16796875 109.799804688 -99.0009765625 141.799804688 -99.0009765625 c 0
 221.1328125 -99.0009765625 271.03515625 -54.66796875 291.505859375 33.9990234375 c 2
 307.897460938 104.999023438 l 1
 289.0234375 80.9990234375 266.624023438 62.666015625 240.69921875 49.9990234375 c 0
 214.775390625 37.33203125 185.813476562 30.9990234375 153.813476562 30.9990234375 c 0
 103.813476562 30.9990234375 66.69921875 47.83203125 42.4716796875 81.4990234375 c 0
 18.244140625 115.166015625 14.4423828125 167.999023438 31.064453125 239.999023438 c 2
 47.2255859375 309.999023438 l 2
 63.6943359375 381.333007812 91.7763671875 433.666015625 131.471679688 466.999023438 c 0
 171.166992188 500.33203125 216.34765625 516.999023438 267.014648438 516.999023438 c 0
 329.014648438 516.999023438 368.421875 491.33203125 385.23828125 439.999023438 c 1
 401.629882812 510.999023438 l 1
 470.629882812 510.999023438 l 1
 361.890625 39.9990234375 l 2
 347.731445312 -21.333984375 320.072265625 -69.6669921875 278.915039062 -105 c 0
 237.7578125 -140.333007812 187.51171875 -158 128.178710938 -158 c 0
 74.845703125 -158 35.1162109375 -146 8.990234375 -122 c 0
282.823242188 134.999023438 m 0
 310.62109375 162.999023438 329.752929688 199.666015625 340.21875 244.999023438 c 2
 352.916992188 299.999023438 l 2
 363.844726562 347.333007812 362.24609375 385.166015625 348.120117188 413.499023438 c 0
 333.994140625 441.83203125 306.59765625 455.999023438 265.931640625 455.999023438 c 0
 188.598632812 455.999023438 138.311523438 405.666015625 115.071289062 304.999023438 c 2
 100.98828125 243.999023438 l 2
 77.7470703125 143.33203125 103.459960938 92.9990234375 178.126953125 92.9990234375 c 0
 220.126953125 92.9990234375 255.026367188 106.999023438 282.823242188 134.999023438 c 0
EndSplineSet
EndChar

StartChar: h
Encoding: 104 104 74
Width: 522
GlyphClass: 2
Flags: MW
HStem: 0 21G<-8.34375 59.6562 -8.34375 -8.34375> 451.999 60.999<284.09 301.342> 670 20G<150.955 150.955>
LayerCount: 2
Fore
SplineSet
150.955078125 690 m 1
 218.954101562 689.998046875 l 1
 162.391601562 444.998046875 l 1
 203.524414062 490.331054688 254.08984375 512.998046875 314.08984375 512.998046875 c 0
 366.756835938 512.998046875 404.307617188 497.331054688 426.740234375 465.998046875 c 0
 449.173828125 434.665039062 453.771484375 390.33203125 440.53515625 332.999023438 c 2
 363.65625 -0.0009765625 l 1
 295.65625 -0.0009765625 l 1
 370.2265625 322.999023438 l 2
 379.922851562 364.999023438 376.977539062 396.999023438 361.389648438 418.999023438 c 0
 345.801757812 440.999023438 319.674804688 451.999023438 283.008789062 451.999023438 c 0
 247.008789062 451.999023438 215.59765625 440.83203125 188.774414062 418.499023438 c 0
 161.951171875 396.166015625 143.76953125 364.333007812 134.2265625 323 c 2
 59.65625 0 l 1
 -8.34375 0 l 1
 150.955078125 690 l 1
EndSplineSet
EndChar

StartChar: i
Encoding: 105 105 75
Width: 234
GlyphClass: 2
Flags: MW
HStem: 0 21G<-0.34375 67.6562 -0.34375 -0.34375> 487 20G<116.706 184.706 184.706 184.706> 590 90<154.646 205.868 133.868 226.646>
VStem: -0.34375 226.99
LayerCount: 2
Fore
SplineSet
116.706054688 507 m 1
 184.706054688 507 l 1
 67.65625 0 l 1
 -0.34375 0 l 1
 116.706054688 507 l 1
154.646484375 680 m 1
 226.646484375 680 l 1
 205.868164062 590 l 1
 133.868164062 590 l 1
 154.646484375 680 l 1
EndSplineSet
EndChar

StartChar: j
Encoding: 106 106 76
Width: 226
GlyphClass: 2
Flags: MW
HStem: -152 62<-134.122 -100.436 -148.436 -93.1221> 487 20G<108.706 176.706 176.706 176.706> 600 90<147.955 199.178 127.178 219.955>
LayerCount: 2
Fore
SplineSet
147.955078125 690 m 1
 219.955078125 690 l 1
 199.177734375 600 l 1
 127.177734375 600 l 1
 147.955078125 690 l 1
-134.122070312 -90 m 1
 -93.1220703125 -90 l 2
 -70.455078125 -90 -52.736328125 -84 -39.9658203125 -72 c 0
 -27.1953125 -60 -17.8095703125 -41 -11.806640625 -15 c 2
 108.706054688 507 l 1
 176.706054688 507 l 1
 55.26953125 -19 l 2
 45.265625 -62.3330078125 26.98046875 -95.3330078125 0.4140625 -118 c 0
 -26.15234375 -140.666992188 -59.7685546875 -152 -100.435546875 -152 c 2
 -148.435546875 -152 l 1
 -134.122070312 -90 l 1
EndSplineSet
EndChar

StartChar: k
Encoding: 107 107 77
Width: 494
GlyphClass: 2
Flags: MW
HStem: 0 21G<-8.34375 59.6562 -8.34375 -8.34375 308.656 308.656 308.656 391.656> 487 20G<397.706 479.706 479.706 479.706> 670 20G<150.955 218.955 218.955 218.955>
LayerCount: 2
Fore
SplineSet
215.375 263 m 1
 94.517578125 151 l 1
 59.65625 0 l 1
 -8.34375 0 l 1
 150.955078125 690 l 1
 218.955078125 690 l 1
 114.372070312 237 l 1
 397.706054688 507 l 1
 479.706054688 507 l 1
 272.379882812 315 l 1
 391.65625 0 l 1
 308.65625 0 l 1
 215.375 263 l 1
EndSplineSet
EndChar

StartChar: l
Encoding: 108 108 78
Width: 273
GlyphClass: 2
Flags: MW
HStem: 0 62<96.3228 178.97 137.97 164.656> 670 20G<150.955 218.955 218.955 218.955>
LayerCount: 2
Fore
SplineSet
31.505859375 34 m 0
 15.40625 56.6669921875 12.357421875 89.6669921875 22.3623046875 133 c 2
 150.955078125 690 l 1
 218.955078125 690 l 1
 91.28515625 137 l 2
 85.283203125 111 85.896484375 92 93.1259765625 80 c 0
 100.35546875 68 115.302734375 62 137.969726562 62 c 2
 178.969726562 62 l 1
 164.65625 0 l 1
 116.65625 0 l 2
 75.9892578125 0 47.60546875 11.3330078125 31.505859375 34 c 0
EndSplineSet
EndChar

StartChar: m
Encoding: 109 109 79
Width: 825
GlyphClass: 2
Flags: MW
HStem: -0.000976562 21G<294.656 363.656 294.656 294.656> 451.998 61<579.424 605.342>
LayerCount: 2
Fore
SplineSet
108.706054688 507 m 1
 175.704101562 506.998046875 l 1
 161.390625 444.998046875 l 1
 181.13671875 466.998046875 204.189453125 483.831054688 230.549804688 495.498046875 c 0
 256.911132812 507.165039062 284.756835938 512.998046875 314.08984375 512.998046875 c 0
 348.756835938 512.998046875 376.731445312 505.665039062 398.01171875 490.998046875 c 0
 419.29296875 476.331054688 433.444335938 455.331054688 440.467773438 427.998046875 c 1
 486.883789062 484.665039062 544.7578125 512.998046875 614.090820312 512.998046875 c 0
 668.090820312 512.998046875 706.435546875 497.165039062 729.125 465.498046875 c 0
 751.814453125 433.831054688 756.6171875 389.6640625 743.53515625 332.998046875 c 2
 666.65625 -0.001953125 l 1
 598.65625 -0.001953125 l 1
 673.2265625 322.998046875 l 2
 682.922851562 364.998046875 680.143554688 396.998046875 664.889648438 418.998046875 c 0
 649.635742188 440.998046875 623.67578125 451.998046875 587.008789062 451.998046875 c 0
 549.67578125 451.998046875 517.930664062 440.831054688 491.774414062 418.498046875 c 0
 465.618164062 396.165039062 448 365.33203125 438.918945312 325.999023438 c 2
 363.65625 -0.0009765625 l 1
 294.65625 -0.0009765625 l 1
 369.2265625 322.999023438 l 2
 378.922851562 364.999023438 376.143554688 396.999023438 360.889648438 418.999023438 c 0
 345.635742188 440.999023438 319.67578125 451.999023438 283.008789062 451.999023438 c 0
 247.008789062 451.999023438 215.59765625 440.83203125 188.774414062 418.499023438 c 0
 161.951171875 396.166015625 143.76953125 364.333007812 134.2265625 323 c 2
 59.65625 0 l 1
 -8.34375 0 l 1
 108.706054688 507 l 1
EndSplineSet
EndChar

StartChar: n
Encoding: 110 110 80
Width: 522
GlyphClass: 2
Flags: MW
HStem: 0 21G<-8.34375 59.6562 -8.34375 -8.34375> 451.999 61<299.425 301.342>
LayerCount: 2
Fore
SplineSet
108.706054688 507 m 1
 175.706054688 506.999023438 l 1
 161.392578125 444.999023438 l 1
 181.29296875 467.666015625 204.384765625 484.666015625 230.666992188 495.999023438 c 0
 256.950195312 507.33203125 284.758789062 512.999023438 314.091796875 512.999023438 c 0
 368.091796875 512.999023438 405.936523438 497.166015625 427.625 465.499023438 c 0
 449.314453125 433.83203125 453.6171875 389.665039062 440.53515625 332.999023438 c 2
 363.65625 -0.0009765625 l 1
 295.65625 -0.0009765625 l 1
 370.2265625 322.999023438 l 2
 379.922851562 364.999023438 376.977539062 396.999023438 361.389648438 418.999023438 c 0
 345.801757812 440.999023438 319.674804688 451.999023438 283.008789062 451.999023438 c 0
 247.008789062 451.999023438 215.59765625 440.83203125 188.774414062 418.499023438 c 0
 161.951171875 396.166015625 143.76953125 364.333007812 134.2265625 323 c 2
 59.65625 0 l 1
 -8.34375 0 l 1
 108.706054688 507 l 1
EndSplineSet
EndChar

StartChar: o
Encoding: 111 111 81
Width: 505
GlyphClass: 2
Flags: MW
HStem: -6 61<163.688 198.271> 451.999 62.001<259.655 294.009>
LayerCount: 2
Fore
SplineSet
38.69921875 43.5 m 0
 10.984375 76.5 5.515625 129.333007812 22.2919921875 202 c 2
 46.3017578125 306 l 2
 62.9248046875 378 92.7509765625 430.666992188 135.779296875 464 c 0
 178.807617188 497.333007812 229.98828125 514 289.321289062 514 c 0
 347.321289062 514 389.973632812 497.333007812 417.278320312 464 c 0
 444.583007812 430.666992188 449.923828125 378 433.30078125 306 c 2
 409.291015625 202 l 2
 392.66796875 130 363.008789062 77.3330078125 320.313476562 44 c 0
 277.618164062 10.6669921875 227.270507812 -6 169.270507812 -6 c 0
 109.9375 -6 66.4130859375 10.5 38.69921875 43.5 c 0
281.587890625 88.5 m 0
 309.077148438 110.833007812 329.286132812 149.999023438 342.21484375 205.999023438 c 2
 364.377929688 301.999023438 l 2
 377.153320312 357.333007812 374.951171875 396.166015625 357.774414062 418.499023438 c 0
 340.59765625 440.83203125 313.008789062 451.999023438 275.008789062 451.999023438 c 0
 235.67578125 451.999023438 202.09765625 440.83203125 174.274414062 418.499023438 c 0
 146.451171875 396.166015625 126.153320312 357.333007812 113.37890625 302 c 2
 91.21484375 206 l 2
 78.2861328125 150 80.5771484375 110.833007812 98.087890625 88.5 c 0
 115.599609375 66.1669921875 144.021484375 55 183.354492188 55 c 0
 221.354492188 55 254.099609375 66.1669921875 281.587890625 88.5 c 0
EndSplineSet
EndChar

StartChar: p
Encoding: 112 112 82
Width: 510
GlyphClass: 2
Flags: MW
HStem: -152 21G<-43.4355 24.5645 -43.4355 -43.4355> -6 60.999<178.687 220.271> 451.998 61.001<295.425 326.01>
LayerCount: 2
Fore
SplineSet
108.706054688 507 m 1
 176.706054688 506.999023438 l 1
 160.314453125 435.999023438 l 1
 179.49609375 461.33203125 201.920898438 480.499023438 227.58984375 493.499023438 c 0
 253.2578125 506.499023438 280.758789062 512.999023438 310.091796875 512.999023438 c 0
 362.091796875 512.999023438 400.576171875 496.33203125 425.547851562 462.999023438 c 0
 450.51953125 429.666015625 454.770507812 377.333007812 438.301757812 306 c 2
 414.291992188 202 l 2
 397.668945312 130 369.509765625 77.3330078125 329.814453125 44 c 0
 290.119140625 10.6669921875 245.271484375 -6 195.271484375 -6 c 0
 131.938476562 -6 91.888671875 18.3330078125 75.125 67 c 1
 24.564453125 -152 l 1
 -43.435546875 -152 l 1
 108.706054688 507 l 1
347.21484375 205.999023438 m 2
 369.1484375 300.998046875 l 2
 392.388671875 401.665039062 365.009765625 451.998046875 287.009765625 451.998046875 c 0
 246.342773438 451.998046875 212.404296875 437.831054688 185.196289062 409.498046875 c 0
 157.98828125 381.165039062 138.920898438 343.33203125 127.993164062 295.999023438 c 2
 107.446289062 206.999023438 l 2
 97.1337890625 162.33203125 99.5400390625 125.83203125 114.666015625 97.4990234375 c 0
 129.791992188 69.166015625 158.020507812 54.9990234375 199.353515625 54.9990234375 c 0
 274.686523438 54.9990234375 323.974609375 105.33203125 347.21484375 205.999023438 c 2
EndSplineSet
EndChar

StartChar: q
Encoding: 113 113 83
Width: 511
GlyphClass: 2
Flags: MW
HStem: -152 21G<248.564 317.564 248.564 248.564> -6 61<132.021 176.938> 452 61<244.092 284.758 244.092 285.342>
LayerCount: 2
Fore
SplineSet
299.125 67 m 1
 259.888671875 18.3330078125 208.604492188 -6 145.271484375 -6 c 0
 95.271484375 -6 58.119140625 10.6669921875 33.814453125 44 c 0
 9.509765625 77.3330078125 5.6689453125 130 22.2919921875 202 c 2
 46.3017578125 306 l 2
 62.7705078125 377.333984375 91.185546875 429.666992188 131.547851562 463 c 0
 171.911132812 496.333007812 218.091796875 513 270.091796875 513 c 0
 299.424804688 513 323.923828125 506.5 343.58984375 493.5 c 0
 363.255859375 480.5 376.830078125 461.333007812 384.314453125 436 c 1
 400.706054688 507 l 1
 469.706054688 507 l 1
 317.564453125 -152 l 1
 248.564453125 -152 l 1
 299.125 67 l 1
274.05078125 97 m 0
 301.84765625 125 320.98046875 161.666992188 331.446289062 207 c 2
 351.993164062 296 l 2
 362.920898438 343.333984375 361.322265625 381.166992188 347.197265625 409.5 c 0
 333.071289062 437.833007812 305.674804688 452 265.008789062 452 c 0
 187.67578125 452 137.388671875 401.666992188 114.147460938 301 c 2
 92.21484375 206 l 2
 68.974609375 105.333007812 94.6875 55 169.354492188 55 c 0
 211.354492188 55 246.252929688 69 274.05078125 97 c 0
EndSplineSet
EndChar

StartChar: r
Encoding: 114 114 84
Width: 337
GlyphClass: 2
Flags: MW
HStem: 0 21G<-8.34375 59.6562 -8.34375 -8.34375> 451 63<263.446 316.657>
LayerCount: 2
Fore
SplineSet
108.706054688 507 m 1
 175.708007812 507.000976562 l 1
 160.008789062 439.000976562 l 1
 179.857421875 464.334960938 202.705078125 483.16796875 228.552734375 495.5 c 0
 254.399414062 507.833007812 281.65625 514 310.323242188 514 c 0
 322.990234375 514 335.092773438 513 346.630859375 511 c 1
 330.931640625 443 l 1
 316.163085938 448.333007812 299.446289062 451 280.779296875 451 c 0
 246.112304688 451 215.174804688 439 187.966796875 415 c 0
 160.758789062 391 142.692382812 359.666992188 133.764648438 321 c 2
 59.65625 0 l 1
 -8.34375 0 l 1
 108.706054688 507 l 1
EndSplineSet
EndChar

StartChar: s
Encoding: 115 115 85
Width: 462
GlyphClass: 2
Flags: MW
HStem: -6 57.998<143.327 174.271> 457.999 56<240.321 273.393>
LayerCount: 2
Fore
SplineSet
21.505859375 34 m 0
 -5.6708984375 60.6669921875 -14.0283203125 96.6650390625 -3.5625 141.998046875 c 2
 -2.6396484375 145.998046875 l 1
 63.3603515625 145.998046875 l 1
 62.66796875 142.998046875 l 2
 56.2041015625 114.998046875 61.9189453125 92.8310546875 79.8154296875 76.498046875 c 0
 97.7119140625 60.1650390625 124.993164062 51.998046875 161.66015625 51.998046875 c 0
 199.66015625 51.998046875 231.262695312 59.6650390625 256.469726562 74.998046875 c 0
 281.676757812 90.3310546875 297.588867188 112.331054688 304.20703125 140.998046875 c 0
 310.055664062 166.331054688 306.865234375 184.998046875 294.635742188 196.998046875 c 0
 282.40625 208.998046875 260.317382812 217.998046875 228.369140625 223.998046875 c 2
 167.909179688 234.998046875 l 2
 120.577148438 243.665039062 87.962890625 258.33203125 70.0673828125 278.999023438 c 0
 52.171875 299.666015625 47.7646484375 329.666015625 56.845703125 368.999023438 c 0
 67.00390625 412.999023438 91.4560546875 448.166015625 130.202148438 474.499023438 c 0
 168.948242188 500.83203125 214.321289062 513.999023438 266.321289062 513.999023438 c 0
 322.321289062 513.999023438 364.025390625 501.166015625 391.432617188 475.499023438 c 0
 418.83984375 449.83203125 427.7734375 416.33203125 418.23046875 374.999023438 c 2
 416.845703125 368.999023438 l 1
 350.845703125 368.999023438 l 1
 351.538085938 371.999023438 l 2
 357.694335938 398.666015625 352.209960938 419.666015625 335.083007812 434.999023438 c 0
 317.956054688 450.33203125 291.392578125 457.999023438 255.392578125 457.999023438 c 0
 220.059570312 457.999023438 190.790039062 450.33203125 167.583007812 434.999023438 c 0
 144.375976562 419.666015625 129.694335938 398.666015625 123.538085938 371.999023438 c 0
 118.458984375 349.999023438 121.49609375 332.83203125 132.6484375 320.499023438 c 0
 143.80078125 308.166015625 164.094726562 299.333007812 193.530273438 294 c 2
 256.759765625 282 l 2
 304.60546875 272.666992188 337.936523438 257.5 356.755859375 236.5 c 0
 375.57421875 215.5 380.366210938 185 371.130859375 145 c 0
 360.049804688 97 334.135742188 59.8330078125 293.389648438 33.5 c 0
 252.642578125 7.1669921875 203.270507812 -6 145.270507812 -6 c 0
 89.9375 -6 48.6826171875 7.3330078125 21.505859375 34 c 0
EndSplineSet
EndChar

StartChar: t
Encoding: 116 116 86
Width: 340
GlyphClass: 2
Flags: MW
HStem: 0.000976562 60<133.324 217.51 177.51 203.657> 453 54<67.7061 134.239 55.2393 146.706 215.706 317.239>
VStem: 55.2393 274.467<453 507>
LayerCount: 2
Fore
SplineSet
203.239257812 453 m 1
 128.439453125 129.000976562 l 2
 117.819335938 83.0009765625 134.176757812 60.0009765625 177.509765625 60.0009765625 c 2
 217.509765625 60.0009765625 l 1
 203.657226562 0.0009765625 l 1
 152.657226562 0.0009765625 l 2
 113.990234375 0.0009765625 86.4013671875 11.16796875 69.890625 33.5009765625 c 0
 53.3798828125 55.833984375 49.6650390625 86.6669921875 58.74609375 126 c 2
 134.239257812 453 l 1
 55.2392578125 453 l 1
 67.7060546875 507 l 1
 146.706054688 507 l 1
 173.487304688 623 l 1
 249.875 655 l 1
 215.706054688 507 l 1
 329.706054688 507 l 1
 317.239257812 453 l 1
 203.239257812 453 l 1
EndSplineSet
EndChar

StartChar: u
Encoding: 117 117 87
Width: 522
GlyphClass: 2
Flags: MW
HStem: -6 61<169.021 206.605> 487 20G<108.706 176.706 176.706 176.706 412.706 480.706 480.706 480.706>
LayerCount: 2
Fore
SplineSet
48.19921875 43.5 m 0
 24.8173828125 76.5 20.2841796875 124 34.59765625 186 c 2
 108.706054688 507 l 1
 176.706054688 507 l 1
 104.67578125 195 l 2
 93.9013671875 148.333007812 94.8212890625 113.333007812 107.434570312 90 c 0
 120.047851562 66.6669921875 147.6875 55 190.354492188 55 c 0
 233.021484375 55 265.970703125 66.3330078125 289.204101562 89 c 0
 312.436523438 111.666992188 329.59375 147 340.67578125 195 c 2
 412.706054688 507 l 1
 480.706054688 507 l 1
 406.59765625 186 l 2
 392.284179688 124 365.817382812 76.5 327.19921875 43.5 c 0
 288.580078125 10.5 237.938476562 -6 175.271484375 -6 c 0
 113.938476562 -6 71.580078125 10.5 48.19921875 43.5 c 0
EndSplineSet
EndChar

StartChar: v
Encoding: 118 118 88
Width: 439
GlyphClass: 2
Flags: MW
HStem: 0 21G<105.656 166.656 105.656 105.656> 487 20G<47.7061 121.706 121.706 121.706 385.706 458.706 458.706 458.706>
LayerCount: 2
Fore
SplineSet
47.7060546875 507 m 1
 121.706054688 507 l 1
 159.743164062 100 l 1
 385.706054688 507 l 1
 458.706054688 507 l 1
 166.65625 0 l 1
 105.65625 0 l 1
 47.7060546875 507 l 1
EndSplineSet
EndChar

StartChar: w
Encoding: 119 119 89
Width: 714
GlyphClass: 2
Flags: MW
HStem: 0 21G<84.6562 145.656 84.6562 84.6562 400.656 462.656 400.656 400.656> 487 20G<47.7061 121.706 121.706 121.706 361.706 418.706 418.706 418.706 659.706 733.706 733.706 733.706>
VStem: 47.7061 74<507 507>
LayerCount: 2
Fore
SplineSet
47.7060546875 507 m 1
 121.706054688 507 l 1
 141.973632812 101 l 1
 361.706054688 507 l 1
 418.706054688 507 l 1
 450.973632812 101 l 1
 659.706054688 507 l 1
 733.706054688 507 l 1
 462.65625 0 l 1
 400.65625 0 l 1
 367.081054688 409 l 1
 145.65625 0 l 1
 84.65625 0 l 1
 47.7060546875 507 l 1
EndSplineSet
EndChar

StartChar: x
Encoding: 120 120 90
Width: 421
GlyphClass: 2
Flags: MW
HStem: 0 21G<-69.3438 3.65625 -69.3438 -69.3438 250.656 323.656 250.656 250.656> 487 20G<57.7061 130.706 130.706 130.706 357.706 430.706 430.706 430.706>
LayerCount: 2
Fore
SplineSet
250.65625 0 m 1
 173.522460938 203 l 1
 3.65625 0 l 1
 -69.34375 0 l 1
 150.913085938 261 l 1
 57.7060546875 507 l 1
 130.706054688 507 l 1
 202.303710938 319 l 1
 357.706054688 507 l 1
 430.706054688 507 l 1
 222.836914062 265 l 1
 323.65625 0 l 1
 250.65625 0 l 1
EndSplineSet
EndChar

StartChar: y
Encoding: 121 121 91
Width: 439
GlyphClass: 2
Flags: MW
HStem: -152 62<-37.1221 -21.4355 -51.4355 -12.1221> 487 20G<47.7061 121.706 121.706 121.706 387.706 458.706 458.706 458.706>
LayerCount: 2
Fore
SplineSet
458.706054688 507 m 1
 133.958984375 -55 l 2
 114.109375 -89 91.9140625 -113.666992188 67.3740234375 -129 c 0
 42.833984375 -144.333007812 13.2314453125 -152 -21.435546875 -152 c 2
 -51.435546875 -152 l 1
 -37.1220703125 -90 l 1
 -12.1220703125 -90 l 2
 12.544921875 -90 32.19921875 -85 46.8408203125 -75 c 0
 61.4833984375 -65 75.4208984375 -48.6669921875 88.6533203125 -26 c 2
 105.810546875 5 l 1
 47.7060546875 507 l 1
 121.706054688 507 l 1
 161.666992188 104 l 1
 387.706054688 507 l 1
 458.706054688 507 l 1
EndSplineSet
EndChar

StartChar: z
Encoding: 122 122 92
Width: 456
GlyphClass: 2
Flags: MW
HStem: 0 63<-9.79883 -9.79883 66.2012 313.656 -24.3438 -9.79883> 444 63<92.7061 338.162 78.1621 430.706 416.162 416.162>
LayerCount: 2
Fore
SplineSet
416.162109375 444 m 1
 66.201171875 63 l 1
 328.201171875 63 l 1
 313.65625 0 l 1
 -24.34375 0 l 1
 -9.798828125 63 l 1
 338.162109375 444 l 1
 78.162109375 444 l 1
 92.7060546875 507 l 1
 430.706054688 507 l 1
 416.162109375 444 l 1
EndSplineSet
EndChar

StartChar: braceleft
Encoding: 123 123 93
Width: 340
GlyphClass: 2
Flags: MW
HStem: -84 61<111.264 192.347 157.347 178.264> 298 65<44.4551 59.4619> 679 61<318.499 319.416 319.416 354.416>
VStem: 44.4551 324.044
LayerCount: 2
Fore
SplineSet
57.9970703125 -57 m 0
 45.15234375 -39 43.0400390625 -11.3330078125 51.6591796875 26 c 2
 95.7548828125 217 l 2
 102.373046875 245.666992188 101.772460938 266.166992188 93.953125 278.5 c 0
 86.1337890625 290.833007812 69.6337890625 297.333007812 44.455078125 298 c 1
 59.4619140625 363 l 1
 84.9482421875 363.666992188 104.44921875 370.166992188 117.963867188 382.5 c 0
 131.477539062 394.833007812 141.543945312 415.333007812 148.162109375 444 c 2
 191.103515625 630 l 2
 199.72265625 667.333007812 214.609375 695 235.765625 713 c 0
 256.920898438 731 284.499023438 740 318.499023438 740 c 2
 368.499023438 740 l 1
 354.416015625 679 l 1
 319.416015625 679 l 2
 303.416015625 679 290.825195312 675 281.645507812 667 c 0
 272.465820312 659 265.796875 646 261.641601562 628 c 2
 220.31640625 449 l 2
 211.697265625 411.666992188 200.924804688 384.5 188 367.5 c 0
 175.075195312 350.5 156.689453125 338 132.842773438 330 c 1
 153.663085938 322 166.444335938 309.5 171.185546875 292.5 c 0
 175.927734375 275.5 174.065429688 248.666992188 165.600585938 212 c 2
 123.12109375 28 l 2
 118.96484375 10 119.630859375 -3 125.1171875 -11 c 0
 130.602539062 -19 141.346679688 -23 157.346679688 -23 c 2
 192.346679688 -23 l 1
 178.263671875 -84 l 1
 128.263671875 -84 l 2
 94.263671875 -84 70.8408203125 -75 57.9970703125 -57 c 0
EndSplineSet
Substitution2: "'rtla' Right to Left Alternates lookup 0 subtable" braceright
EndChar

StartChar: bar
Encoding: 124 124 94
Width: 303
GlyphClass: 2
Flags: MW
VStem: 15.4941 257.005
LayerCount: 2
Fore
SplineSet
205.499023438 740 m 1
 272.499023438 740 l 1
 82.494140625 -83 l 1
 15.494140625 -83 l 1
 205.499023438 740 l 1
EndSplineSet
EndChar

StartChar: braceright
Encoding: 125 125 95
Width: 340
GlyphClass: 2
Flags: MW
HStem: -84 61<-29.6533 5.34668 5.34668 6.26367 -43.7363 5.34668> 298 65<266.455 281.462> 679 61<146.499 167.416 132.416 196.499>
VStem: -43.7363 325.198
LayerCount: 2
Fore
SplineSet
-29.6533203125 -23 m 1
 5.3466796875 -23 l 2
 21.3466796875 -23 33.9365234375 -19 43.1171875 -11 c 0
 52.296875 -3 58.96484375 10 63.12109375 28 c 2
 105.600585938 212 l 2
 114.065429688 248.666992188 124.59375 275.5 137.185546875 292.5 c 0
 149.77734375 309.5 168.330078125 322 192.842773438 330 c 1
 172.689453125 338 160.075195312 350.5 155 367.5 c 0
 149.924804688 384.5 151.697265625 411.666992188 160.31640625 449 c 2
 201.641601562 628 l 2
 205.796875 646 205.131835938 659 199.645507812 667 c 0
 194.159179688 675 183.416015625 679 167.416015625 679 c 2
 132.416015625 679 l 1
 146.499023438 740 l 1
 196.499023438 740 l 2
 230.499023438 740 253.920898438 731 266.765625 713 c 0
 279.609375 695 281.72265625 667.333007812 273.103515625 630 c 2
 230.162109375 444 l 2
 223.543945312 415.333007812 224.143554688 394.833007812 231.963867188 382.5 c 0
 239.783203125 370.166992188 256.282226562 363.666992188 281.461914062 363 c 1
 266.455078125 298 l 1
 240.967773438 297.333007812 221.467773438 290.833007812 207.953125 278.5 c 0
 194.438476562 266.166992188 184.373046875 245.666992188 177.754882812 217 c 2
 133.659179688 26 l 2
 125.040039062 -11.3330078125 110.15234375 -39 88.9970703125 -57 c 0
 67.8408203125 -75 40.263671875 -84 6.263671875 -84 c 2
 -43.736328125 -84 l 1
 -29.6533203125 -23 l 1
EndSplineSet
Substitution2: "'rtla' Right to Left Alternates lookup 0 subtable" braceleft
EndChar

StartChar: asciitilde
Encoding: 126 126 96
Width: 512
GlyphClass: 2
Flags: MW
HStem: 212 64<311.708 314.934> 276 63<155.586 159.042>
LayerCount: 2
Fore
SplineSet
257.678710938 221 m 0x80
 245.063476562 227 231.396484375 235.666992188 216.6796875 247 c 0
 203.655273438 257 192.681640625 264.333007812 183.758789062 269 c 0
 174.8359375 273.666992188 164.708007812 276 153.375 276 c 0
 137.375 276 122.875 271.666992188 109.874023438 263 c 0
 96.873046875 254.333007812 81.0888671875 238.666015625 62.5224609375 215.999023438 c 1
 20.44921875 245.999023438 l 1
 41.5283203125 276.666015625 64.876953125 299.833007812 90.494140625 315.5 c 0
 116.111328125 331.166992188 142.252929688 339 168.919921875 339 c 0x40
 185.586914062 339 199.89453125 336 211.841796875 330 c 0
 223.790039062 324 237.7890625 315.333007812 253.838867188 304 c 0
 267.684570312 294.666992188 278.901367188 287.666992188 287.491210938 283 c 0
 296.081054688 278.333007812 306.041992188 276 317.375 276 c 0
 333.375 276 348.247070312 280.5 361.9921875 289.5 c 0
 375.736328125 298.5 391.482421875 314 409.228515625 336 c 1
 451.071289062 305 l 1
 429.478515625 275 405.834960938 252 380.141601562 236 c 0
 354.447265625 220 328.267578125 212 301.600585938 212 c 0
 284.93359375 212 270.29296875 215 257.678710938 221 c 0x80
EndSplineSet
EndChar

StartChar: exclamdown
Encoding: 161 161 98
Width: 239
GlyphClass: 2
Flags: MW
HStem: -152 21G<-40.4355 43.5645 -40.4355 -40.4355> 413 94<108.706 177.005 87.0049 198.706>
VStem: 80.4561 56<311 311>
LayerCount: 2
Fore
SplineSet
108.706054688 507 m 1
 198.706054688 507 l 1
 177.004882812 413 l 1
 87.0048828125 413 l 1
 108.706054688 507 l 1
80.4560546875 311 m 1
 136.456054688 311 l 1
 43.564453125 -152 l 1
 -40.435546875 -152 l 1
 80.4560546875 311 l 1
EndSplineSet
EndChar

StartChar: cent
Encoding: 162 162 99
Width: 503
GlyphClass: 2
Flags: MW
HStem: -5 61.001<190.502 204.585> 451.001 61.999<295.778 310.092>
LayerCount: 2
Fore
SplineSet
373.151367188 340 m 1
 374.305664062 345.000976562 l 2
 381.540039062 376.334960938 378.2734375 401.16796875 364.505859375 419.500976562 c 0
 350.73828125 437.833984375 327.829101562 448.333984375 295.778320312 451.000976562 c 1
 204.584960938 56.0009765625 l 1
 237.201171875 58.66796875 264.791992188 69.16796875 287.357421875 87.5009765625 c 0
 309.922851562 105.833984375 324.823242188 130.666992188 332.056640625 162 c 2
 333.2109375 167 l 1
 399.2109375 167 l 1
 398.288085938 163 l 2
 387.051757812 114.333007812 362.765625 74.8330078125 325.4296875 44.5 c 0
 288.09375 14.1669921875 243.118164062 -2.3330078125 190.501953125 -5 c 1
 168.569335938 -100 l 1
 110.569335938 -100 l 1
 132.963867188 -3 l 1
 85.8359375 3.6669921875 51.9150390625 23.5 31.2001953125 56.5 c 0
 10.486328125 89.5 7.5166015625 138 22.2919921875 202 c 2
 46.3017578125 306 l 2
 61.0771484375 370 86.3134765625 418.666992188 122.008789062 452 c 0
 157.704101562 485.333007812 200.98828125 505.333007812 251.861328125 512 c 1
 273.79296875 607 l 1
 331.79296875 607 l 1
 310.091796875 513 l 1
 361.475585938 510.333007812 398.833984375 493.833007812 422.1640625 463.5 c 0
 445.494140625 433.166992188 451.541992188 393.666992188 440.305664062 345 c 2
 439.151367188 340 l 1
 373.151367188 340 l 1
90.8203125 102.500976562 m 0
 101.177734375 79.5009765625 119.997070312 65.001953125 147.279296875 59.001953125 c 1
 237.086914062 448.001953125 l 1
 206.879882812 441.333984375 181.327148438 426.666992188 160.427734375 404.000976562 c 0
 139.52734375 381.333984375 123.844726562 347.333984375 113.37890625 302.000976562 c 2
 91.2158203125 206.000976562 l 2
 80.595703125 160.000976562 80.4638671875 125.500976562 90.8203125 102.500976562 c 0
EndSplineSet
EndChar

StartChar: sterling
Encoding: 163 163 100
Width: 436
GlyphClass: 2
Flags: MW
HStem: 0.000976562 67.999<72.3555 319.656> 290 66<171.846 295.608 156.608 310.846> 632.001 68<305.598 324.565>
VStem: 370.172 72<548.001 548.001>
LayerCount: 2
Fore
SplineSet
335.35546875 68 m 1
 319.65625 0.0009765625 l 1
 -29.34375 0.0009765625 l 1
 -15.029296875 62.0009765625 l 1
 3.279296875 72.0009765625 17.7802734375 85.0009765625 28.474609375 101.000976562 c 0
 39.16796875 117.000976562 47.59375 138.333984375 53.75 165.000976562 c 2
 82.6083984375 290.000976562 l 1
 16.6083984375 290.000976562 l 1
 31.845703125 356.000976562 l 1
 97.845703125 356.000976562 l 1
 137.5546875 528.000976562 l 2
 150.021484375 582.000976562 173.256835938 624.16796875 207.259765625 654.500976562 c 0
 241.262695312 684.833984375 281.931640625 700.000976562 329.264648438 700.000976562 c 0
 373.931640625 700.000976562 406.647460938 686.500976562 427.4140625 659.500976562 c 0
 448.180664062 632.500976562 453.099609375 595.333984375 442.171875 548.000976562 c 1
 370.171875 548.000976562 l 1
 376.174804688 574.000976562 374.075195312 594.500976562 363.87109375 609.500976562 c 0
 353.666992188 624.500976562 336.565429688 632.000976562 312.565429688 632.000976562 c 0
 287.8984375 632.000976562 267.08984375 624.16796875 250.139648438 608.500976562 c 0
 233.189453125 592.833984375 221.174804688 569.666992188 214.094726562 539 c 2
 171.845703125 356 l 1
 310.845703125 356 l 1
 295.608398438 290 l 1
 156.608398438 290 l 1
 129.827148438 174 l 2
 124.286132812 150 116.88671875 129.5 107.62890625 112.5 c 0
 98.3701171875 95.5 86.61328125 80.6669921875 72.35546875 68 c 1
 335.35546875 68 l 1
EndSplineSet
EndChar

StartChar: currency
Encoding: 164 164 101
Width: 613
GlyphClass: 2
Flags: MW
HStem: 130 61<247.75 274> 463 61<321.963 348.546>
LayerCount: 2
Fore
SplineSet
374.98046875 166 m 1
 336.106445312 142 295.333984375 130 252.666992188 130 c 0
 209.333984375 130 173.771484375 142 145.979492188 166 c 1
 59.818359375 96 l 1
 24.900390625 144 l 1
 109.830078125 213 l 1
 94.3466796875 247 91.453125 285 101.149414062 327 c 0
 111.153320312 370.333007812 131.926757812 408.333007812 163.467773438 441 c 1
 109.860351562 512 l 1
 166.7109375 559 l 1
 221.549804688 489 l 1
 259.603515625 512.333007812 300.296875 524 343.629882812 524 c 0
 386.296875 524 421.270507812 512.333007812 448.55078125 489 c 1
 535.711914062 559 l 1
 571.861328125 512 l 1
 485.700195312 442 l 1
 501.696289062 407.333007812 504.846679688 369 495.150390625 327 c 0
 485.299804688 284.333007812 464.526367188 246.333007812 432.831054688 213 c 1
 487.670898438 143 l 1
 429.588867188 95 l 1
 374.98046875 166 l 1
370.75390625 230 m 0
 402.08984375 256 422.221679688 288.333007812 431.1484375 327 c 0
 440.075195312 365.666992188 434.873046875 398 415.54296875 424 c 0
 396.211914062 450 367.545898438 463 329.545898438 463 c 0
 291.545898438 463 256.877929688 450 225.54296875 424 c 0
 194.20703125 398 174.075195312 365.666992188 165.1484375 327 c 0
 156.221679688 288.333007812 161.423828125 256 180.75390625 230 c 0
 200.084960938 204 228.75 191 266.75 191 c 0
 304.75 191 339.418945312 204 370.75390625 230 c 0
EndSplineSet
EndChar

StartChar: yen
Encoding: 165 165 102
Width: 454
GlyphClass: 2
Flags: MW
HStem: 0 21G<107.656 180.656 107.656 107.656> 155 56<14.3691 143.441 1.44141 156.369 229.369 357.441> 278 57<42.9971 165.997 42.9971 171.838 29.8379 165.997 276.997 385.838> 670 20G<85.9551 167.955 167.955 167.955 438.955 519.955 519.955 519.955>
VStem: 85.9551 82<690 690>
LayerCount: 2
Fore
SplineSet
143.44140625 155 m 1
 1.44140625 155 l 1
 14.369140625 211 l 1
 156.369140625 211 l 1
 171.837890625 278 l 1
 29.837890625 278 l 1
 42.9970703125 335 l 1
 165.997070312 335 l 1
 85.955078125 690 l 1
 167.955078125 690 l 1
 228.922851562 365 l 1
 438.955078125 690 l 1
 519.955078125 690 l 1
 276.997070312 335 l 1
 398.997070312 335 l 1
 385.837890625 278 l 1
 244.837890625 278 l 1
 229.369140625 211 l 1
 370.369140625 211 l 1
 357.44140625 155 l 1
 216.44140625 155 l 1
 180.65625 0 l 1
 107.65625 0 l 1
 143.44140625 155 l 1
EndSplineSet
EndChar

StartChar: brokenbar
Encoding: 166 166 103
Width: 303
GlyphClass: 2
Flags: MW
VStem: 15.4941 257.005
LayerCount: 2
Fore
SplineSet
205.499023438 740 m 1
 272.499023438 740 l 1
 191.233398438 388 l 1
 124.233398438 388 l 1
 205.499023438 740 l 1
97.2216796875 271 m 1
 164.221679688 271 l 1
 82.494140625 -83 l 1
 15.494140625 -83 l 1
 97.2216796875 271 l 1
EndSplineSet
EndChar

StartChar: section
Encoding: 167 167 104
Width: 511
GlyphClass: 2
Flags: MW
HStem: -168 64<130.643 155.87> -24 20G<8.72852 77.7285 77.7285 77.7285> 650.002 64<316.163 354.053>
VStem: 8.72852 69<-4 -4> 389.249 69<557.002 557.002>
LayerCount: 2
Fore
SplineSet
21.451171875 -126.5 m 0
 0.505859375 -98.8330078125 -3.73828125 -58 8.728515625 -4 c 1
 77.728515625 -4 l 1
 69.7255859375 -38.6669921875 71.5439453125 -64 83.1826171875 -80 c 0
 94.822265625 -96 115.642578125 -104 145.642578125 -104 c 0
 174.309570312 -104 198.24609375 -96.3330078125 217.453125 -81 c 0
 236.66015625 -65.6669921875 249.495117188 -44 255.959960938 -16 c 0
 263.040039062 14.6669921875 259.170898438 38.333984375 244.3515625 55.0009765625 c 0
 229.532226562 71.66796875 200.354492188 85.3349609375 156.817382812 96.001953125 c 0
 111.947265625 106.668945312 81.80859375 127.001953125 66.4013671875 157.001953125 c 0
 50.994140625 187.001953125 48.908203125 226.334960938 60.1435546875 275.001953125 c 0
 69.0703125 313.668945312 85.3046875 347.168945312 108.845703125 375.501953125 c 0
 132.387695312 403.8359375 161.798828125 423.668945312 197.08203125 435.001953125 c 1
 172.314453125 449.001953125 156.31640625 466.334960938 149.087890625 487.001953125 c 0
 141.859375 507.668945312 141.938476562 534.001953125 149.326171875 566.001953125 c 0
 159.330078125 609.334960938 181.859375 644.834960938 216.9140625 672.501953125 c 0
 251.967773438 700.168945312 292.829101562 714.001953125 339.49609375 714.001953125 c 0
 391.49609375 714.001953125 427.096679688 700.001953125 446.298828125 672.001953125 c 0
 465.501953125 644.001953125 469.485351562 605.668945312 458.249023438 557.001953125 c 1
 389.249023438 557.001953125 l 1
 403.563476562 619.001953125 382.38671875 650.001953125 325.719726562 650.001953125 c 0
 299.052734375 650.001953125 276.52734375 642.668945312 258.140625 628.001953125 c 0
 239.754882812 613.334960938 227.483398438 592.66796875 221.327148438 566.000976562 c 0
 214.401367188 536.000976562 217.846679688 512.66796875 231.666015625 496.000976562 c 0
 245.485351562 479.333007812 273.497070312 465.666015625 315.701171875 455 c 0
 360.571289062 444.333007812 390.544921875 424 405.618164062 394 c 0
 420.692382812 364 422.534179688 324.333007812 411.145507812 275 c 0
 402.372070312 237 386.176757812 203.666992188 362.55859375 175 c 0
 338.940429688 146.333007812 310.643554688 127 277.66796875 117 c 1
 302.743164062 104.333007812 319.280273438 87.166015625 327.278320312 65.4990234375 c 0
 335.275390625 43.83203125 335.349609375 15.9990234375 327.500976562 -18.0009765625 c 0
 317.034179688 -63.333984375 293.813476562 -99.6669921875 257.8359375 -127 c 0
 221.858398438 -154.333007812 179.870117188 -168 131.870117188 -168 c 0
 79.203125 -168 42.3974609375 -154.166992188 21.451171875 -126.5 c 0
291.90234375 189.5 m 0
 314.9296875 209.833007812 330.67578125 238.33203125 339.140625 274.999023438 c 0
 347.759765625 312.333007812 345.416992188 341.166015625 332.111328125 361.499023438 c 0
 318.805664062 381.83203125 295.819335938 391.999023438 263.15234375 391.999023438 c 0
 230.485351562 391.999023438 202.638671875 381.83203125 179.611328125 361.499023438 c 0
 156.583984375 341.166015625 140.759765625 312.333007812 132.141601562 275 c 0
 123.67578125 238.333007812 126.4296875 209.833007812 140.40234375 189.5 c 0
 154.375 169.166992188 177.360351562 159 209.360351562 159 c 0
 241.360351562 159 268.875 169.166992188 291.90234375 189.5 c 0
316.875976562 706.999023438 m 1024
EndSplineSet
EndChar

StartChar: dieresis
Encoding: 168 168 105
Width: 500
GlyphClass: 2
Flags: MW
HStem: 578 86<195.953 252.099 176.099 271.953 195.953 347.099 366.953 423.099>
VStem: 176.099 266.854<578 664>
LayerCount: 2
Fore
SplineSet
195.953125 664 m 1
 271.953125 664 l 1
 252.098632812 578 l 1
 176.098632812 578 l 1
 195.953125 664 l 1
366.953125 664 m 1
 442.953125 664 l 1
 423.098632812 578 l 1
 347.098632812 578 l 1
 366.953125 664 l 1
EndSplineSet
EndChar

StartChar: copyright
Encoding: 169 169 106
Width: 821
GlyphClass: 2
Flags: MW
HStem: -10 52.999<307.917 358.014> 147.999 48.001<362.573 386.158> 487.999 49<431.965 458.652> 637.001 52.998<452.289 502.385>
LayerCount: 2
Fore
SplineSet
155.62109375 34.5 m 0
 110.470703125 64.1669921875 79.5126953125 105.499023438 62.7490234375 158.499023438 c 0
 45.984375 211.499023438 45.4521484375 271.999023438 61.1513671875 339.999023438 c 0
 76.8505859375 407.999023438 105.318359375 468.499023438 146.553710938 521.499023438 c 0
 187.790039062 574.499023438 237.83203125 615.83203125 296.681640625 645.499023438 c 0
 355.530273438 675.166015625 418.622070312 689.999023438 485.955078125 689.999023438 c 0
 553.288085938 689.999023438 609.696289062 675.166015625 655.180664062 645.499023438 c 0
 700.6640625 615.83203125 731.7890625 574.499023438 748.552734375 521.499023438 c 0
 765.317382812 468.499023438 765.849609375 407.999023438 750.150390625 339.999023438 c 0
 734.451171875 271.999023438 705.9453125 211.33203125 664.6328125 157.999023438 c 0
 623.319335938 104.666015625 573.110351562 63.3330078125 514.004882812 34 c 0
 454.899414062 4.6669921875 391.680664062 -10 324.34765625 -10 c 0
 257.014648438 -10 200.772460938 4.8330078125 155.62109375 34.5 c 0
496.625976562 79.9990234375 m 0
 545.98828125 104.666015625 587.659179688 139.333007812 621.635742188 184 c 0
 655.615234375 228.666992188 679.453125 280.666992188 693.151367188 340 c 0
 706.849609375 399.333007812 707.021484375 451.333007812 693.666992188 496 c 0
 680.3125 540.66796875 654.6484375 575.334960938 616.676757812 600.000976562 c 0
 578.704101562 624.66796875 531.051757812 637.000976562 473.71875 637.000976562 c 0
 416.385742188 637.000976562 363.205078125 624.66796875 314.177734375 600.000976562 c 0
 265.149414062 575.333984375 223.646484375 540.666992188 189.666992188 496 c 0
 155.6875 451.333007812 131.849609375 399.333007812 118.151367188 340 c 0
 104.453125 280.666992188 104.28125 228.666992188 117.635742188 184 c 0
 130.991210938 139.333007812 156.487304688 104.666015625 194.125976562 79.9990234375 c 0
 231.764648438 55.33203125 279.25 42.9990234375 336.583007812 42.9990234375 c 0
 393.916992188 42.9990234375 447.264648438 55.33203125 496.625976562 79.9990234375 c 0
265.3671875 184.999023438 m 0
 244.39453125 209.666015625 240.217773438 249.331054688 252.838867188 303.998046875 c 2
 270.615234375 380.998046875 l 2
 283.236328125 435.665039062 305.727539062 475.33203125 338.088867188 499.999023438 c 0
 370.451171875 524.666015625 409.298828125 536.999023438 454.631835938 536.999023438 c 0
 497.96484375 536.999023438 529.514648438 525.666015625 549.282226562 502.999023438 c 0
 569.048828125 480.33203125 574.46875 449.665039062 565.541992188 410.999023438 c 2
 564.387695312 405.999023438 l 1
 512.387695312 405.999023438 l 1
 513.080078125 408.999023438 l 2
 518.928710938 434.33203125 515.763671875 453.83203125 503.5859375 467.499023438 c 0
 491.408203125 481.166015625 471.985351562 487.999023438 445.318359375 487.999023438 c 0
 414.651367188 487.999023438 389.099609375 479.83203125 368.662109375 463.499023438 c 0
 348.224609375 447.166015625 333.3125 418.666015625 323.922851562 377.999023438 c 2
 307.53125 306.999023438 l 2
 297.989257812 265.666015625 299.666015625 236.833007812 312.561523438 220.5 c 0
 325.458007812 204.166992188 347.239257812 196 377.90625 196 c 0
 404.573242188 196 427.189453125 203 445.754882812 217 c 0
 464.3203125 231 476.450195312 250.333007812 482.145507812 275 c 2
 483.068359375 279 l 1
 535.068359375 279 l 1
 533.9140625 274 l 2
 524.987304688 235.333007812 505.240234375 204.666015625 474.673828125 181.999023438 c 0
 444.108398438 159.33203125 407.491210938 147.999023438 364.82421875 147.999023438 c 0
 319.491210938 147.999023438 286.338867188 160.33203125 265.3671875 184.999023438 c 0
EndSplineSet
EndChar

StartChar: ordfeminine
Encoding: 170 170 107
Width: 330
GlyphClass: 2
Flags: MW
HStem: 426 53<159.576 161.006> 568 45<180.789 271.178 199.178 260.789> 699 49<228.678 244.032>
LayerCount: 2
Fore
SplineSet
329.112304688 721 m 0
 345.624023438 703 349.799804688 676.333007812 341.642578125 641 c 2
 292.9296875 430 l 1
 230.9296875 430 l 1
 238.086914062 461 l 1
 225.982421875 449 213.110351562 440.166992188 199.46875 434.5 c 0
 185.827148438 428.833007812 170.005859375 426 152.005859375 426 c 0
 119.338867188 426 96.134765625 434.5 82.392578125 451.5 c 0
 68.650390625 468.5 65.3193359375 492.333007812 72.3994140625 523 c 0
 78.86328125 551 93.4423828125 573 116.13671875 589 c 0
 138.831054688 605 166.510742188 613 199.177734375 613 c 2
 271.177734375 613 l 1
 278.334960938 644 l 2
 282.490234375 662 280.8125 675.666992188 273.299804688 685 c 0
 265.788085938 694.333007812 253.032226562 699 235.032226562 699 c 0
 217.69921875 699 203.442382812 695 192.262695312 687 c 0
 181.083007812 679 173.875976562 668 170.64453125 654 c 2
 170.182617188 652 l 1
 110.182617188 652 l 1
 110.64453125 654 l 2
 117.262695312 682.666992188 132.701171875 705.5 156.958984375 722.5 c 0
 181.216796875 739.5 211.01171875 748 246.344726562 748 c 0
 285.01171875 748 312.600585938 739 329.112304688 721 c 0
228.705078125 494 m 0
 241.014648438 504.001953125 249.5546875 519.334960938 254.325195312 540 c 2
 260.7890625 568 l 1
 198.7890625 568 l 2
 162.7890625 568 141.403320312 553.333007812 134.630859375 524 c 0
 127.705078125 494 141.909179688 479 177.2421875 479 c 0
 199.2421875 479 216.396484375 484 228.705078125 494 c 0
277.202148438 847 m 1024
EndSplineSet
EndChar

StartChar: guillemotleft
Encoding: 171 171 108
Width: 478
GlyphClass: 2
Flags: W
LayerCount: 2
Fore
SplineSet
2.60546875 264 m 1
 243.317382812 462 l 1
 224.155273438 379 l 1
 84.60546875 264 l 1
 171.055664062 149 l 1
 151.893554688 66 l 1
 2.60546875 264 l 1
185.60546875 264 m 1
 426.317382812 462 l 1
 407.155273438 379 l 1
 267.60546875 264 l 1
 354.055664062 149 l 1
 334.893554688 66 l 1
 185.60546875 264 l 1
EndSplineSet
EndChar

StartChar: logicalnot
Encoding: 172 172 109
Width: 512
GlyphClass: 2
Flags: MW
HStem: 264 62<47.9189 364.605 33.6055 447.919>
LayerCount: 2
Fore
SplineSet
364.60546875 264 m 1
 33.60546875 264 l 1
 47.9189453125 326 l 1
 447.918945312 326 l 1
 402.668945312 130 l 1
 333.668945312 130 l 1
 364.60546875 264 l 1
EndSplineSet
EndChar

StartChar: uni00AD
Encoding: 173 173 110
Width: 393
GlyphClass: 2
Flags: MW
HStem: 314 66<63.3867 323.149 48.1494 338.387>
VStem: 48.1494 290.237<314 380>
LayerCount: 2
Fore
SplineSet
63.38671875 380 m 1
 338.38671875 380 l 1
 323.149414062 314 l 1
 48.1494140625 314 l 1
 63.38671875 380 l 1
EndSplineSet
EndChar

StartChar: registered
Encoding: 174 174 111
Width: 537
GlyphClass: 2
Flags: MW
HStem: 306 31<240.125 273.302> 480 32<268.861 301.473 261.473 313.861> 574 32<283.175 328.175 283.175 283.175> 658 31<326.058 351.234>
LayerCount: 2
Fore
SplineSet
165.073242188 331 m 0
 140.254882812 347.666992188 123.064453125 370.666992188 113.50390625 400 c 0
 103.942382812 429.333007812 103.317382812 462 111.62890625 498 c 0
 119.940429688 534 135.610351562 566.5 158.638671875 595.5 c 0
 181.666992188 624.5 209.4375 647.333007812 241.953125 664 c 0
 274.467773438 680.666992188 308.391601562 689 343.724609375 689 c 0
 379.724609375 689 410.133789062 680.666992188 434.953125 664 c 0
 459.771484375 647.333007812 477.000976562 624.5 486.638671875 595.5 c 0
 496.276367188 566.5 496.940429688 534 488.62890625 498 c 0
 480.163085938 461.333007812 464.416015625 428.5 441.388671875 399.5 c 0
 418.360351562 370.5 390.588867188 347.666992188 358.073242188 331 c 0
 325.55859375 314.333007812 291.301757812 306 255.301757812 306 c 0
 219.96875 306 189.892578125 314.333007812 165.073242188 331 c 0
384.963867188 382.5 m 0
 421.299804688 412.833007812 444.854492188 451.333007812 455.62890625 498 c 0
 462.708984375 528.666992188 462.390625 556.166992188 454.67578125 580.5 c 0
 446.959960938 604.833007812 432.6796875 623.833007812 411.834960938 637.5 c 0
 390.990234375 651.166992188 365.900390625 658 336.567382812 658 c 0
 291.900390625 658 251.604492188 643 215.678710938 613 c 0
 179.752929688 583 156.40234375 544.666992188 145.62890625 498 c 0
 134.701171875 450.666992188 140.274414062 412 162.34765625 382 c 0
 184.421875 352 217.791992188 337 262.458984375 337 c 0
 307.79296875 337 348.627929688 352.166992188 384.963867188 382.5 c 0
254.5625 606 m 1
 336.5625 606 l 2
 358.5625 606 374.459960938 600.5 384.252929688 589.5 c 0
 394.046875 578.5 396.634765625 563 392.017578125 543 c 0
 388.631835938 528.333007812 382.451171875 516 373.475585938 506 c 0
 364.5 496 353.139648438 488.666992188 339.396484375 484 c 1
 362.15625 392 l 1
 323.15625 392 l 1
 301.47265625 480 l 1
 261.47265625 480 l 1
 241.15625 392 l 1
 205.15625 392 l 1
 254.5625 606 l 1
313.861328125 512 m 2
 337.861328125 512 352.24609375 522.333007812 357.017578125 543 c 0
 361.7890625 563.666992188 352.174804688 574 328.174804688 574 c 2
 283.174804688 574 l 1
 268.861328125 512 l 1
 313.861328125 512 l 2
EndSplineSet
EndChar

StartChar: macron
Encoding: 175 175 112
Width: 500
GlyphClass: 2
Flags: MW
HStem: 590 62<187.183 432.868 172.868 447.183>
VStem: 172.868 274.314<590 652>
LayerCount: 2
Fore
SplineSet
187.182617188 652 m 1
 447.182617188 652 l 1
 432.868164062 590 l 1
 172.868164062 590 l 1
 187.182617188 652 l 1
EndSplineSet
EndChar

StartChar: degree
Encoding: 176 176 113
Width: 411
GlyphClass: 2
Flags: MW
HStem: 420 49<217.934 239.288> 652 48<263.93 285.849>
LayerCount: 2
Fore
SplineSet
128.35546875 460 m 0
 108.1796875 486.666992188 102.708007812 520 111.942382812 560 c 0
 121.177734375 600 142.040039062 633.333007812 174.529296875 660 c 0
 207.018554688 686.666992188 243.596679688 700 284.263671875 700 c 0
 323.596679688 700 353.518554688 686.666992188 374.029296875 660 c 0
 394.540039062 633.333007812 400.177734375 600 390.942382812 560 c 0
 381.708007812 520 360.6796875 486.666992188 327.85546875 460 c 0
 295.032226562 433.333007812 258.954101562 420 219.62109375 420 c 0
 178.954101562 420 148.532226562 433.333007812 128.35546875 460 c 0
299.936523438 495 m 0
 320.604492188 512.333007812 333.940429688 534 339.942382812 560 c 0
 346.098632812 586.666992188 342.844726562 608.666992188 330.1796875 626 c 0
 317.514648438 643.333007812 298.515625 652 273.182617188 652 c 0
 247.182617188 652 223.848632812 643.333007812 203.1796875 626 c 0
 182.510742188 608.666992188 169.098632812 586.666992188 162.942382812 560 c 0
 156.940429688 534 160.270507812 512.333007812 172.936523438 495 c 0
 185.6015625 477.666992188 204.93359375 469 230.93359375 469 c 0
 256.266601562 469 279.267578125 477.666992188 299.936523438 495 c 0
EndSplineSet
EndChar

StartChar: plusminus
Encoding: 177 177 114
Width: 512
GlyphClass: 2
Flags: MW
HStem: -4 66<-12.0303 370.732 -27.2676 385.97> 279 66<53.3057 204.068 38.0684 219.306 53.3057 270.068 285.306 436.068> 491 20G<257.63 323.63 323.63 323.63>
LayerCount: 2
Fore
SplineSet
204.068359375 279 m 1
 38.068359375 279 l 1
 53.3056640625 345 l 1
 219.305664062 345 l 1
 257.629882812 511 l 1
 323.629882812 511 l 1
 285.305664062 345 l 1
 451.305664062 345 l 1
 436.068359375 279 l 1
 270.068359375 279 l 1
 231.744140625 113 l 1
 165.744140625 113 l 1
 204.068359375 279 l 1
-12.0302734375 62 m 1
 385.969726562 62 l 1
 370.732421875 -4 l 1
 -27.267578125 -4 l 1
 -12.0302734375 62 l 1
EndSplineSet
EndChar

StartChar: uni00B2
Encoding: 178 178 115
Width: 321
GlyphClass: 2
Flags: MW
HStem: 430 59<161.551 294.93> 798 56<256.817 267.556>
VStem: 60.9297 305.953
LayerCount: 2
Fore
SplineSet
72.9345703125 482 m 1
 255.337890625 670 l 2
 266.775390625 682 275.6484375 693 281.95703125 703 c 0
 288.265625 713 292.728515625 723.666992188 295.344726562 735 c 2
 297.19140625 743 l 2
 301.193359375 760.333007812 299.809570312 773.833007812 293.041992188 783.5 c 0
 286.2734375 793.166992188 275.22265625 798 259.889648438 798 c 0
 243.889648438 798 230.234375 793 218.92578125 783 c 0
 207.6171875 773 199.654296875 758 195.037109375 738 c 2
 192.497070312 727 l 1
 126.497070312 727 l 1
 129.9609375 742 l 2
 137.810546875 776 154.915039062 803.166992188 181.276367188 823.5 c 0
 207.637695312 843.833007812 238.817382812 854 274.817382812 854 c 0
 310.150390625 854 336.174804688 844 352.890625 824 c 0
 369.606445312 804 374.270507812 778 366.8828125 746 c 2
 364.34375 735 l 2
 360.1875 717 353.172851562 700.333007812 343.299804688 685 c 0
 333.426757812 669.6640625 319.822265625 653.331054688 302.48828125 636 c 2
 161.55078125 489 l 1
 308.55078125 489 l 1
 294.9296875 430 l 1
 60.9296875 430 l 1
 72.9345703125 482 l 1
EndSplineSet
EndChar

StartChar: uni00B3
Encoding: 179 179 116
Width: 319
GlyphClass: 2
Flags: MW
HStem: 424 55<173.576 188.546> 618 56<202.262 210.333 189.333 223.262> 797.999 56<252.151 262.889>
LayerCount: 2
Fore
SplineSet
91.1240234375 452.5 m 0
 74.84375 471.5 70.5517578125 497.666992188 78.2470703125 531 c 2
 80.787109375 542 l 1
 140.787109375 542 l 1
 138.478515625 532 l 2
 134.784179688 516 136.821289062 503.166992188 144.58984375 493.5 c 0
 152.358398438 483.833007812 164.909179688 479 182.2421875 479 c 0
 200.2421875 479 215.51171875 484.5 228.051757812 495.5 c 0
 240.590820312 506.5 249.092773438 521.666992188 253.555664062 541 c 2
 256.557617188 554 l 2
 261.020507812 573.333007812 259.099609375 588.833007812 250.79296875 600.5 c 0
 242.486328125 612.166992188 229 618 210.333007812 618 c 2
 189.333007812 618 l 1
 202.26171875 674 l 1
 223.26171875 674 l 2
 239.928710938 674 254.288085938 679.166992188 266.33984375 689.5 c 0
 278.392578125 699.833007812 286.418945312 713.666015625 290.420898438 730.999023438 c 2
 292.729492188 740.999023438 l 2
 296.884765625 758.999023438 295.6171875 772.999023438 288.92578125 782.999023438 c 0
 282.234375 792.999023438 270.888671875 797.999023438 254.888671875 797.999023438 c 0
 238.221679688 797.999023438 224.311523438 793.33203125 213.157226562 783.999023438 c 0
 202.001953125 774.666015625 194.578125 761.999023438 190.883789062 745.999023438 c 2
 188.575195312 735.999023438 l 1
 127.575195312 735.999023438 l 1
 130.114257812 746.999023438 l 2
 137.65625 779.666015625 153.9921875 805.666015625 179.122070312 824.999023438 c 0
 204.252929688 844.33203125 234.484375 853.999023438 269.817382812 853.999023438 c 0
 305.150390625 853.999023438 330.880859375 844.166015625 347.006835938 824.499023438 c 0
 363.133789062 804.83203125 367.502929688 778.999023438 360.114257812 746.999023438 c 2
 357.805664062 736.999023438 l 2
 353.188476562 716.999023438 344.51953125 699.666015625 331.80078125 684.999023438 c 0
 319.08203125 670.33203125 304.131835938 658.999023438 286.952148438 650.999023438 c 1
 303.2578125 643.661132812 314.411132812 631.328125 320.41015625 614 c 0
 326.408203125 596.6640625 326.713867188 576.331054688 321.327148438 553 c 2
 318.556640625 541 l 2
 310.553710938 506.333007812 292.883789062 478.166015625 265.548828125 456.5 c 0
 238.213867188 434.833007812 206.545898438 424 170.545898438 424 c 0
 133.87890625 424 107.404296875 433.5 91.1240234375 452.5 c 0
EndSplineSet
EndChar

StartChar: acute
Encoding: 180 180 117
Width: 500
GlyphClass: 2
Flags: MW
HStem: 572 125<217.713 429.571>
VStem: 217.713 211.858<572 697>
LayerCount: 2
Fore
SplineSet
345.571289062 697 m 1
 429.571289062 697 l 1
 280.712890625 572 l 1
 217.712890625 572 l 1
 345.571289062 697 l 1
EndSplineSet
EndChar

StartChar: uni00B5
Encoding: 181 181 118
Width: 515
GlyphClass: 2
Flags: MW
HStem: -152 21G<-43.4355 24.5645 -43.4355 -43.4355> -8 62<166.79 171.81> 0 21G<288.656 356.656 288.656 288.656> 487 20G<108.706 176.706 176.706 176.706 404.706 473.706 473.706 473.706>
LayerCount: 2
Fore
SplineSet
108.706054688 507 m 1xd0
 176.706054688 507 l 1
 100.750976562 178 l 2
 91.3623046875 137.333007812 94.244140625 106.5 109.395507812 85.5 c 0
 124.546875 64.5 149.456054688 54 184.123046875 54 c 0xd0
 217.456054688 54 247.624023438 64.8330078125 274.625976562 86.5 c 0
 301.62890625 108.166992188 319.669921875 138.666992188 328.750976562 178 c 2
 404.706054688 507 l 1
 473.706054688 507 l 1
 356.65625 0 l 1
 288.65625 0 l 1xb0
 302.508789062 60 l 1
 283.275390625 37.3330078125 261.350585938 20.3330078125 236.734375 9 c 0
 212.118164062 -2.3330078125 185.809570312 -8 157.809570312 -8 c 0
 115.142578125 -8 84.810546875 5 66.8134765625 31 c 1
 24.564453125 -152 l 1
 -43.435546875 -152 l 1
 108.706054688 507 l 1xd0
EndSplineSet
EndChar

StartChar: paragraph
Encoding: 182 182 119
Width: 613
GlyphClass: 2
Flags: MW
HStem: -152 21G<149.564 216.564 149.564 149.564 307.564 374.564 307.564 307.564> 625 65<395.949 486.949 395.949 395.949>
LayerCount: 2
Fore
SplineSet
247.452148438 272 m 1
 191.708984375 276 151.133789062 297.333007812 125.728515625 336 c 0
 100.322265625 374.666992188 94.3134765625 423 107.704101562 481 c 0
 116.78515625 520.333007812 133.48046875 555.833007812 157.791015625 587.5 c 0
 182.102539062 619.166992188 212.70703125 644.166992188 249.606445312 662.5 c 0
 286.505859375 680.833007812 327.622070312 690 372.955078125 690 c 2
 568.955078125 690 l 1
 374.564453125 -152 l 1
 307.564453125 -152 l 1
 486.94921875 625 l 1
 395.94921875 625 l 1
 216.564453125 -152 l 1
 149.564453125 -152 l 1
 247.452148438 272 l 1
EndSplineSet
EndChar

StartChar: periodcentered
Encoding: 183 183 120
Width: 194
GlyphClass: 2
Flags: MW
HStem: 223 92<42.3799 109.14 21.1396 130.38>
VStem: 21.1396 109.24<223 315>
LayerCount: 2
Fore
SplineSet
42.3798828125 315 m 1
 130.379882812 315 l 1
 109.139648438 223 l 1
 21.1396484375 223 l 1
 42.3798828125 315 l 1
EndSplineSet
EndChar

StartChar: cedilla
Encoding: 184 184 121
Width: 500
GlyphClass: 2
Flags: MW
HStem: -150 162<70.0264 231.427 70.0264 231.427>
VStem: 70.0264 161.4
LayerCount: 2
Fore
SplineSet
170.426757812 12 m 1
 231.426757812 12 l 1
 141.026367188 -150 l 1
 70.0263671875 -150 l 1
 170.426757812 12 l 1
EndSplineSet
EndChar

StartChar: uni00B9
Encoding: 185 185 122
Width: 222
GlyphClass: 2
Flags: MW
VStem: 108.65 171.552<719 847>
LayerCount: 2
Fore
SplineSet
194.348632812 774 m 1
 108.650390625 719 l 1
 125.734375 793 l 1
 211.202148438 847 l 1
 280.202148438 847 l 1
 183.9296875 430 l 1
 114.9296875 430 l 1
 194.348632812 774 l 1
EndSplineSet
EndChar

StartChar: ordmasculine
Encoding: 186 186 123
Width: 330
GlyphClass: 2
Flags: MW
HStem: 426 58<173.396 199.339> 690 58<235.012 260.955>
LayerCount: 2
Fore
SplineSet
96.3935546875 458 m 0
 79.3193359375 479.333984375 75.9375 512.333984375 86.25 557 c 2
 100.1015625 617 l 2
 110.4140625 661.666992188 129.033203125 694.666992188 155.958007812 716 c 0
 182.8828125 737.333007812 215.678710938 748 254.345703125 748 c 0
 293.012695312 748 320.8828125 737.333007812 337.958007812 716 c 0
 355.033203125 694.666992188 358.4140625 661.666992188 348.1015625 617 c 2
 334.25 557 l 2
 323.9375 512.333007812 305.319335938 479.333007812 278.393554688 458 c 0
 251.46875 436.666992188 218.672851562 426 180.005859375 426 c 0
 141.338867188 426 113.46875 436.666992188 96.3935546875 458 c 0
270.25 557 m 2
 284.1015625 617 l 2
 295.337890625 665.666992188 280.955078125 690 240.955078125 690 c 0
 200.955078125 690 175.337890625 665.666992188 164.1015625 617 c 2
 150.25 557 l 2
 139.014648438 508.333007812 153.396484375 484 193.396484375 484 c 0
 233.396484375 484 259.014648438 508.333007812 270.25 557 c 2
277.202148438 847 m 1024
EndSplineSet
EndChar

StartChar: guillemotright
Encoding: 187 187 124
Width: 478
GlyphClass: 2
Flags: W
LayerCount: 2
Fore
SplineSet
26.0556640625 149 m 1
 165.60546875 264 l 1
 79.1552734375 379 l 1
 98.3173828125 462 l 1
 247.60546875 264 l 1
 6.8935546875 66 l 1
 26.0556640625 149 l 1
208.055664062 149 m 1
 348.60546875 264 l 1
 261.155273438 379 l 1
 280.317382812 462 l 1
 430.60546875 264 l 1
 188.893554688 66 l 1
 208.055664062 149 l 1
EndSplineSet
EndChar

StartChar: onequarter
Encoding: 188 188 125
Width: 730
GlyphClass: 3
Flags: MW
HStem: 0 21G<8.65625 71.6562 8.65625 8.65625 507.656 576.656 507.656 507.656> 75 59<381.593 381.593 450.593 524.972 367.972 381.593 607.593 632.972> 670 20G<174.955 243.955 243.955 243.955 540.955 603.955 603.955 603.955>
LayerCount: 2
Fore
SplineSet
158.1015625 617 m 1
 72.404296875 562 l 1
 89.48828125 636 l 1
 174.955078125 690 l 1
 243.955078125 690 l 1
 147.68359375 273 l 1
 78.68359375 273 l 1
 158.1015625 617 l 1
632.971679688 75 m 1
 593.971679688 75 l 1
 576.65625 0 l 1
 507.65625 0 l 1
 524.971679688 75 l 1
 367.971679688 75 l 1
 381.592773438 134 l 1
 563.928710938 417 l 1
 631.928710938 417 l 1
 450.592773438 134 l 1
 538.592773438 134 l 1
 561.217773438 232 l 1
 630.217773438 232 l 1
 607.592773438 134 l 1
 646.592773438 134 l 1
 632.971679688 75 l 1
540.955078125 690 m 1
 603.955078125 690 l 1
 71.65625 0 l 1
 8.65625 0 l 1
 540.955078125 690 l 1
EndSplineSet
Ligature2: "'frac' Diagonal Fractions lookup 2 subtable" one slash four
EndChar

StartChar: onehalf
Encoding: 189 189 126
Width: 719
GlyphClass: 3
Flags: MW
HStem: 0 59<460.277 593.656> 368 56<555.546 566.284> 670 20G<174.955 243.955 243.955 243.955 540.956 603.956 603.956 603.956>
LayerCount: 2
Fore
SplineSet
158.1015625 617 m 1
 72.404296875 562 l 1
 89.48828125 636 l 1
 174.955078125 690 l 1
 243.955078125 690 l 1
 147.68359375 273 l 1
 78.68359375 273 l 1
 158.1015625 617 l 1
371.661132812 52 m 1
 554.065429688 240 l 2
 565.502929688 252 574.375976562 263 580.684570312 273 c 0
 586.993164062 283 591.456054688 293.666992188 594.072265625 305 c 2
 595.918945312 313 l 2
 599.920898438 330.333007812 598.537109375 343.833007812 591.76953125 353.5 c 0
 585.000976562 363.166992188 573.950195312 368 558.6171875 368 c 0
 542.6171875 368 528.962890625 363 517.653320312 353 c 0
 506.344726562 343 498.381835938 328 493.764648438 308 c 2
 491.225585938 297 l 1
 425.225585938 297 l 1
 428.688476562 312 l 2
 436.538085938 346 453.642578125 373.166992188 480.00390625 393.5 c 0
 506.365234375 413.833007812 537.545898438 424 573.545898438 424 c 0
 608.87890625 424 634.90234375 414 651.618164062 394 c 0
 668.333984375 374 672.998046875 348 665.610351562 316 c 2
 663.071289062 305 l 2
 658.916015625 287 651.900390625 270.333007812 642.02734375 255 c 0
 632.15234375 239.666015625 618.548828125 223.333007812 601.21484375 206 c 2
 460.27734375 59 l 1
 607.27734375 59 l 1
 593.65625 0 l 1
 359.65625 0 l 1
 371.661132812 52 l 1
540.956054688 690 m 1
 603.956054688 690 l 1
 71.6572265625 0 l 1
 8.6572265625 0 l 1
 540.956054688 690 l 1
EndSplineSet
Ligature2: "'frac' Diagonal Fractions lookup 2 subtable" one slash two
EndChar

StartChar: threequarters
Encoding: 190 190 127
Width: 827
GlyphClass: 3
Flags: MW
HStem: -0.000976562 21G<105.656 168.656 105.656 105.656 604.656 673.656 604.656 604.656> 74.999 59<478.593 478.593 547.593 621.972 464.972 478.593 704.593 729.972> 267 54.999<137.33 152.299> 460.999 56<166.015 174.086 153.086 187.015> 640.998 56<215.905 226.643>
LayerCount: 2
Fore
SplineSet
54.8779296875 295.5 m 0
 38.59765625 314.5 34.3056640625 340.666015625 42.0009765625 373.999023438 c 2
 44.5400390625 384.999023438 l 1
 104.540039062 384.999023438 l 1
 102.231445312 374.999023438 l 2
 98.5380859375 358.999023438 100.575195312 346.166015625 108.34375 336.499023438 c 0
 116.111328125 326.83203125 128.663085938 321.999023438 145.99609375 321.999023438 c 0
 163.99609375 321.999023438 179.265625 327.499023438 191.8046875 338.499023438 c 0
 204.344726562 349.499023438 212.845703125 364.666015625 217.309570312 383.999023438 c 2
 220.310546875 396.999023438 l 2
 224.774414062 416.33203125 222.852539062 431.83203125 214.545898438 443.499023438 c 0
 206.239257812 455.166015625 192.752929688 460.999023438 174.0859375 460.999023438 c 2
 153.0859375 460.999023438 l 1
 166.014648438 516.999023438 l 1
 187.014648438 516.999023438 l 2
 203.681640625 516.999023438 218.041992188 522.166015625 230.09375 532.499023438 c 0
 242.146484375 542.83203125 250.172851562 556.665039062 254.173828125 573.998046875 c 2
 256.483398438 583.998046875 l 2
 260.638671875 601.998046875 259.37109375 615.998046875 252.6796875 625.998046875 c 0
 245.98828125 635.998046875 234.642578125 640.998046875 218.642578125 640.998046875 c 0
 201.975585938 640.998046875 188.065429688 636.331054688 176.91015625 626.998046875 c 0
 165.755859375 617.665039062 158.331054688 604.998046875 154.637695312 588.998046875 c 2
 152.328125 578.998046875 l 1
 91.328125 578.998046875 l 1
 93.8681640625 589.998046875 l 2
 101.41015625 622.665039062 117.745117188 648.665039062 142.875976562 667.998046875 c 0
 168.005859375 687.331054688 198.23828125 696.998046875 233.571289062 696.998046875 c 0
 268.904296875 696.998046875 294.633789062 687.165039062 310.760742188 667.498046875 c 0
 326.88671875 647.831054688 331.255859375 621.998046875 323.868164062 589.998046875 c 2
 321.559570312 579.998046875 l 2
 316.942382812 559.998046875 308.2734375 542.665039062 295.5546875 527.998046875 c 0
 282.834960938 513.331054688 267.885742188 501.998046875 250.706054688 493.998046875 c 1
 267.012695312 486.665039062 278.165039062 474.33203125 284.1640625 456.999023438 c 0
 290.162109375 439.666015625 290.467773438 419.333007812 285.081054688 396 c 2
 282.310546875 384 l 2
 274.307617188 349.333007812 256.637695312 321.166015625 229.302734375 299.5 c 0
 201.966796875 277.833007812 170.298828125 267 134.298828125 267 c 0
 97.6318359375 267 71.158203125 276.5 54.8779296875 295.5 c 0
729.971679688 74.9990234375 m 1
 690.971679688 74.9990234375 l 1
 673.65625 -0.0009765625 l 1
 604.65625 -0.0009765625 l 1
 621.971679688 74.9990234375 l 1
 464.971679688 74.9990234375 l 1
 478.592773438 133.999023438 l 1
 660.927734375 416.999023438 l 1
 728.927734375 416.999023438 l 1
 547.592773438 133.999023438 l 1
 635.592773438 133.999023438 l 1
 658.217773438 231.999023438 l 1
 727.217773438 231.999023438 l 1
 704.592773438 133.999023438 l 1
 743.592773438 133.999023438 l 1
 729.971679688 74.9990234375 l 1
637.955078125 689.999023438 m 1
 700.955078125 689.999023438 l 1
 168.65625 -0.0009765625 l 1
 105.65625 -0.0009765625 l 1
 637.955078125 689.999023438 l 1
EndSplineSet
Ligature2: "'frac' Diagonal Fractions lookup 2 subtable" three slash four
EndChar

StartChar: questiondown
Encoding: 191 191 128
Width: 429
GlyphClass: 2
Flags: MW
HStem: -162 66<99.4912 125.922> 414 93<210.706 278.235 189.235 299.706>
VStem: 238.655 73<13 13>
LayerCount: 2
Fore
SplineSet
210.706054688 507 m 1
 299.706054688 507 l 1
 278.235351562 414 l 1
 189.235351562 414 l 1
 210.706054688 507 l 1
-16.6240234375 -116 m 0
 -40.5439453125 -85.3330078125 -46.7333984375 -44.9990234375 -35.1904296875 5.0009765625 c 0
 -29.4951171875 29.66796875 -20.1337890625 52.16796875 -7.1064453125 72.5009765625 c 0
 5.9208984375 92.833984375 26.255859375 116.666992188 53.8994140625 144 c 2
 114.751953125 204 l 2
 132.752929688 221.333007812 145.139648438 236 151.91015625 248 c 0
 158.6796875 260 164.451171875 276.333007812 169.22265625 297 c 2
 177.302734375 332 l 1
 250.302734375 332 l 1
 241.991210938 296 l 2
 235.989257812 270 228.268554688 248.833007812 218.831054688 232.5 c 0
 209.393554688 216.166992188 193.05859375 196.666992188 169.825195312 174 c 2
 109.435546875 116 l 2
 86.3564453125 94 69.802734375 75 59.775390625 59 c 0
 49.7490234375 43 42.42578125 25 37.80859375 5 c 0
 30.5751953125 -26.3330078125 33.712890625 -51 47.224609375 -69 c 0
 60.736328125 -87 83.4912109375 -96 115.491210938 -96 c 0
 179.491210938 -96 220.545898438 -59.6669921875 238.655273438 13 c 1
 311.655273438 13 l 1
 297.240234375 -43.6669921875 271.903320312 -87 235.643554688 -117 c 0
 199.384765625 -147 153.588867188 -162 98.255859375 -162 c 0
 45.5888671875 -162 7.2958984375 -146.666992188 -16.6240234375 -116 c 0
EndSplineSet
EndChar

StartChar: Agrave
Encoding: 192 192 129
Width: 577
GlyphClass: 2
Flags: MW
HStem: 0 21G<-76.3438 0.65625 -76.3438 -76.3438 409.656 409.656 409.656 486.656> 166 62<132.294 383.294 132.294 389.98 96.9805 383.294> 670 20G<333.955 394.955 394.955 394.955>
LayerCount: 2
Fore
SplineSet
389.98046875 166 m 1
 96.98046875 166 l 1
 0.65625 0 l 1
 -76.34375 0 l 1
 333.955078125 690 l 1
 394.955078125 690 l 1
 486.65625 0 l 1
 409.65625 0 l 1
 389.98046875 166 l 1
383.293945312 228 m 1
 340.407226562 588 l 1
 132.293945312 228 l 1
 383.293945312 228 l 1
282.8203125 880 m 1
 366.8203125 880 l 1
 436.961914062 755 l 1
 373.961914062 755 l 1
 282.8203125 880 l 1
EndSplineSet
EndChar

StartChar: Aacute
Encoding: 193 193 130
Width: 577
GlyphClass: 2
Flags: MW
HStem: 0 21G<-76.3438 0.65625 -76.3438 -76.3438 409.656 409.656 409.656 486.656> 166 62<132.294 383.294 132.294 389.98 96.9805 383.294> 670 20G<333.955 394.955 394.955 394.955>
LayerCount: 2
Fore
SplineSet
389.98046875 166 m 1
 96.98046875 166 l 1
 0.65625 0 l 1
 -76.34375 0 l 1
 333.955078125 690 l 1
 394.955078125 690 l 1
 486.65625 0 l 1
 409.65625 0 l 1
 389.98046875 166 l 1
383.293945312 228 m 1
 340.407226562 588 l 1
 132.293945312 228 l 1
 383.293945312 228 l 1
432.8203125 880 m 1
 516.8203125 880 l 1
 367.961914062 755 l 1
 304.961914062 755 l 1
 432.8203125 880 l 1
EndSplineSet
EndChar

StartChar: Acircumflex
Encoding: 194 194 131
Width: 577
GlyphClass: 2
Flags: MW
HStem: 0 21G<-76.3438 0.65625 -76.3438 -76.3438 409.656 409.656 409.656 486.656> 166 62<132.294 383.294 132.294 389.98 96.9805 383.294> 670 20G<333.955 394.955 394.955 394.955>
LayerCount: 2
Fore
SplineSet
389.98046875 166 m 1
 96.98046875 166 l 1
 0.65625 0 l 1
 -76.34375 0 l 1
 333.955078125 690 l 1
 394.955078125 690 l 1
 486.65625 0 l 1
 409.65625 0 l 1
 389.98046875 166 l 1
383.293945312 228 m 1
 340.407226562 588 l 1
 132.293945312 228 l 1
 383.293945312 228 l 1
382.8984375 889 m 1
 437.8984375 889 l 1
 511.653320312 745 l 1
 449.653320312 745 l 1
 399.5859375 840 l 1
 304.653320312 745 l 1
 242.653320312 745 l 1
 382.8984375 889 l 1
EndSplineSet
EndChar

StartChar: Atilde
Encoding: 195 195 132
Width: 577
GlyphClass: 2
Flags: MW
HStem: 0 21G<-76.3438 0.65625 -76.3438 -76.3438 409.656 409.656 409.656 486.656> 166 62<132.294 383.294 132.294 389.98 96.9805 383.294> 670 20G<333.955 394.955 394.955 394.955> 753.003 59<445.457 445.835> 791.001 60.002<324.94 352.46>
LayerCount: 2
Fore
SplineSet
389.98046875 166 m 1xe0
 96.98046875 166 l 1
 0.65625 0 l 1
 -76.34375 0 l 1
 333.955078125 690 l 1
 394.955078125 690 l 1
 486.65625 0 l 1
 409.65625 0 l 1
 389.98046875 166 l 1xe0
383.293945312 228 m 1
 340.407226562 588 l 1
 132.293945312 228 l 1
 383.293945312 228 l 1
269.352539062 813 m 1
 283.763671875 826.333007812 296.997070312 836.002929688 309.048828125 842.002929688 c 0
 321.1015625 848.002929688 333.793945312 851.002929688 347.126953125 851.002929688 c 0xe8
 357.793945312 851.002929688 367.076171875 849.3359375 374.97265625 846.002929688 c 0
 382.870117188 842.669921875 392.048828125 837.669921875 402.509765625 831.002929688 c 0
 411.124023438 825.002929688 418.879882812 820.3359375 425.77734375 817.002929688 c 0
 432.674804688 813.669921875 440.790039062 812.002929688 450.123046875 812.002929688 c 0xf0
 462.123046875 812.002929688 473.27734375 814.8359375 483.584960938 820.502929688 c 0
 493.893554688 826.169921875 507.741210938 836.336914062 525.126953125 851.002929688 c 1xe8
 511.043945312 790.002929688 l 1
 484.015625 765.3359375 458.168945312 753.002929688 433.501953125 753.002929688 c 0xf0
 422.168945312 753.002929688 412.553710938 754.669921875 404.65625 758.002929688 c 0
 396.7578125 761.3359375 387.322265625 766.668945312 376.348632812 774.001953125 c 0
 374.65625 775.334960938 370.862304688 777.66796875 364.96484375 781.000976562 c 0
 359.067382812 784.333984375 353.311523438 786.833984375 347.696289062 788.500976562 c 0
 342.081054688 790.16796875 336.606445312 791.000976562 331.2734375 791.000976562 c 0xe8
 318.606445312 791.000976562 306.952148438 788.16796875 296.310546875 782.500976562 c 0
 285.668945312 776.833984375 271.98828125 766.666992188 255.26953125 752 c 1
 269.352539062 813 l 1
EndSplineSet
EndChar

StartChar: Adieresis
Encoding: 196 196 133
Width: 577
GlyphClass: 2
Flags: MW
HStem: 0 21G<-76.3438 0.65625 -76.3438 -76.3438 409.656 409.656 409.656 486.656> 166 62<132.294 383.294 132.294 389.98 96.9805 383.294> 670 20G<333.955 394.955 394.955 394.955> 761 86<277.202 333.347 257.347 353.202 277.202 428.347 448.202 504.347>
LayerCount: 2
Fore
SplineSet
389.98046875 166 m 1
 96.98046875 166 l 1
 0.65625 0 l 1
 -76.34375 0 l 1
 333.955078125 690 l 1
 394.955078125 690 l 1
 486.65625 0 l 1
 409.65625 0 l 1
 389.98046875 166 l 1
383.293945312 228 m 1
 340.407226562 588 l 1
 132.293945312 228 l 1
 383.293945312 228 l 1
277.202148438 847 m 1
 353.202148438 847 l 1
 333.346679688 761 l 1
 257.346679688 761 l 1
 277.202148438 847 l 1
448.202148438 847 m 1
 524.202148438 847 l 1
 504.346679688 761 l 1
 428.346679688 761 l 1
 448.202148438 847 l 1
EndSplineSet
EndChar

StartChar: Aring
Encoding: 197 197 134
Width: 577
GlyphClass: 2
Flags: MW
HStem: 0 21G<-76.3438 0.65625 -76.3438 -76.3438 409.656 409.656 409.656 486.656> 166 62.001<132.295 383.295 132.295 389.98 96.9805 383.295> 829 38<392.486 404.379>
LayerCount: 2
Fore
SplineSet
389.98046875 166 m 1
 96.98046875 166 l 1
 0.65625 0 l 1
 -76.34375 0 l 1
 333.724609375 689 l 1
 317.109375 695 305.110351562 705.833007812 297.727539062 721.5 c 0
 290.344726562 737.166992188 288.961914062 755 293.579101562 775 c 0
 299.735351562 801.666992188 313.314453125 823.666992188 334.31640625 841 c 0
 355.318359375 858.333007812 379.15234375 867 405.819335938 867 c 0
 431.819335938 867 451.485351562 858.333007812 464.81640625 841 c 0
 478.147460938 823.666992188 481.735351562 801.666992188 475.579101562 775 c 0
 470.961914062 755 461.177734375 737.166992188 446.227539062 721.5 c 0
 431.27734375 705.833007812 414.109375 695 394.724609375 689 c 1
 486.65625 0 l 1
 409.65625 0 l 1
 389.98046875 166 l 1
338.806640625 737 m 0
 346.497070312 727 357.676757812 722.000976562 372.34375 722.000976562 c 0
 387.010742188 722.000976562 400.498046875 727.000976562 412.806640625 737.000976562 c 0
 425.115234375 747.000976562 433.0390625 759.66796875 436.579101562 775.000976562 c 0
 440.119140625 790.333984375 438.08203125 803.166992188 430.467773438 813.5 c 0
 422.853515625 823.833007812 411.712890625 829 397.045898438 829 c 0
 382.37890625 829 368.853515625 823.833007812 356.467773438 813.5 c 0
 344.080078125 803.16015625 336.118164062 790.327148438 332.579101562 775 c 0
 329.0390625 759.666992188 331.115234375 747 338.806640625 737 c 0
383.294921875 228.000976562 m 1
 340.407226562 588.000976562 l 1
 132.294921875 228.000976562 l 1
 383.294921875 228.000976562 l 1
370.956054688 690.000976562 m 1024
EndSplineSet
EndChar

StartChar: AE
Encoding: 198 198 135
Width: 866
GlyphClass: 2
Flags: MW
HStem: 0 66<429.894 734.656> 171 62<182.448 381.135 134.135 395.448> 318 66<503.31 757.072 488.072 772.31> 624 66<558.718 558.718 558.718 878.718>
LayerCount: 2
Fore
SplineSet
558.717773438 624 m 1
 503.309570312 384 l 1
 772.309570312 384 l 1
 757.072265625 318 l 1
 488.072265625 318 l 1
 429.893554688 66 l 1
 749.893554688 66 l 1
 734.65625 0 l 1
 341.65625 0 l 1
 381.134765625 171 l 1
 134.134765625 171 l 1
 2.65625 0 l 1
 -76.34375 0 l 1
 457.955078125 690 l 1
 893.955078125 690 l 1
 878.717773438 624 l 1
 558.717773438 624 l 1
395.448242188 233 m 1
 486.411132812 627 l 1
 182.448242188 233 l 1
 395.448242188 233 l 1
EndSplineSet
EndChar

StartChar: Ccedilla
Encoding: 199 199 136
Width: 610
GlyphClass: 2
Flags: MW
HStem: -7.99805 66.998<212.809 212.809> 632.999 66.001<350.032 396.795>
LayerCount: 2
Fore
SplineSet
499.626953125 485 m 1
 500.318359375 487.999023438 l 2
 510.630859375 532.666015625 504.288085938 567.999023438 481.291015625 593.999023438 c 0
 458.29296875 619.999023438 421.794921875 632.999023438 371.794921875 632.999023438 c 0
 316.461914062 632.999023438 270.677734375 617.33203125 234.444335938 585.999023438 c 0
 198.209960938 554.666015625 171.859375 503.333007812 155.390625 432 c 2
 113.833984375 252 l 2
 84.12890625 123.333007812 126.276367188 59 240.276367188 59 c 0
 290.276367188 59 332.572265625 71.8330078125 367.165039062 97.5 c 0
 401.7578125 123.166992188 424.209960938 158.333984375 434.521484375 203.000976562 c 2
 435.4453125 207.000976562 l 1
 506.4453125 207.000976562 l 1
 505.521484375 203.000976562 l 2
 492.592773438 147.000976562 465.934570312 100.833984375 425.546875 64.5009765625 c 0
 385.158203125 28.16796875 335.88671875 5.3349609375 277.732421875 -3.998046875 c 1
 196.025390625 -149.998046875 l 1
 125.025390625 -149.998046875 l 1
 212.80859375 -7.998046875 l 1
 142.603515625 -5.998046875 91.388671875 16.1689453125 59.1611328125 58.501953125 c 0
 26.9345703125 100.834960938 21.1337890625 166.66796875 41.7578125 256.000976562 c 2
 83.0830078125 435.000976562 l 2
 104.168945312 526.333984375 141.598632812 593.166992188 195.372070312 635.5 c 0
 249.145507812 677.833007812 313.032226562 699 387.032226562 699 c 0
 433.69921875 699 472.865234375 690.333007812 504.530273438 673 c 0
 536.196289062 655.666992188 558.000976562 631 569.946289062 599 c 0
 581.891601562 567 583.016601562 530 573.3203125 488 c 2
 572.626953125 485 l 1
 499.626953125 485 l 1
EndSplineSet
EndChar

StartChar: Egrave
Encoding: 200 200 137
Width: 547
GlyphClass: 2
Flags: MW
HStem: 0 66<84.8936 415.656> 318 66<158.31 439.072 143.072 454.31> 624 66<213.718 213.718 213.718 559.718>
LayerCount: 2
Fore
SplineSet
213.717773438 624 m 1
 158.309570312 384 l 1
 454.309570312 384 l 1
 439.072265625 318 l 1
 143.072265625 318 l 1
 84.8935546875 66 l 1
 430.893554688 66 l 1
 415.65625 0 l 1
 -3.34375 0 l 1
 155.955078125 690 l 1
 574.955078125 690 l 1
 559.717773438 624 l 1
 213.717773438 624 l 1
273.8203125 880 m 1
 357.8203125 880 l 1
 427.961914062 755 l 1
 364.961914062 755 l 1
 273.8203125 880 l 1
EndSplineSet
EndChar

StartChar: Eacute
Encoding: 201 201 138
Width: 547
GlyphClass: 2
Flags: MW
HStem: 0 66<84.8936 415.656> 318 66<158.31 439.072 143.072 454.31> 624 66<213.718 213.718 213.718 559.718>
LayerCount: 2
Fore
SplineSet
213.717773438 624 m 1
 158.309570312 384 l 1
 454.309570312 384 l 1
 439.072265625 318 l 1
 143.072265625 318 l 1
 84.8935546875 66 l 1
 430.893554688 66 l 1
 415.65625 0 l 1
 -3.34375 0 l 1
 155.955078125 690 l 1
 574.955078125 690 l 1
 559.717773438 624 l 1
 213.717773438 624 l 1
423.8203125 880 m 1
 507.8203125 880 l 1
 358.961914062 755 l 1
 295.961914062 755 l 1
 423.8203125 880 l 1
EndSplineSet
EndChar

StartChar: Ecircumflex
Encoding: 202 202 139
Width: 547
GlyphClass: 2
Flags: MW
HStem: 0 66<84.8936 415.656> 318 66<158.31 439.072 143.072 454.31> 624 66<213.718 213.718 213.718 559.718>
LayerCount: 2
Fore
SplineSet
213.717773438 624 m 1
 158.309570312 384 l 1
 454.309570312 384 l 1
 439.072265625 318 l 1
 143.072265625 318 l 1
 84.8935546875 66 l 1
 430.893554688 66 l 1
 415.65625 0 l 1
 -3.34375 0 l 1
 155.955078125 690 l 1
 574.955078125 690 l 1
 559.717773438 624 l 1
 213.717773438 624 l 1
373.8984375 889 m 1
 428.8984375 889 l 1
 502.653320312 745 l 1
 440.653320312 745 l 1
 390.5859375 840 l 1
 295.653320312 745 l 1
 233.653320312 745 l 1
 373.8984375 889 l 1
EndSplineSet
EndChar

StartChar: Edieresis
Encoding: 203 203 140
Width: 547
GlyphClass: 2
Flags: MW
HStem: 0 66<84.8936 415.656> 318 66<158.31 439.072 143.072 454.31> 624 66<213.718 213.718 213.718 559.718> 761 86<268.202 324.347 248.347 344.202 268.202 419.347 439.202 495.347>
LayerCount: 2
Fore
SplineSet
213.717773438 624 m 1
 158.309570312 384 l 1
 454.309570312 384 l 1
 439.072265625 318 l 1
 143.072265625 318 l 1
 84.8935546875 66 l 1
 430.893554688 66 l 1
 415.65625 0 l 1
 -3.34375 0 l 1
 155.955078125 690 l 1
 574.955078125 690 l 1
 559.717773438 624 l 1
 213.717773438 624 l 1
268.202148438 847 m 1
 344.202148438 847 l 1
 324.346679688 761 l 1
 248.346679688 761 l 1
 268.202148438 847 l 1
439.202148438 847 m 1
 515.202148438 847 l 1
 495.346679688 761 l 1
 419.346679688 761 l 1
 439.202148438 847 l 1
EndSplineSet
EndChar

StartChar: Igrave
Encoding: 204 204 141
Width: 249
GlyphClass: 2
Flags: MW
HStem: 0 21G<4.65625 77.6562 4.65625 4.65625> 670 20G<163.955 236.955 236.955 236.955>
VStem: 4.65625 268.306
LayerCount: 2
Fore
SplineSet
163.955078125 690 m 1
 236.955078125 690 l 1
 77.65625 0 l 1
 4.65625 0 l 1
 163.955078125 690 l 1
118.8203125 880 m 1
 202.8203125 880 l 1
 272.961914062 755 l 1
 209.961914062 755 l 1
 118.8203125 880 l 1
EndSplineSet
EndChar

StartChar: Iacute
Encoding: 205 205 142
Width: 249
GlyphClass: 2
Flags: MW
HStem: 0 21G<4.65625 77.6562 4.65625 4.65625> 670 20G<163.955 236.955 236.955 236.955>
LayerCount: 2
Fore
SplineSet
163.955078125 690 m 1
 236.955078125 690 l 1
 77.65625 0 l 1
 4.65625 0 l 1
 163.955078125 690 l 1
268.8203125 880 m 1
 352.8203125 880 l 1
 203.961914062 755 l 1
 140.961914062 755 l 1
 268.8203125 880 l 1
EndSplineSet
EndChar

StartChar: Icircumflex
Encoding: 206 206 143
Width: 249
GlyphClass: 2
Flags: MW
HStem: 0 21G<4.65625 77.6562 4.65625 4.65625> 670 20G<163.955 236.955 236.955 236.955>
LayerCount: 2
Fore
SplineSet
163.955078125 690 m 1
 236.955078125 690 l 1
 77.65625 0 l 1
 4.65625 0 l 1
 163.955078125 690 l 1
218.8984375 889 m 1
 273.8984375 889 l 1
 347.653320312 745 l 1
 285.653320312 745 l 1
 235.5859375 840 l 1
 140.653320312 745 l 1
 78.6533203125 745 l 1
 218.8984375 889 l 1
EndSplineSet
EndChar

StartChar: Idieresis
Encoding: 207 207 144
Width: 249
GlyphClass: 2
Flags: MW
HStem: 0 21G<4.65625 77.6562 4.65625 4.65625> 670 20G<163.955 236.955 236.955 236.955> 761 86<113.202 169.347 93.3467 189.202 113.202 264.347 284.202 340.347>
LayerCount: 2
Fore
SplineSet
163.955078125 690 m 1
 236.955078125 690 l 1
 77.65625 0 l 1
 4.65625 0 l 1
 163.955078125 690 l 1
113.202148438 847 m 1
 189.202148438 847 l 1
 169.346679688 761 l 1
 93.3466796875 761 l 1
 113.202148438 847 l 1
284.202148438 847 m 1
 360.202148438 847 l 1
 340.346679688 761 l 1
 264.346679688 761 l 1
 284.202148438 847 l 1
EndSplineSet
EndChar

StartChar: Eth
Encoding: 208 208 145
Width: 669
GlyphClass: 2
Flags: MW
HStem: 0 65.999<133.894 280.656> 315.999 66<206.848 331.61 191.61 346.848> 623.999 66.001<262.718 425.718 262.718 262.718>
LayerCount: 2
Fore
SplineSet
599.794921875 626.5 m 0
 633.021484375 584.166015625 639.091796875 517.33203125 618.005859375 425.999023438 c 2
 580.60546875 263.999023438 l 2
 559.51953125 172.666015625 522.58984375 105.833007812 469.81640625 63.5 c 0
 417.04296875 21.1669921875 353.989257812 0 280.65625 0 c 2
 44.65625 0 l 1
 117.610351562 316 l 1
 27.6103515625 316 l 1
 42.84765625 382 l 1
 132.84765625 382 l 1
 203.955078125 690 l 1
 439.955078125 690 l 2
 513.288085938 690 566.568359375 668.833007812 599.794921875 626.5 c 0
543.313476562 422.999023438 m 2
 559.474609375 492.999023438 557.081054688 543.999023438 536.135742188 575.999023438 c 0
 515.19140625 607.999023438 478.384765625 623.999023438 425.717773438 623.999023438 c 2
 262.717773438 623.999023438 l 1
 206.84765625 381.999023438 l 1
 346.84765625 381.999023438 l 1
 331.610351562 315.999023438 l 1
 191.610351562 315.999023438 l 1
 133.893554688 65.9990234375 l 1
 296.893554688 65.9990234375 l 2
 406.2265625 65.9990234375 475.823242188 130.666015625 505.681640625 259.999023438 c 2
 543.313476562 422.999023438 l 2
EndSplineSet
EndChar

StartChar: Ntilde
Encoding: 209 209 146
Width: 663
GlyphClass: 2
Flags: MW
HStem: 0 21G<-3.34375 69.6562 -3.34375 -3.34375 426.656 499.656 426.656 426.656> 670 20G<155.955 228.955 228.955 228.955 585.955 658.955 658.955 658.955> 753.003 59<487.456 487.834> 791.001 60.002<366.94 394.458>
LayerCount: 2
Fore
SplineSet
658.955078125 690 m 1xc0
 499.65625 0 l 1
 426.65625 0 l 1
 198.01953125 556 l 1
 69.65625 0 l 1
 -3.34375 0 l 1
 155.955078125 690 l 1
 228.955078125 690 l 1
 458.0546875 136 l 1
 585.955078125 690 l 1
 658.955078125 690 l 1xc0
311.352539062 813 m 1
 325.763671875 826.333007812 338.995117188 836.002929688 351.046875 842.002929688 c 0
 363.099609375 848.002929688 375.791992188 851.002929688 389.125 851.002929688 c 0xd0
 399.791992188 851.002929688 409.07421875 849.3359375 416.971679688 846.002929688 c 0
 424.869140625 842.669921875 434.047851562 837.669921875 444.508789062 831.002929688 c 0
 453.123046875 825.002929688 460.87890625 820.3359375 467.776367188 817.002929688 c 0
 474.673828125 813.669921875 482.7890625 812.002929688 492.122070312 812.002929688 c 0xe0
 504.122070312 812.002929688 515.276367188 814.8359375 525.583984375 820.502929688 c 0
 535.892578125 826.169921875 549.740234375 836.336914062 567.125976562 851.002929688 c 1xd0
 553.04296875 790.002929688 l 1
 526.014648438 765.3359375 500.16796875 753.002929688 475.500976562 753.002929688 c 0xe0
 464.16796875 753.002929688 454.552734375 754.669921875 446.655273438 758.002929688 c 0
 438.756835938 761.3359375 429.321289062 766.668945312 418.348632812 774.001953125 c 0
 416.65625 775.334960938 412.862304688 777.66796875 406.96484375 781.000976562 c 0
 401.067382812 784.333984375 395.311523438 786.833984375 389.696289062 788.500976562 c 0
 384.081054688 790.16796875 378.606445312 791.000976562 373.2734375 791.000976562 c 0xd0
 360.606445312 791.000976562 348.952148438 788.16796875 338.310546875 782.500976562 c 0
 327.668945312 776.833984375 313.98828125 766.666992188 297.26953125 752 c 1
 311.352539062 813 l 1
EndSplineSet
EndChar

StartChar: Ograve
Encoding: 210 210 147
Width: 610
GlyphClass: 2
Flags: MW
HStem: -8 67.001<208.945 256.143> 633.002 65.9971<347.367 420.367 347.367 423.797>
LayerCount: 2
Fore
SplineSet
59.9697265625 55.5 m 0
 26.7431640625 97.8330078125 20.673828125 164.666992188 41.759765625 256 c 2
 83.0849609375 435 l 2
 104.170898438 526.333007812 141.267578125 593.166015625 194.374023438 635.499023438 c 0
 247.48046875 677.83203125 310.700195312 698.999023438 384.033203125 698.999023438 c 0
 456.700195312 698.999023438 509.646484375 677.83203125 542.873046875 635.499023438 c 0
 576.099609375 593.165039062 582.169921875 526.33203125 561.083984375 434.999023438 c 2
 519.758789062 255.999023438 l 2
 498.672851562 164.666015625 461.576171875 97.8330078125 408.469726562 55.5 c 0
 355.36328125 13.1669921875 292.4765625 -8 219.809570312 -8 c 0
 146.4765625 -8 93.1962890625 13.1669921875 59.9697265625 55.5 c 0
445.8359375 252.000976562 m 2
 487.392578125 432.001953125 l 2
 518.329101562 566.001953125 478.796875 633.001953125 368.796875 633.001953125 c 0
 313.463867188 633.001953125 268.141601562 617.168945312 232.831054688 585.501953125 c 0
 197.520507812 553.834960938 171.70703125 502.66796875 155.392578125 432.000976562 c 2
 113.8359375 252.000976562 l 2
 98.291015625 184.66796875 101.145507812 135.66796875 122.3984375 105.000976562 c 0
 143.651367188 74.333984375 181.611328125 59.0009765625 236.278320312 59.0009765625 c 0
 346.278320312 59.0009765625 416.130859375 123.333984375 445.8359375 252.000976562 c 2
298.822265625 880.001953125 m 1
 382.822265625 880.001953125 l 1
 452.962890625 755.001953125 l 1
 389.962890625 755.001953125 l 1
 298.822265625 880.001953125 l 1
EndSplineSet
EndChar

StartChar: Oacute
Encoding: 211 211 148
Width: 610
GlyphClass: 2
Flags: MW
HStem: -8 67.001<208.945 256.143> 633.002 65.9971<347.367 420.367 347.367 423.797>
LayerCount: 2
Fore
SplineSet
59.9697265625 55.5 m 0
 26.7431640625 97.8330078125 20.673828125 164.666992188 41.759765625 256 c 2
 83.0849609375 435 l 2
 104.170898438 526.333007812 141.267578125 593.166015625 194.374023438 635.499023438 c 0
 247.48046875 677.83203125 310.700195312 698.999023438 384.033203125 698.999023438 c 0
 456.700195312 698.999023438 509.646484375 677.83203125 542.873046875 635.499023438 c 0
 576.099609375 593.165039062 582.169921875 526.33203125 561.083984375 434.999023438 c 2
 519.758789062 255.999023438 l 2
 498.672851562 164.666015625 461.576171875 97.8330078125 408.469726562 55.5 c 0
 355.36328125 13.1669921875 292.4765625 -8 219.809570312 -8 c 0
 146.4765625 -8 93.1962890625 13.1669921875 59.9697265625 55.5 c 0
445.8359375 252.000976562 m 2
 487.392578125 432.001953125 l 2
 518.329101562 566.001953125 478.796875 633.001953125 368.796875 633.001953125 c 0
 313.463867188 633.001953125 268.141601562 617.168945312 232.831054688 585.501953125 c 0
 197.520507812 553.834960938 171.70703125 502.66796875 155.392578125 432.000976562 c 2
 113.8359375 252.000976562 l 2
 98.291015625 184.66796875 101.145507812 135.66796875 122.3984375 105.000976562 c 0
 143.651367188 74.333984375 181.611328125 59.0009765625 236.278320312 59.0009765625 c 0
 346.278320312 59.0009765625 416.130859375 123.333984375 445.8359375 252.000976562 c 2
448.822265625 880.001953125 m 1
 532.822265625 880.001953125 l 1
 383.962890625 755.001953125 l 1
 320.962890625 755.001953125 l 1
 448.822265625 880.001953125 l 1
EndSplineSet
EndChar

StartChar: Ocircumflex
Encoding: 212 212 149
Width: 610
GlyphClass: 2
Flags: MW
HStem: -8 67.001<208.945 256.143> 633.002 65.9971<347.367 420.367 347.367 423.797>
LayerCount: 2
Fore
SplineSet
59.9697265625 55.5 m 0
 26.7431640625 97.8330078125 20.673828125 164.666992188 41.759765625 256 c 2
 83.0849609375 435 l 2
 104.170898438 526.333007812 141.267578125 593.166015625 194.374023438 635.499023438 c 0
 247.48046875 677.83203125 310.700195312 698.999023438 384.033203125 698.999023438 c 0
 456.700195312 698.999023438 509.646484375 677.83203125 542.873046875 635.499023438 c 0
 576.099609375 593.165039062 582.169921875 526.33203125 561.083984375 434.999023438 c 2
 519.758789062 255.999023438 l 2
 498.672851562 164.666015625 461.576171875 97.8330078125 408.469726562 55.5 c 0
 355.36328125 13.1669921875 292.4765625 -8 219.809570312 -8 c 0
 146.4765625 -8 93.1962890625 13.1669921875 59.9697265625 55.5 c 0
445.8359375 252.000976562 m 2
 487.392578125 432.001953125 l 2
 518.329101562 566.001953125 478.796875 633.001953125 368.796875 633.001953125 c 0
 313.463867188 633.001953125 268.141601562 617.168945312 232.831054688 585.501953125 c 0
 197.520507812 553.834960938 171.70703125 502.66796875 155.392578125 432.000976562 c 2
 113.8359375 252.000976562 l 2
 98.291015625 184.66796875 101.145507812 135.66796875 122.3984375 105.000976562 c 0
 143.651367188 74.333984375 181.611328125 59.0009765625 236.278320312 59.0009765625 c 0
 346.278320312 59.0009765625 416.130859375 123.333984375 445.8359375 252.000976562 c 2
398.899414062 889.001953125 m 1
 453.899414062 889.001953125 l 1
 527.654296875 745.001953125 l 1
 465.654296875 745.001953125 l 1
 415.586914062 840.001953125 l 1
 320.654296875 745.001953125 l 1
 258.654296875 745.001953125 l 1
 398.899414062 889.001953125 l 1
EndSplineSet
EndChar

StartChar: Otilde
Encoding: 213 213 150
Width: 610
GlyphClass: 2
Flags: MW
HStem: -8 67.001<208.945 256.143> 633.002 65.9971<347.367 420.367 347.367 423.797> 753.005 59<461.457 461.835> 791.003 60.002<340.941 368.459>
LayerCount: 2
Fore
SplineSet
59.9697265625 55.5 m 0xc0
 26.7431640625 97.8330078125 20.673828125 164.666992188 41.759765625 256 c 2
 83.0849609375 435 l 2
 104.170898438 526.333007812 141.267578125 593.166015625 194.374023438 635.499023438 c 0
 247.48046875 677.83203125 310.700195312 698.999023438 384.033203125 698.999023438 c 0
 456.700195312 698.999023438 509.646484375 677.83203125 542.873046875 635.499023438 c 0
 576.099609375 593.165039062 582.169921875 526.33203125 561.083984375 434.999023438 c 2
 519.758789062 255.999023438 l 2
 498.672851562 164.666015625 461.576171875 97.8330078125 408.469726562 55.5 c 0
 355.36328125 13.1669921875 292.4765625 -8 219.809570312 -8 c 0
 146.4765625 -8 93.1962890625 13.1669921875 59.9697265625 55.5 c 0xc0
445.8359375 252.000976562 m 2
 487.392578125 432.001953125 l 2
 518.329101562 566.001953125 478.796875 633.001953125 368.796875 633.001953125 c 0
 313.463867188 633.001953125 268.141601562 617.168945312 232.831054688 585.501953125 c 0
 197.520507812 553.834960938 171.70703125 502.66796875 155.392578125 432.000976562 c 2
 113.8359375 252.000976562 l 2
 98.291015625 184.66796875 101.145507812 135.66796875 122.3984375 105.000976562 c 0
 143.651367188 74.333984375 181.611328125 59.0009765625 236.278320312 59.0009765625 c 0
 346.278320312 59.0009765625 416.130859375 123.333984375 445.8359375 252.000976562 c 2
285.353515625 813.001953125 m 1
 299.764648438 826.334960938 312.99609375 836.004882812 325.048828125 842.004882812 c 0
 337.100585938 848.004882812 349.79296875 851.004882812 363.125976562 851.004882812 c 0xd0
 373.79296875 851.004882812 383.075195312 849.337890625 390.97265625 846.004882812 c 0
 398.870117188 842.671875 408.048828125 837.671875 418.509765625 831.004882812 c 0
 427.125 825.004882812 434.879882812 820.337890625 441.77734375 817.004882812 c 0
 448.674804688 813.671875 456.790039062 812.004882812 466.123046875 812.004882812 c 0xe0
 478.123046875 812.004882812 489.27734375 814.837890625 499.5859375 820.504882812 c 0
 509.89453125 826.171875 523.741210938 836.338867188 541.126953125 851.004882812 c 1xd0
 527.043945312 790.004882812 l 1
 500.016601562 765.337890625 474.168945312 753.004882812 449.501953125 753.004882812 c 0xe0
 438.168945312 753.004882812 428.553710938 754.671875 420.65625 758.004882812 c 0
 412.7578125 761.337890625 403.322265625 766.670898438 392.350585938 774.00390625 c 0
 390.658203125 775.336914062 386.86328125 777.669921875 380.965820312 781.002929688 c 0
 375.068359375 784.3359375 369.3125 786.8359375 363.697265625 788.502929688 c 0
 358.08203125 790.169921875 352.607421875 791.002929688 347.274414062 791.002929688 c 0xd0
 334.607421875 791.002929688 322.954101562 788.169921875 312.3125 782.502929688 c 0
 301.669921875 776.8359375 287.990234375 766.668945312 271.270507812 752.001953125 c 1
 285.353515625 813.001953125 l 1
EndSplineSet
EndChar

StartChar: Odieresis
Encoding: 214 214 151
Width: 610
GlyphClass: 2
Flags: MW
HStem: -8 67.001<208.945 256.143> 633.002 65.9971<347.367 420.367 347.367 423.797> 761.002 86<293.203 349.349 273.349 369.203 293.203 444.349 464.203 520.349>
LayerCount: 2
Fore
SplineSet
59.9697265625 55.5 m 0
 26.7431640625 97.8330078125 20.673828125 164.666992188 41.759765625 256 c 2
 83.0849609375 435 l 2
 104.170898438 526.333007812 141.267578125 593.166015625 194.374023438 635.499023438 c 0
 247.48046875 677.83203125 310.700195312 698.999023438 384.033203125 698.999023438 c 0
 456.700195312 698.999023438 509.646484375 677.83203125 542.873046875 635.499023438 c 0
 576.099609375 593.165039062 582.169921875 526.33203125 561.083984375 434.999023438 c 2
 519.758789062 255.999023438 l 2
 498.672851562 164.666015625 461.576171875 97.8330078125 408.469726562 55.5 c 0
 355.36328125 13.1669921875 292.4765625 -8 219.809570312 -8 c 0
 146.4765625 -8 93.1962890625 13.1669921875 59.9697265625 55.5 c 0
445.8359375 252.000976562 m 2
 487.392578125 432.001953125 l 2
 518.329101562 566.001953125 478.796875 633.001953125 368.796875 633.001953125 c 0
 313.463867188 633.001953125 268.141601562 617.168945312 232.831054688 585.501953125 c 0
 197.520507812 553.834960938 171.70703125 502.66796875 155.392578125 432.000976562 c 2
 113.8359375 252.000976562 l 2
 98.291015625 184.66796875 101.145507812 135.66796875 122.3984375 105.000976562 c 0
 143.651367188 74.333984375 181.611328125 59.0009765625 236.278320312 59.0009765625 c 0
 346.278320312 59.0009765625 416.130859375 123.333984375 445.8359375 252.000976562 c 2
293.203125 847.001953125 m 1
 369.203125 847.001953125 l 1
 349.348632812 761.001953125 l 1
 273.348632812 761.001953125 l 1
 293.203125 847.001953125 l 1
464.203125 847.001953125 m 1
 540.203125 847.001953125 l 1
 520.348632812 761.001953125 l 1
 444.348632812 761.001953125 l 1
 464.203125 847.001953125 l 1
EndSplineSet
EndChar

StartChar: multiply
Encoding: 215 215 152
Width: 512
GlyphClass: 2
Flags: W
LayerCount: 2
Fore
SplineSet
40.9794921875 153 m 1
 192.606445312 277 l 1
 98.00390625 400 l 1
 152.162109375 444 l 1
 246.764648438 321 l 1
 398.162109375 444 l 1
 433.00390625 400 l 1
 281.606445312 277 l 1
 375.979492188 153 l 1
 320.821289062 109 l 1
 226.217773438 232 l 1
 74.8212890625 109 l 1
 40.9794921875 153 l 1
EndSplineSet
EndChar

StartChar: Oslash
Encoding: 216 216 153
Width: 610
GlyphClass: 2
Flags: MW
HStem: -7.99902 67<211.277 256.143> 633.001 65.999<347.366 393.129>
LayerCount: 2
Fore
SplineSet
551.794921875 620 m 1
 576.303710938 576 579.399414062 514.333007812 561.083984375 435 c 2
 519.758789062 256 l 2
 498.672851562 164.666992188 461.576171875 97.833984375 408.469726562 55.5009765625 c 0
 355.36328125 13.16796875 292.4765625 -7.9990234375 219.809570312 -7.9990234375 c 0
 158.4765625 -7.9990234375 111.708984375 6.0009765625 79.505859375 34.0009765625 c 1
 36.0390625 -19.9990234375 l 1
 -21.9609375 -19.9990234375 l 1
 50.8173828125 70.0009765625 l 1
 26.30859375 114.000976562 23.2890625 176.000976562 41.7587890625 256.000976562 c 2
 83.083984375 435.000976562 l 2
 104.169921875 526.333984375 141.266601562 593.166992188 194.373046875 635.5 c 0
 247.479492188 677.833007812 310.69921875 699 384.032226562 699 c 0
 444.69921875 699 491.133789062 685 523.336914062 657 c 1
 566.573242188 710 l 1
 624.573242188 710 l 1
 551.794921875 620 l 1
108.208984375 141 m 1
 472.791992188 594.000976562 l 1
 452.127929688 620.000976562 417.461914062 633.000976562 368.795898438 633.000976562 c 0
 313.462890625 633.000976562 268.140625 617.16796875 232.830078125 585.500976562 c 0
 197.518554688 553.833984375 171.706054688 502.666992188 155.391601562 432 c 2
 113.834960938 252 l 2
 103.369140625 206.666992188 101.494140625 169.666992188 108.208984375 141 c 1
494.171875 548.000976562 m 1
 129.8203125 96.0009765625 l 1
 150.791992188 71.333984375 186.27734375 59.0009765625 236.27734375 59.0009765625 c 0
 346.27734375 59.0009765625 416.129882812 123.333984375 445.834960938 252.000976562 c 2
 487.391601562 432.000976562 l 2
 498.319335938 479.333984375 500.579101562 518.000976562 494.171875 548.000976562 c 1
EndSplineSet
EndChar

StartChar: Ugrave
Encoding: 217 217 154
Width: 635
GlyphClass: 2
Flags: MW
HStem: -6 65<223.277 255.938> 670 20G<155.955 229.955 229.955 229.955 557.955 630.955 630.955 630.955>
LayerCount: 2
Fore
SplineSet
117.966796875 23 m 0
 86.4296875 42.3330078125 64.4072265625 69.6669921875 51.8974609375 105 c 0
 39.3876953125 140.333007812 38.2890625 180.333007812 48.6015625 225 c 2
 155.955078125 690 l 1
 229.955078125 690 l 1
 123.987304688 231 l 2
 111.828125 178.333007812 117.002929688 136.5 139.512695312 105.5 c 0
 162.0234375 74.5 198.27734375 59 248.27734375 59 c 0
 297.610351562 59 340.856445312 74.5 378.012695312 105.5 c 0
 415.169921875 136.5 439.828125 178.333007812 451.987304688 231 c 2
 557.955078125 690 l 1
 630.955078125 690 l 1
 523.6015625 225 l 2
 513.135742188 179.666992188 493.6953125 139.5 465.282226562 104.5 c 0
 436.869140625 69.5 402.4296875 42.3330078125 361.966796875 23 c 0
 321.502929688 3.6669921875 278.604492188 -6 233.271484375 -6 c 0
 187.938476562 -6 149.502929688 3.6669921875 117.966796875 23 c 0
310.8203125 880.000976562 m 1
 394.8203125 880.000976562 l 1
 464.961914062 755.000976562 l 1
 401.961914062 755.000976562 l 1
 310.8203125 880.000976562 l 1
EndSplineSet
EndChar

StartChar: Uacute
Encoding: 218 218 155
Width: 635
GlyphClass: 2
Flags: MW
HStem: -6 65<223.277 255.938> 670 20G<155.955 229.955 229.955 229.955 557.955 630.955 630.955 630.955>
LayerCount: 2
Fore
SplineSet
117.966796875 23 m 0
 86.4296875 42.3330078125 64.4072265625 69.6669921875 51.8974609375 105 c 0
 39.3876953125 140.333007812 38.2890625 180.333007812 48.6015625 225 c 2
 155.955078125 690 l 1
 229.955078125 690 l 1
 123.987304688 231 l 2
 111.828125 178.333007812 117.002929688 136.5 139.512695312 105.5 c 0
 162.0234375 74.5 198.27734375 59 248.27734375 59 c 0
 297.610351562 59 340.856445312 74.5 378.012695312 105.5 c 0
 415.169921875 136.5 439.828125 178.333007812 451.987304688 231 c 2
 557.955078125 690 l 1
 630.955078125 690 l 1
 523.6015625 225 l 2
 513.135742188 179.666992188 493.6953125 139.5 465.282226562 104.5 c 0
 436.869140625 69.5 402.4296875 42.3330078125 361.966796875 23 c 0
 321.502929688 3.6669921875 278.604492188 -6 233.271484375 -6 c 0
 187.938476562 -6 149.502929688 3.6669921875 117.966796875 23 c 0
460.8203125 880.000976562 m 1
 544.8203125 880.000976562 l 1
 395.961914062 755.000976562 l 1
 332.961914062 755.000976562 l 1
 460.8203125 880.000976562 l 1
EndSplineSet
EndChar

StartChar: Ucircumflex
Encoding: 219 219 156
Width: 635
GlyphClass: 2
Flags: MW
HStem: -6 65<223.277 255.938> 670 20G<155.955 229.955 229.955 229.955 557.955 630.955 630.955 630.955>
LayerCount: 2
Fore
SplineSet
117.966796875 23 m 0
 86.4296875 42.3330078125 64.4072265625 69.6669921875 51.8974609375 105 c 0
 39.3876953125 140.333007812 38.2890625 180.333007812 48.6015625 225 c 2
 155.955078125 690 l 1
 229.955078125 690 l 1
 123.987304688 231 l 2
 111.828125 178.333007812 117.002929688 136.5 139.512695312 105.5 c 0
 162.0234375 74.5 198.27734375 59 248.27734375 59 c 0
 297.610351562 59 340.856445312 74.5 378.012695312 105.5 c 0
 415.169921875 136.5 439.828125 178.333007812 451.987304688 231 c 2
 557.955078125 690 l 1
 630.955078125 690 l 1
 523.6015625 225 l 2
 513.135742188 179.666992188 493.6953125 139.5 465.282226562 104.5 c 0
 436.869140625 69.5 402.4296875 42.3330078125 361.966796875 23 c 0
 321.502929688 3.6669921875 278.604492188 -6 233.271484375 -6 c 0
 187.938476562 -6 149.502929688 3.6669921875 117.966796875 23 c 0
410.8984375 889.000976562 m 1
 465.8984375 889.000976562 l 1
 539.653320312 745.000976562 l 1
 477.653320312 745.000976562 l 1
 427.5859375 840.000976562 l 1
 332.653320312 745.000976562 l 1
 270.653320312 745.000976562 l 1
 410.8984375 889.000976562 l 1
EndSplineSet
EndChar

StartChar: Udieresis
Encoding: 220 220 157
Width: 635
GlyphClass: 2
Flags: MW
HStem: -6 65<223.277 255.938> 670 20G<155.955 229.955 229.955 229.955 557.955 630.955 630.955 630.955> 761.001 86<305.202 361.348 285.348 381.202 305.202 456.348 476.202 532.348>
LayerCount: 2
Fore
SplineSet
117.966796875 23 m 0
 86.4296875 42.3330078125 64.4072265625 69.6669921875 51.8974609375 105 c 0
 39.3876953125 140.333007812 38.2890625 180.333007812 48.6015625 225 c 2
 155.955078125 690 l 1
 229.955078125 690 l 1
 123.987304688 231 l 2
 111.828125 178.333007812 117.002929688 136.5 139.512695312 105.5 c 0
 162.0234375 74.5 198.27734375 59 248.27734375 59 c 0
 297.610351562 59 340.856445312 74.5 378.012695312 105.5 c 0
 415.169921875 136.5 439.828125 178.333007812 451.987304688 231 c 2
 557.955078125 690 l 1
 630.955078125 690 l 1
 523.6015625 225 l 2
 513.135742188 179.666992188 493.6953125 139.5 465.282226562 104.5 c 0
 436.869140625 69.5 402.4296875 42.3330078125 361.966796875 23 c 0
 321.502929688 3.6669921875 278.604492188 -6 233.271484375 -6 c 0
 187.938476562 -6 149.502929688 3.6669921875 117.966796875 23 c 0
305.202148438 847.000976562 m 1
 381.202148438 847.000976562 l 1
 361.34765625 761.000976562 l 1
 285.34765625 761.000976562 l 1
 305.202148438 847.000976562 l 1
476.202148438 847.000976562 m 1
 552.202148438 847.000976562 l 1
 532.34765625 761.000976562 l 1
 456.34765625 761.000976562 l 1
 476.202148438 847.000976562 l 1
EndSplineSet
EndChar

StartChar: Yacute
Encoding: 221 221 158
Width: 499
GlyphClass: 2
Flags: MW
HStem: 0 21G<129.656 202.656 129.656 129.656> 670 20G<82.9551 161.955 161.955 161.955 488.955 567.955 567.955 567.955>
LayerCount: 2
Fore
SplineSet
269.376953125 289 m 1
 202.65625 0 l 1
 129.65625 0 l 1
 196.608398438 290 l 1
 82.955078125 690 l 1
 161.955078125 690 l 1
 248.538085938 359 l 1
 488.955078125 690 l 1
 567.955078125 690 l 1
 269.376953125 289 l 1
393.8203125 880 m 1
 477.8203125 880 l 1
 328.961914062 755 l 1
 265.961914062 755 l 1
 393.8203125 880 l 1
EndSplineSet
EndChar

StartChar: Thorn
Encoding: 222 222 159
Width: 577
GlyphClass: 2
Flags: MW
HStem: 0 21G<-3.34375 69.6562 -3.34375 -3.34375> 159 66<121.602 271.364 106.364 280.602> 499 65<199.866 343.859 184.859 364.866> 670 20G<155.955 228.955 228.955 228.955>
LayerCount: 2
Fore
SplineSet
511.514648438 510.5 m 0
 541.947265625 474.833007812 549.544921875 424 534.307617188 358 c 0
 519.993164062 296 489.2578125 247.333007812 442.100585938 212 c 0
 394.943359375 176.666992188 338.03125 159 271.364257812 159 c 2
 106.364257812 159 l 1
 69.65625 0 l 1
 -3.34375 0 l 1
 155.955078125 690 l 1
 228.955078125 690 l 1
 199.866210938 564 l 1
 364.866210938 564 l 2
 432.19921875 564 481.08203125 546.166992188 511.514648438 510.5 c 0
399.220703125 258 m 0
 430.299804688 280 450.995117188 313.333007812 461.307617188 358 c 0
 472.235351562 405.333984375 467.392578125 440.666992188 446.779296875 464 c 0
 426.166015625 487.333007812 391.859375 499 343.859375 499 c 2
 184.859375 499 l 1
 121.6015625 225 l 1
 280.6015625 225 l 2
 328.6015625 225 368.141601562 236 399.220703125 258 c 0
EndSplineSet
EndChar

StartChar: germandbls
Encoding: 223 223 160
Width: 505
GlyphClass: 2
Flags: MW
HStem: -4 62<181.047 181.047 181.047 195.732 166.732 181.047> 393.001 62<271.7 278.387 257.387 298.7> 635.001 62<303.238 340.59>
LayerCount: 2
Fore
SplineSet
181.046875 58 m 1
 207.045898438 58.0009765625 l 2
 237.712890625 58.0009765625 261.27734375 63.333984375 277.740234375 74.0009765625 c 0
 294.202148438 84.66796875 306.973632812 101.000976562 316.052734375 123.000976562 c 0
 325.131835938 145.000976562 334.981445312 179.000976562 345.600585938 225.000976562 c 0
 355.913085938 269.66796875 361.647460938 303.16796875 362.802734375 325.500976562 c 0
 363.958984375 347.834960938 358.345703125 364.66796875 345.961914062 376.000976562 c 0
 333.578125 387.333984375 311.053710938 393.000976562 278.38671875 393.000976562 c 2
 257.38671875 393.000976562 l 1
 271.700195312 455.000976562 l 1
 298.700195312 455.000976562 l 2
 331.3671875 455.000976562 356.522460938 462.16796875 374.1640625 476.500976562 c 0
 391.806640625 490.833984375 404.090820312 513.000976562 411.016601562 543.000976562 c 0
 418.250976562 574.333984375 414.432617188 597.500976562 399.5625 612.500976562 c 0
 384.692382812 627.500976562 358.923828125 635.000976562 322.256835938 635.000976562 c 0
 282.256835938 635.000976562 250.73046875 625.500976562 227.676757812 606.500976562 c 0
 204.624023438 587.500976562 188.249023438 557.000976562 178.552734375 515.000976562 c 2
 59.6552734375 0.0009765625 l 1
 -8.3447265625 0.0009765625 l 1
 108.474609375 506.000976562 l 2
 122.942382812 568.66796875 148.2421875 616.16796875 184.374023438 648.500976562 c 0
 220.504882812 680.833984375 270.904296875 697.000976562 335.571289062 697.000976562 c 0
 393.571289062 697.000976562 434.993164062 683.66796875 459.836914062 657.000976562 c 0
 484.680664062 630.333984375 491.484375 592.666992188 480.249023438 544 c 0
 473.4765625 514.666015625 462.602539062 490.666015625 447.625976562 472 c 0
 432.649414062 453.333007812 412.853515625 438.333007812 388.237304688 427 c 1
 407.262695312 417 420.09375 404 426.733398438 388 c 0
 433.375976562 372 435.553710938 351.833007812 433.265625 327.5 c 0
 430.981445312 303.166992188 424.759765625 269 414.6015625 225 c 0
 401.057617188 166.333007812 386.591796875 121 371.204101562 89 c 0
 355.815429688 57 334.557617188 33.5 307.427734375 18.5 c 0
 280.297851562 3.5 243.065429688 -4 195.732421875 -4 c 2
 166.732421875 -4 l 1
 181.046875 58 l 1
EndSplineSet
EndChar

StartChar: agrave
Encoding: 224 224 161
Width: 497
GlyphClass: 2
Flags: MW
HStem: -6.00098 55.001<116.97 146.604> 238 49.999<161.27 337.147 200.147 325.604> 457 57<245.989 279.498> 677.001 20G<197.572 281.572 281.572 281.572>
LayerCount: 2
Fore
SplineSet
399.895507812 471 m 0
 424.944335938 442.333007812 431.081054688 400.333007812 418.306640625 345 c 2
 338.657226562 0 l 1
 271.657226562 0 l 1
 284.124023438 54 l 1
 264.01953125 33.3330078125 241.518554688 18.166015625 216.619140625 8.4990234375 c 0
 191.720703125 -1.16796875 162.9375 -6.0009765625 130.270507812 -6.0009765625 c 0
 76.9375 -6.0009765625 38.529296875 6.666015625 15.044921875 31.9990234375 c 0
 -8.439453125 57.33203125 -14.564453125 94.33203125 -3.3291015625 142.999023438 c 0
 7.1376953125 188.33203125 30.166015625 223.83203125 65.7587890625 249.499023438 c 0
 101.3515625 275.166015625 146.147460938 287.999023438 200.147460938 287.999023438 c 2
 337.147460938 287.999023438 l 1
 350.537109375 345.999023438 l 2
 359.002929688 382.666015625 355.390625 410.333007812 339.700195312 429 c 0
 324.009765625 447.666992188 297.831054688 457 261.1640625 457 c 0
 226.497070312 457 197.521484375 449.166992188 174.237304688 433.5 c 0
 150.954101562 417.833007812 136.157226562 396.333007812 129.846679688 369 c 2
 129.154296875 366 l 1
 63.154296875 366 l 1
 64.30859375 371 l 2
 74.3125 414.333007812 97.9833984375 449 135.318359375 475 c 0
 172.654296875 501 218.655273438 514 273.322265625 514 c 0
 332.655273438 514 374.846679688 499.666992188 399.895507812 471 c 0
258.51171875 79.5 m 0
 283.5390625 99.8330078125 300.82421875 130.666992188 310.366210938 172 c 2
 325.603515625 238 l 1
 198.603515625 238 l 2
 123.936523438 238 79.3701171875 206.666992188 64.90234375 144 c 0
 50.28125 80.6669921875 79.9697265625 49 153.969726562 49 c 0
 198.63671875 49 233.484375 59.1669921875 258.51171875 79.5 c 0
197.572265625 697.000976562 m 1
 281.572265625 697.000976562 l 1
 351.713867188 572.000976562 l 1
 288.713867188 572.000976562 l 1
 197.572265625 697.000976562 l 1
EndSplineSet
EndChar

StartChar: aacute
Encoding: 225 225 162
Width: 497
GlyphClass: 2
Flags: MW
HStem: -6.00098 55.001<116.97 146.604> 238 49.999<161.27 337.147 200.147 325.604> 457 57<245.989 279.498> 677.001 20G<347.572 431.572 431.572 431.572>
LayerCount: 2
Fore
SplineSet
399.895507812 471 m 0
 424.944335938 442.333007812 431.081054688 400.333007812 418.306640625 345 c 2
 338.657226562 0 l 1
 271.657226562 0 l 1
 284.124023438 54 l 1
 264.01953125 33.3330078125 241.518554688 18.166015625 216.619140625 8.4990234375 c 0
 191.720703125 -1.16796875 162.9375 -6.0009765625 130.270507812 -6.0009765625 c 0
 76.9375 -6.0009765625 38.529296875 6.666015625 15.044921875 31.9990234375 c 0
 -8.439453125 57.33203125 -14.564453125 94.33203125 -3.3291015625 142.999023438 c 0
 7.1376953125 188.33203125 30.166015625 223.83203125 65.7587890625 249.499023438 c 0
 101.3515625 275.166015625 146.147460938 287.999023438 200.147460938 287.999023438 c 2
 337.147460938 287.999023438 l 1
 350.537109375 345.999023438 l 2
 359.002929688 382.666015625 355.390625 410.333007812 339.700195312 429 c 0
 324.009765625 447.666992188 297.831054688 457 261.1640625 457 c 0
 226.497070312 457 197.521484375 449.166992188 174.237304688 433.5 c 0
 150.954101562 417.833007812 136.157226562 396.333007812 129.846679688 369 c 2
 129.154296875 366 l 1
 63.154296875 366 l 1
 64.30859375 371 l 2
 74.3125 414.333007812 97.9833984375 449 135.318359375 475 c 0
 172.654296875 501 218.655273438 514 273.322265625 514 c 0
 332.655273438 514 374.846679688 499.666992188 399.895507812 471 c 0
258.51171875 79.5 m 0
 283.5390625 99.8330078125 300.82421875 130.666992188 310.366210938 172 c 2
 325.603515625 238 l 1
 198.603515625 238 l 2
 123.936523438 238 79.3701171875 206.666992188 64.90234375 144 c 0
 50.28125 80.6669921875 79.9697265625 49 153.969726562 49 c 0
 198.63671875 49 233.484375 59.1669921875 258.51171875 79.5 c 0
347.572265625 697.000976562 m 1
 431.572265625 697.000976562 l 1
 282.713867188 572.000976562 l 1
 219.713867188 572.000976562 l 1
 347.572265625 697.000976562 l 1
EndSplineSet
EndChar

StartChar: acircumflex
Encoding: 226 226 163
Width: 497
GlyphClass: 2
Flags: MW
HStem: -6.00098 55.001<116.97 146.604> 238 49.999<161.27 337.147 200.147 325.604> 457 57<245.989 279.498>
LayerCount: 2
Fore
SplineSet
399.895507812 471 m 0
 424.944335938 442.333007812 431.081054688 400.333007812 418.306640625 345 c 2
 338.657226562 0 l 1
 271.657226562 0 l 1
 284.124023438 54 l 1
 264.01953125 33.3330078125 241.518554688 18.166015625 216.619140625 8.4990234375 c 0
 191.720703125 -1.16796875 162.9375 -6.0009765625 130.270507812 -6.0009765625 c 0
 76.9375 -6.0009765625 38.529296875 6.666015625 15.044921875 31.9990234375 c 0
 -8.439453125 57.33203125 -14.564453125 94.33203125 -3.3291015625 142.999023438 c 0
 7.1376953125 188.33203125 30.166015625 223.83203125 65.7587890625 249.499023438 c 0
 101.3515625 275.166015625 146.147460938 287.999023438 200.147460938 287.999023438 c 2
 337.147460938 287.999023438 l 1
 350.537109375 345.999023438 l 2
 359.002929688 382.666015625 355.390625 410.333007812 339.700195312 429 c 0
 324.009765625 447.666992188 297.831054688 457 261.1640625 457 c 0
 226.497070312 457 197.521484375 449.166992188 174.237304688 433.5 c 0
 150.954101562 417.833007812 136.157226562 396.333007812 129.846679688 369 c 2
 129.154296875 366 l 1
 63.154296875 366 l 1
 64.30859375 371 l 2
 74.3125 414.333007812 97.9833984375 449 135.318359375 475 c 0
 172.654296875 501 218.655273438 514 273.322265625 514 c 0
 332.655273438 514 374.846679688 499.666992188 399.895507812 471 c 0
258.51171875 79.5 m 0
 283.5390625 99.8330078125 300.82421875 130.666992188 310.366210938 172 c 2
 325.603515625 238 l 1
 198.603515625 238 l 2
 123.936523438 238 79.3701171875 206.666992188 64.90234375 144 c 0
 50.28125 80.6669921875 79.9697265625 49 153.969726562 49 c 0
 198.63671875 49 233.484375 59.1669921875 258.51171875 79.5 c 0
297.650390625 706.000976562 m 1
 352.650390625 706.000976562 l 1
 426.405273438 562.000976562 l 1
 364.405273438 562.000976562 l 1
 314.337890625 657.000976562 l 1
 219.405273438 562.000976562 l 1
 157.405273438 562.000976562 l 1
 297.650390625 706.000976562 l 1
EndSplineSet
EndChar

StartChar: atilde
Encoding: 227 227 164
Width: 497
GlyphClass: 2
Flags: MW
HStem: -6.00098 55.001<116.97 146.604> 238 49.999<161.27 337.147 200.147 325.604> 457 57<245.989 279.498> 570.004 59<360.208 360.587> 608.002 60.002<239.692 267.212>
LayerCount: 2
Fore
SplineSet
399.895507812 471 m 0xe0
 424.944335938 442.333007812 431.081054688 400.333007812 418.306640625 345 c 2
 338.657226562 0 l 1
 271.657226562 0 l 1
 284.124023438 54 l 1
 264.01953125 33.3330078125 241.518554688 18.166015625 216.619140625 8.4990234375 c 0
 191.720703125 -1.16796875 162.9375 -6.0009765625 130.270507812 -6.0009765625 c 0
 76.9375 -6.0009765625 38.529296875 6.666015625 15.044921875 31.9990234375 c 0
 -8.439453125 57.33203125 -14.564453125 94.33203125 -3.3291015625 142.999023438 c 0
 7.1376953125 188.33203125 30.166015625 223.83203125 65.7587890625 249.499023438 c 0
 101.3515625 275.166015625 146.147460938 287.999023438 200.147460938 287.999023438 c 2
 337.147460938 287.999023438 l 1
 350.537109375 345.999023438 l 2
 359.002929688 382.666015625 355.390625 410.333007812 339.700195312 429 c 0
 324.009765625 447.666992188 297.831054688 457 261.1640625 457 c 0
 226.497070312 457 197.521484375 449.166992188 174.237304688 433.5 c 0
 150.954101562 417.833007812 136.157226562 396.333007812 129.846679688 369 c 2
 129.154296875 366 l 1
 63.154296875 366 l 1
 64.30859375 371 l 2
 74.3125 414.333007812 97.9833984375 449 135.318359375 475 c 0
 172.654296875 501 218.655273438 514 273.322265625 514 c 0
 332.655273438 514 374.846679688 499.666992188 399.895507812 471 c 0xe0
258.51171875 79.5 m 0
 283.5390625 99.8330078125 300.82421875 130.666992188 310.366210938 172 c 2
 325.603515625 238 l 1
 198.603515625 238 l 2
 123.936523438 238 79.3701171875 206.666992188 64.90234375 144 c 0
 50.28125 80.6669921875 79.9697265625 49 153.969726562 49 c 0
 198.63671875 49 233.484375 59.1669921875 258.51171875 79.5 c 0
184.104492188 630.000976562 m 1
 198.515625 643.333984375 211.749023438 653.00390625 223.801757812 659.00390625 c 0
 235.853515625 665.00390625 248.545898438 668.00390625 261.87890625 668.00390625 c 0xe8
 272.545898438 668.00390625 281.828125 666.336914062 289.724609375 663.00390625 c 0
 297.622070312 659.670898438 306.80078125 654.670898438 317.26171875 648.00390625 c 0
 325.876953125 642.00390625 333.631835938 637.336914062 340.529296875 634.00390625 c 0
 347.426757812 630.670898438 355.541992188 629.00390625 364.875 629.00390625 c 0xf0
 376.875 629.00390625 388.029296875 631.836914062 398.337890625 637.50390625 c 0
 408.646484375 643.172851562 422.494140625 653.33984375 439.87890625 668.00390625 c 1xe8
 425.795898438 607.00390625 l 1
 398.768554688 582.336914062 372.920898438 570.00390625 348.25390625 570.00390625 c 0xf0
 336.920898438 570.00390625 327.305664062 571.670898438 319.408203125 575.00390625 c 0
 311.510742188 578.336914062 302.075195312 583.669921875 291.1015625 591.002929688 c 0
 289.409179688 592.3359375 285.614257812 594.668945312 279.716796875 598.001953125 c 0
 273.819335938 601.334960938 268.063476562 603.834960938 262.448242188 605.501953125 c 0
 256.833007812 607.168945312 251.358398438 608.001953125 246.025390625 608.001953125 c 0xe8
 233.358398438 608.001953125 221.705078125 605.168945312 211.063476562 599.501953125 c 0
 200.420898438 593.834960938 186.740234375 583.66796875 170.021484375 569.000976562 c 1
 184.104492188 630.000976562 l 1
EndSplineSet
EndChar

StartChar: adieresis
Encoding: 228 228 165
Width: 497
GlyphClass: 2
Flags: MW
HStem: -6.00098 55.001<116.97 146.604> 238 49.999<161.27 337.147 200.147 325.604> 457 57<245.989 279.498> 578.001 86<191.954 248.1 172.1 267.954 191.954 343.1 362.954 419.1>
LayerCount: 2
Fore
SplineSet
399.895507812 471 m 0
 424.944335938 442.333007812 431.081054688 400.333007812 418.306640625 345 c 2
 338.657226562 0 l 1
 271.657226562 0 l 1
 284.124023438 54 l 1
 264.01953125 33.3330078125 241.518554688 18.166015625 216.619140625 8.4990234375 c 0
 191.720703125 -1.16796875 162.9375 -6.0009765625 130.270507812 -6.0009765625 c 0
 76.9375 -6.0009765625 38.529296875 6.666015625 15.044921875 31.9990234375 c 0
 -8.439453125 57.33203125 -14.564453125 94.33203125 -3.3291015625 142.999023438 c 0
 7.1376953125 188.33203125 30.166015625 223.83203125 65.7587890625 249.499023438 c 0
 101.3515625 275.166015625 146.147460938 287.999023438 200.147460938 287.999023438 c 2
 337.147460938 287.999023438 l 1
 350.537109375 345.999023438 l 2
 359.002929688 382.666015625 355.390625 410.333007812 339.700195312 429 c 0
 324.009765625 447.666992188 297.831054688 457 261.1640625 457 c 0
 226.497070312 457 197.521484375 449.166992188 174.237304688 433.5 c 0
 150.954101562 417.833007812 136.157226562 396.333007812 129.846679688 369 c 2
 129.154296875 366 l 1
 63.154296875 366 l 1
 64.30859375 371 l 2
 74.3125 414.333007812 97.9833984375 449 135.318359375 475 c 0
 172.654296875 501 218.655273438 514 273.322265625 514 c 0
 332.655273438 514 374.846679688 499.666992188 399.895507812 471 c 0
258.51171875 79.5 m 0
 283.5390625 99.8330078125 300.82421875 130.666992188 310.366210938 172 c 2
 325.603515625 238 l 1
 198.603515625 238 l 2
 123.936523438 238 79.3701171875 206.666992188 64.90234375 144 c 0
 50.28125 80.6669921875 79.9697265625 49 153.969726562 49 c 0
 198.63671875 49 233.484375 59.1669921875 258.51171875 79.5 c 0
191.954101562 664.000976562 m 1
 267.954101562 664.000976562 l 1
 248.099609375 578.000976562 l 1
 172.099609375 578.000976562 l 1
 191.954101562 664.000976562 l 1
362.954101562 664.000976562 m 1
 438.954101562 664.000976562 l 1
 419.099609375 578.000976562 l 1
 343.099609375 578.000976562 l 1
 362.954101562 664.000976562 l 1
EndSplineSet
EndChar

StartChar: aring
Encoding: 229 229 166
Width: 497
GlyphClass: 2
Flags: MW
HStem: -6.00098 55.001<116.97 146.604> 238 49.999<161.27 337.147 200.147 325.604> 457 57<245.989 279.498> 559.001 38<293.153 304.713> 704.001 38<320.628 332.522>
LayerCount: 2
Fore
SplineSet
399.895507812 471 m 0
 424.944335938 442.333007812 431.081054688 400.333007812 418.306640625 345 c 2
 338.657226562 0 l 1
 271.657226562 0 l 1
 284.124023438 54 l 1
 264.01953125 33.3330078125 241.518554688 18.166015625 216.619140625 8.4990234375 c 0
 191.720703125 -1.16796875 162.9375 -6.0009765625 130.270507812 -6.0009765625 c 0
 76.9375 -6.0009765625 38.529296875 6.666015625 15.044921875 31.9990234375 c 0
 -8.439453125 57.33203125 -14.564453125 94.33203125 -3.3291015625 142.999023438 c 0
 7.1376953125 188.33203125 30.166015625 223.83203125 65.7587890625 249.499023438 c 0
 101.3515625 275.166015625 146.147460938 287.999023438 200.147460938 287.999023438 c 2
 337.147460938 287.999023438 l 1
 350.537109375 345.999023438 l 2
 359.002929688 382.666015625 355.390625 410.333007812 339.700195312 429 c 0
 324.009765625 447.666992188 297.831054688 457 261.1640625 457 c 0
 226.497070312 457 197.521484375 449.166992188 174.237304688 433.5 c 0
 150.954101562 417.833007812 136.157226562 396.333007812 129.846679688 369 c 2
 129.154296875 366 l 1
 63.154296875 366 l 1
 64.30859375 371 l 2
 74.3125 414.333007812 97.9833984375 449 135.318359375 475 c 0
 172.654296875 501 218.655273438 514 273.322265625 514 c 0
 332.655273438 514 374.846679688 499.666992188 399.895507812 471 c 0
258.51171875 79.5 m 0
 283.5390625 99.8330078125 300.82421875 130.666992188 310.366210938 172 c 2
 325.603515625 238 l 1
 198.603515625 238 l 2
 123.936523438 238 79.3701171875 206.666992188 64.90234375 144 c 0
 50.28125 80.6669921875 79.9697265625 49 153.969726562 49 c 0
 198.63671875 49 233.484375 59.1669921875 258.51171875 79.5 c 0
232.215820312 585.000976562 m 0
 219.216796875 602.333984375 215.719726562 624.000976562 221.721679688 650.000976562 c 0
 227.87890625 676.66796875 241.458007812 698.66796875 262.458984375 716.000976562 c 0
 283.4609375 733.333984375 307.294921875 742.000976562 333.961914062 742.000976562 c 0
 359.961914062 742.000976562 379.627929688 733.333984375 392.958984375 716.000976562 c 0
 406.291015625 698.66796875 409.87890625 676.66796875 403.721679688 650.000976562 c 0
 397.719726562 624.000976562 384.049804688 602.333984375 362.715820312 585.000976562 c 0
 341.380859375 567.66796875 317.712890625 559.000976562 291.712890625 559.000976562 c 0
 265.045898438 559.000976562 245.213867188 567.66796875 232.215820312 585.000976562 c 0
340.94921875 612.000976562 m 0
 353.2578125 622.000976562 361.182617188 634.668945312 364.721679688 650.001953125 c 0
 368.26171875 665.334960938 366.224609375 678.16796875 358.610351562 688.500976562 c 0
 350.99609375 698.833984375 339.85546875 704.000976562 325.188476562 704.000976562 c 0
 310.521484375 704.000976562 296.99609375 698.833984375 284.610351562 688.500976562 c 0
 272.224609375 678.166992188 264.26171875 665.333984375 260.721679688 650.000976562 c 0
 257.181640625 634.66796875 259.2578125 622.000976562 266.94921875 612.000976562 c 0
 274.640625 602.000976562 285.819335938 597.000976562 300.486328125 597.000976562 c 0
 315.153320312 597.000976562 328.640625 602.000976562 340.94921875 612.000976562 c 0
EndSplineSet
EndChar

StartChar: ae
Encoding: 230 230 167
Width: 798
GlyphClass: 2
Flags: MW
HStem: -6.00098 54.999<116.972 175.271> 237.998 50.001<161.272 337.147 200.147 325.605> 457 57<245.989 279.498>
LayerCount: 2
Fore
SplineSet
394.064453125 240 m 1
 387.140625 209.999023438 l 2
 373.904296875 152.666015625 376.297851562 112.499023438 394.3203125 89.4990234375 c 0
 412.34375 66.4990234375 442.021484375 54.9990234375 483.354492188 54.9990234375 c 0
 519.354492188 54.9990234375 549.522460938 63.666015625 573.857421875 80.9990234375 c 0
 598.192382812 98.33203125 613.900390625 122.33203125 620.979492188 152.999023438 c 2
 621.672851562 155.999023438 l 1
 687.672851562 155.999023438 l 1
 686.518554688 150.999023438 l 2
 675.8984375 104.999023438 651.369140625 67.33203125 612.9296875 37.9990234375 c 0
 574.491210938 8.666015625 526.9375 -6.0009765625 470.270507812 -6.0009765625 c 0
 434.270507812 -6.0009765625 403.604492188 0.4990234375 378.272460938 13.4990234375 c 0
 352.94140625 26.4990234375 334.840820312 46.9990234375 323.97265625 74.9990234375 c 1
 276.837890625 20.9990234375 214.271484375 -6.0009765625 136.271484375 -6.0009765625 c 0
 82.271484375 -6.0009765625 42.734375 6.83203125 17.66015625 32.4990234375 c 0
 -7.4140625 58.166015625 -14.41015625 94.9990234375 -3.3291015625 142.999023438 c 0
 7.1376953125 188.33203125 30.166015625 223.83203125 65.7587890625 249.499023438 c 0
 101.3515625 275.166015625 146.147460938 287.999023438 200.147460938 287.999023438 c 2
 337.147460938 287.999023438 l 1
 350.537109375 345.999023438 l 2
 359.002929688 382.666015625 355.390625 410.333007812 339.700195312 429 c 0
 324.009765625 447.666992188 297.831054688 457 261.1640625 457 c 0
 226.497070312 457 197.521484375 449.166992188 174.237304688 433.5 c 0
 150.954101562 417.833007812 136.157226562 396.333007812 129.846679688 369 c 2
 129.154296875 366 l 1
 63.154296875 366 l 1
 64.30859375 371 l 2
 74.3125 414.333007812 97.9833984375 449 135.318359375 475 c 0
 172.654296875 501 218.655273438 514 273.322265625 514 c 0
 347.322265625 514 394.5 491.666992188 414.854492188 447 c 1
 458.5 491.666992188 514.322265625 514 582.322265625 514 c 0
 640.322265625 514 682.782226562 496.5 709.702148438 461.5 c 0
 736.622070312 426.5 741.693359375 372.666992188 724.916992188 300 c 2
 711.064453125 240 l 1
 394.064453125 240 l 1
469.276367188 418.499023438 m 0
 441.453125 396.166015625 421.15625 357.33203125 408.380859375 301.999023438 c 2
 405.841796875 290.999023438 l 1
 653.841796875 290.999023438 l 1
 657.997070312 308.999023438 l 2
 670.15625 361.666015625 667.865234375 398.666015625 651.124023438 419.999023438 c 0
 634.381835938 441.33203125 606.677734375 451.999023438 568.010742188 451.999023438 c 0
 530.010742188 451.999023438 497.099609375 440.83203125 469.276367188 418.499023438 c 0
325.60546875 237.998046875 m 1
 198.60546875 237.998046875 l 2
 123.938476562 237.998046875 79.3720703125 206.665039062 64.904296875 143.998046875 c 0
 50.2822265625 80.6650390625 79.9716796875 48.998046875 153.971679688 48.998046875 c 0
 239.3046875 48.998046875 291.822265625 91.6650390625 311.522460938 176.998046875 c 2
 325.60546875 237.998046875 l 1
EndSplineSet
EndChar

StartChar: ccedilla
Encoding: 231 231 168
Width: 503
GlyphClass: 2
Flags: MW
HStem: -6 61<160.271 206.021> 451.999 62.001<261.322 298.34>
LayerCount: 2
Fore
SplineSet
373.151367188 340 m 1
 374.303710938 344.999023438 l 2
 382.153320312 378.999023438 377.565429688 405.33203125 360.541992188 423.999023438 c 0
 343.518554688 442.666015625 316.673828125 451.999023438 280.006835938 451.999023438 c 0
 238.673828125 451.999023438 203.762695312 440.83203125 175.2734375 418.499023438 c 0
 146.784179688 396.166015625 126.15234375 357.333007812 113.377929688 302 c 2
 91.2138671875 206 l 2
 78.28515625 150 80.7431640625 110.833007812 98.5869140625 88.5 c 0
 116.431640625 66.1669921875 146.020507812 55 187.353515625 55 c 0
 224.6875 55 256.174804688 64.3330078125 281.817382812 83 c 0
 307.459960938 101.666992188 324.206054688 128 332.055664062 162 c 2
 333.209960938 167 l 1
 399.209960938 167 l 1
 398.287109375 163 l 2
 388.436523438 120.333007812 368.1640625 84.5 337.46875 55.5 c 0
 306.7734375 26.5 269.42578125 7.6669921875 225.424804688 -1 c 1
 142.025390625 -150 l 1
 71.025390625 -150 l 1
 160.270507812 -6 l 1
 103.3984375 -4 62.14453125 13.6669921875 36.5068359375 47 c 0
 10.8701171875 80.3330078125 6.130859375 132 22.2919921875 202 c 2
 46.3017578125 306 l 2
 62.9248046875 378 92.9169921875 430.666992188 136.279296875 464 c 0
 179.641601562 497.333007812 231.322265625 514 291.322265625 514 c 0
 349.322265625 514 391.615234375 498.666992188 418.203125 468 c 0
 444.790039062 437.333007812 452.157226562 396.333007812 440.305664062 345 c 2
 439.151367188 340 l 1
 373.151367188 340 l 1
EndSplineSet
EndChar

StartChar: egrave
Encoding: 232 232 169
Width: 503
GlyphClass: 2
Flags: MW
HStem: -6 61<167.687 198.271> 240 51<99.0645 359.839 110.839 359.839 110.839 416.064> 452 62<258.322 292.342> 676.999 20G<203.571 287.571 287.571 287.571>
LayerCount: 2
Fore
SplineSet
99.064453125 240 m 1
 92.138671875 210 l 2
 78.90234375 152.666992188 81.2958984375 112.5 99.3193359375 89.5 c 0
 117.341796875 66.5 147.020507812 55 188.353515625 55 c 0
 224.353515625 55 254.521484375 63.6669921875 278.85546875 81 c 0
 303.190429688 98.3330078125 318.8984375 122.333007812 325.978515625 153 c 2
 326.670898438 156 l 1
 392.670898438 156 l 1
 391.516601562 151 l 2
 380.588867188 103.666992188 355.315429688 65.6669921875 315.697265625 37 c 0
 276.079101562 8.3330078125 227.270507812 -6 169.270507812 -6 c 0
 109.9375 -6 66.6826171875 11.6669921875 39.5068359375 47 c 0
 12.3310546875 82.3330078125 7.3623046875 137.333007812 24.6005859375 212 c 2
 44.9169921875 300 l 2
 61.693359375 372.666992188 91.7890625 426.5 135.202148438 461.5 c 0
 178.615234375 496.5 229.322265625 514 287.322265625 514 c 0
 345.322265625 514 387.782226562 496.5 414.702148438 461.5 c 0
 441.622070312 426.5 446.693359375 372.666992188 429.916992188 300 c 2
 416.064453125 240 l 1
 99.064453125 240 l 1
174.274414062 418.5 m 0
 146.452148438 396.166992188 126.153320312 357.333007812 113.37890625 302 c 2
 110.838867188 291 l 1
 359.838867188 291 l 1
 363.994140625 309 l 2
 376.153320312 361.666992188 373.696289062 398.666992188 356.62109375 420 c 0
 339.545898438 441.333007812 311.67578125 452 273.008789062 452 c 0
 235.008789062 452 202.09765625 440.833007812 174.274414062 418.5 c 0
203.571289062 696.999023438 m 1
 287.571289062 696.999023438 l 1
 357.712890625 571.999023438 l 1
 294.712890625 571.999023438 l 1
 203.571289062 696.999023438 l 1
EndSplineSet
EndChar

